<mxfile host="65bd71144e">
    <diagram name="Page-1" id="dAxY3QrxFXGfL_ZzQG9W">
        <mxGraphModel dx="2607" dy="1187" grid="1" gridSize="10" guides="1" tooltips="1" connect="1" arrows="1" fold="1" page="1" pageScale="1" pageWidth="950" pageHeight="670" math="1" shadow="0">
            <root>
                <mxCell id="0"/>
                <mxCell id="1" parent="0"/>
                <mxCell id="o_4lC3tYzleQxMTvq1z8-74" value="" style="rounded=1;whiteSpace=wrap;html=1;rotation=-90;fillColor=#fff2cc;strokeColor=#d6b656;opacity=50;" parent="1" vertex="1">
                    <mxGeometry x="381.25" y="137.5" width="670" height="395" as="geometry"/>
                </mxCell>
                <mxCell id="o_4lC3tYzleQxMTvq1z8-71" value="" style="rounded=1;whiteSpace=wrap;html=1;rotation=-90;fillColor=#fff2cc;strokeColor=#d6b656;opacity=50;" parent="1" vertex="1">
                    <mxGeometry x="-30" y="136.25" width="667.5" height="395" as="geometry"/>
                </mxCell>
                <mxCell id="o_4lC3tYzleQxMTvq1z8-68" value="" style="rounded=1;whiteSpace=wrap;html=1;fillColor=#dae8fc;strokeColor=#6c8ebf;opacity=50;" parent="1" vertex="1">
                    <mxGeometry x="6.25" y="360" width="940" height="260" as="geometry"/>
                </mxCell>
                <mxCell id="o_4lC3tYzleQxMTvq1z8-66" value="" style="rounded=1;whiteSpace=wrap;html=1;fillColor=#DAE8FC;gradientDirection=radial;strokeColor=#6c8ebf;fillStyle=auto;shadow=0;glass=0;opacity=50;" parent="1" vertex="1">
                    <mxGeometry x="6.25" y="80" width="940" height="260" as="geometry"/>
                </mxCell>
                <mxCell id="o_4lC3tYzleQxMTvq1z8-69" value="&lt;font style=&quot;font-size: 20px;&quot;&gt;$$\text{Male}$$&lt;/font&gt;" style="text;html=1;align=center;verticalAlign=middle;whiteSpace=wrap;rounded=0;rotation=-90;" parent="1" vertex="1">
                    <mxGeometry x="-23.75" y="160" width="160" height="100" as="geometry"/>
                </mxCell>
                <mxCell id="o_4lC3tYzleQxMTvq1z8-70" value="&lt;font style=&quot;font-size: 20px;&quot;&gt;$$\text{Female}$$&lt;/font&gt;" style="text;html=1;align=center;verticalAlign=middle;whiteSpace=wrap;rounded=0;rotation=-90;" parent="1" vertex="1">
                    <mxGeometry x="-23.75" y="440" width="160" height="100" as="geometry"/>
                </mxCell>
                <mxCell id="o_4lC3tYzleQxMTvq1z8-72" value="&lt;font style=&quot;font-size: 20px;&quot;&gt;$$\text{Age}&amp;gt;50$$&lt;/font&gt;" style="text;html=1;align=center;verticalAlign=middle;whiteSpace=wrap;rounded=0;" parent="1" vertex="1">
                    <mxGeometry x="201.25" y="20" width="205" height="30" as="geometry"/>
                </mxCell>
                <mxCell id="o_4lC3tYzleQxMTvq1z8-75" value="&lt;font style=&quot;font-size: 20px;&quot;&gt;$$\text{Age}\leq50$$&lt;/font&gt;" style="text;html=1;align=center;verticalAlign=middle;whiteSpace=wrap;rounded=0;" parent="1" vertex="1">
                    <mxGeometry x="613.75" y="20" width="205" height="30" as="geometry"/>
                </mxCell>
                <mxCell id="18" value="" style="shape=image;verticalLabelPosition=bottom;labelBackgroundColor=default;verticalAlign=top;aspect=fixed;imageAspect=0;image=data:image/svg+xml,PHN2ZyB4bWxucz0iaHR0cDovL3d3dy53My5vcmcvMjAwMC9zdmciIHhtbG5zOnhsaW5rPSJodHRwOi8vd3d3LnczLm9yZy8xOTk5L3hsaW5rIiB2ZXJzaW9uPSIxLjEiIHZpZXdCb3g9IjAgMCA0NjAuOCAzNDUuNiIgaGVpZ2h0PSIzNDUuNnB0IiB3aWR0aD0iNDYwLjhwdCI+CiA8bWV0YWRhdGE+CiAgCiAgIAogICAgCiAgICAyMDI1LTA1LTAzVDE1OjQxOjQyLjA5MjczMQogICAgaW1hZ2Uvc3ZnK3htbAogICAgCiAgICAgCiAgICAgIE1hdHBsb3RsaWIgdjMuOS4xLnBvc3QxLCBodHRwczovL21hdHBsb3RsaWIub3JnLwogICAgIAogICAgCiAgIAogIAogPC9tZXRhZGF0YT4KIDxkZWZzPgogIDxzdHlsZSB0eXBlPSJ0ZXh0L2NzcyI+KntzdHJva2UtbGluZWpvaW46IHJvdW5kOyBzdHJva2UtbGluZWNhcDogYnV0dH08L3N0eWxlPgogPC9kZWZzPgogPGcgaWQ9ImZpZ3VyZV8xIj4KICA8ZyBpZD0icGF0Y2hfMSI+CiAgIDxwYXRoIHN0eWxlPSJmaWxsOiBub25lIiBkPSJNIDAgMzQ1LjYgJiMxMDtMIDQ2MC44IDM0NS42ICYjMTA7TCA0NjAuOCAwICYjMTA7TCAwIDAgJiMxMDtMIDAgMzQ1LjYgJiMxMDt6Ii8+CiAgPC9nPgogIDxnIGlkPSJheGVzXzEiPgogICA8ZyBpZD0icGF0Y2hfMiI+CiAgICA8cGF0aCBzdHlsZT0iZmlsbDogbm9uZSIgZD0iTSA1Ny42IDMwNy41ODQgJiMxMDtMIDQxNC43MiAzMDcuNTg0ICYjMTA7TCA0MTQuNzIgNDEuNDcyICYjMTA7TCA1Ny42IDQxLjQ3MiAmIzEwO0wgNTcuNiAzMDcuNTg0ICYjMTA7eiIvPgogICA8L2c+CiAgIDxnIGlkPSJtYXRwbG90bGliLmF4aXNfMSI+CiAgICA8ZyBpZD0ieHRpY2tfMSI+CiAgICAgPGcgaWQ9ImxpbmUyZF8xIj4KICAgICAgPGRlZnM+CiAgICAgICA8cGF0aCBzdHlsZT0ic3Ryb2tlOiAjMDAwMDAwOyBzdHJva2Utd2lkdGg6IDAuOCIgZD0iTSAwIDAgJiMxMDtMIDAgMy41IiBpZD0ibTQ4MjMwOWYzMmYiLz4KICAgICAgPC9kZWZzPgogICAgICA8Zz4KICAgICAgIDx1c2Ugc3R5bGU9InN0cm9rZTogIzAwMDAwMDsgc3Ryb2tlLXdpZHRoOiAwLjgiIHk9IjMwNy41ODQiIHg9IjE0Ni44OCIgeGxpbms6aHJlZj0iI200ODIzMDlmMzJmIi8+CiAgICAgIDwvZz4KICAgICA8L2c+CiAgICAgPGcgaWQ9InRleHRfMSI+CiAgICAgIAogICAgICA8ZyB0cmFuc2Zvcm09InRyYW5zbGF0ZSgxMjcuMjE0Mzc1IDMyMi4xODI0MzcpIHNjYWxlKDAuMSAtMC4xKSI+CiAgICAgICA8ZGVmcz4KICAgICAgICA8cGF0aCB0cmFuc2Zvcm09InNjYWxlKDAuMDE1NjI1KSIgZD0iTSAxMjU5IDQxNDcgJiMxMDtMIDEyNTkgNTE5ICYjMTA7TCAyMDIyIDUxOSAmIzEwO1EgMjk4OCA1MTkgMzQzNiA5NTYgJiMxMDtRIDM4ODQgMTM5NCAzODg0IDIzMzggJiMxMDtRIDM4ODQgMzI3NSAzNDM2IDM3MTEgJiMxMDtRIDI5ODggNDE0NyAyMDIyIDQxNDcgJiMxMDtMIDEyNTkgNDE0NyAmIzEwO3omIzEwO00gNjI4IDQ2NjYgJiMxMDtMIDE5MjUgNDY2NiAmIzEwO1EgMzI4MSA0NjY2IDM5MTUgNDEwMiAmIzEwO1EgNDU1MCAzNTM4IDQ1NTAgMjMzOCAmIzEwO1EgNDU1MCAxMTMxIDM5MTIgNTY1ICYjMTA7USAzMjc1IDAgMTkyNSAwICYjMTA7TCA2MjggMCAmIzEwO0wgNjI4IDQ2NjYgJiMxMDt6IiBpZD0iRGVqYVZ1U2Fucy00NCIvPgogICAgICAgIDxwYXRoIHRyYW5zZm9ybT0ic2NhbGUoMC4wMTU2MjUpIiBkPSJNIDYwMyAzNTAwICYjMTA7TCAxMTc4IDM1MDAgJiMxMDtMIDExNzggMCAmIzEwO0wgNjAzIDAgJiMxMDtMIDYwMyAzNTAwICYjMTA7eiYjMTA7TSA2MDMgNDg2MyAmIzEwO0wgMTE3OCA0ODYzICYjMTA7TCAxMTc4IDQxMzQgJiMxMDtMIDYwMyA0MTM0ICYjMTA7TCA2MDMgNDg2MyAmIzEwO3oiIGlkPSJEZWphVnVTYW5zLTY5Ii8+CiAgICAgICAgPHBhdGggdHJhbnNmb3JtPSJzY2FsZSgwLjAxNTYyNSkiIGQ9Ik0gMjgzNCAzMzk3ICYjMTA7TCAyODM0IDI4NTMgJiMxMDtRIDI1OTEgMjk3OCAyMzI4IDMwNDAgJiMxMDtRIDIwNjYgMzEwMyAxNzg0IDMxMDMgJiMxMDtRIDEzNTYgMzEwMyAxMTQyIDI5NzIgJiMxMDtRIDkyOCAyODQxIDkyOCAyNTc4ICYjMTA7USA5MjggMjM3OCAxMDgxIDIyNjQgJiMxMDtRIDEyMzQgMjE1MCAxNjk3IDIwNDcgJiMxMDtMIDE4OTQgMjAwMyAmIzEwO1EgMjUwNiAxODcyIDI3NjQgMTYzMyAmIzEwO1EgMzAyMiAxMzk0IDMwMjIgOTY2ICYjMTA7USAzMDIyIDQ3OCAyNjM2IDE5MyAmIzEwO1EgMjI1MCAtOTEgMTU3NSAtOTEgJiMxMDtRIDEyOTQgLTkxIDk4OSAtMzYgJiMxMDtRIDY4NCAxOSAzNDcgMTI4ICYjMTA7TCAzNDcgNzIyICYjMTA7USA2NjYgNTU2IDk3NSA0NzMgJiMxMDtRIDEyODQgMzkxIDE1ODggMzkxICYjMTA7USAxOTk0IDM5MSAyMjEyIDUzMCAmIzEwO1EgMjQzMSA2NjkgMjQzMSA5MjIgJiMxMDtRIDI0MzEgMTE1NiAyMjczIDEyODEgJiMxMDtRIDIxMTYgMTQwNiAxNTgxIDE1MjIgJiMxMDtMIDEzODEgMTU2OSAmIzEwO1EgODQ3IDE2ODEgNjA5IDE5MTQgJiMxMDtRIDM3MiAyMTQ3IDM3MiAyNTUzICYjMTA7USAzNzIgMzA0NyA3MjIgMzMxNSAmIzEwO1EgMTA3MiAzNTg0IDE3MTYgMzU4NCAmIzEwO1EgMjAzNCAzNTg0IDIzMTUgMzUzNyAmIzEwO1EgMjU5NyAzNDkxIDI4MzQgMzM5NyAmIzEwO3oiIGlkPSJEZWphVnVTYW5zLTczIi8+CiAgICAgICAgPHBhdGggdHJhbnNmb3JtPSJzY2FsZSgwLjAxNTYyNSkiIGQ9Ik0gMzU5NyAxODk0ICYjMTA7TCAzNTk3IDE2MTMgJiMxMDtMIDk1MyAxNjEzICYjMTA7USA5OTEgMTAxOSAxMzExIDcwOCAmIzEwO1EgMTYzMSAzOTcgMjIwMyAzOTcgJiMxMDtRIDI1MzQgMzk3IDI4NDUgNDc4ICYjMTA7USAzMTU2IDU1OSAzNDYzIDcyMiAmIzEwO0wgMzQ2MyAxNzggJiMxMDtRIDMxNTMgNDcgMjgyOCAtMjIgJiMxMDtRIDI1MDMgLTkxIDIxNjkgLTkxICYjMTA7USAxMzMxIC05MSA4NDIgMzk2ICYjMTA7USAzNTMgODg0IDM1MyAxNzE2ICYjMTA7USAzNTMgMjU3NSA4MTcgMzA3OSAmIzEwO1EgMTI4MSAzNTg0IDIwNjkgMzU4NCAmIzEwO1EgMjc3NSAzNTg0IDMxODYgMzEyOSAmIzEwO1EgMzU5NyAyNjc1IDM1OTcgMTg5NCAmIzEwO3omIzEwO00gMzAyMiAyMDYzICYjMTA7USAzMDE2IDI1MzQgMjc1OCAyODE1ICYjMTA7USAyNTAwIDMwOTcgMjA3NSAzMDk3ICYjMTA7USAxNTk0IDMwOTcgMTMwNSAyODI1ICYjMTA7USAxMDE2IDI1NTMgOTcyIDIwNTkgJiMxMDtMIDMwMjIgMjA2MyAmIzEwO3oiIGlkPSJEZWphVnVTYW5zLTY1Ii8+CiAgICAgICAgPHBhdGggdHJhbnNmb3JtPSJzY2FsZSgwLjAxNTYyNSkiIGQ9Ik0gMjE5NCAxNzU5ICYjMTA7USAxNDk3IDE3NTkgMTIyOCAxNjAwICYjMTA7USA5NTkgMTQ0MSA5NTkgMTA1NiAmIzEwO1EgOTU5IDc1MCAxMTYxIDU3MCAmIzEwO1EgMTM2MyAzOTEgMTcwOSAzOTEgJiMxMDtRIDIxODggMzkxIDI0NzcgNzMwICYjMTA7USAyNzY2IDEwNjkgMjc2NiAxNjMxICYjMTA7TCAyNzY2IDE3NTkgJiMxMDtMIDIxOTQgMTc1OSAmIzEwO3omIzEwO00gMzM0MSAxOTk3ICYjMTA7TCAzMzQxIDAgJiMxMDtMIDI3NjYgMCAmIzEwO0wgMjc2NiA1MzEgJiMxMDtRIDI1NjkgMjEzIDIyNzUgNjEgJiMxMDtRIDE5ODEgLTkxIDE1NTYgLTkxICYjMTA7USAxMDE5IC05MSA3MDEgMjExICYjMTA7USAzODQgNTEzIDM4NCAxMDE5ICYjMTA7USAzODQgMTYwOSA3NzkgMTkwOSAmIzEwO1EgMTE3NSAyMjA5IDE5NTkgMjIwOSAmIzEwO0wgMjc2NiAyMjA5ICYjMTA7TCAyNzY2IDIyNjYgJiMxMDtRIDI3NjYgMjY2MyAyNTA1IDI4ODAgJiMxMDtRIDIyNDQgMzA5NyAxNzcyIDMwOTcgJiMxMDtRIDE0NzIgMzA5NyAxMTg3IDMwMjUgJiMxMDtRIDkwMyAyOTUzIDY0MSAyODA5ICYjMTA7TCA2NDEgMzM0MSAmIzEwO1EgOTU2IDM0NjMgMTI1MyAzNTIzICYjMTA7USAxNTUwIDM1ODQgMTgzMSAzNTg0ICYjMTA7USAyNTkxIDM1ODQgMjk2NiAzMTkwICYjMTA7USAzMzQxIDI3OTcgMzM0MSAxOTk3ICYjMTA7eiIgaWQ9IkRlamFWdVNhbnMtNjEiLz4KICAgICAgIDwvZGVmcz4KICAgICAgIDx1c2UgeGxpbms6aHJlZj0iI0RlamFWdVNhbnMtNDQiLz4KICAgICAgIDx1c2UgeD0iNzcuMDAxOTUzIiB4bGluazpocmVmPSIjRGVqYVZ1U2Fucy02OSIvPgogICAgICAgPHVzZSB4PSIxMDQuNzg1MTU2IiB4bGluazpocmVmPSIjRGVqYVZ1U2Fucy03MyIvPgogICAgICAgPHVzZSB4PSIxNTYuODg0NzY2IiB4bGluazpocmVmPSIjRGVqYVZ1U2Fucy02NSIvPgogICAgICAgPHVzZSB4PSIyMTguNDA4MjAzIiB4bGluazpocmVmPSIjRGVqYVZ1U2Fucy02MSIvPgogICAgICAgPHVzZSB4PSIyNzkuNjg3NSIgeGxpbms6aHJlZj0iI0RlamFWdVNhbnMtNzMiLz4KICAgICAgIDx1c2UgeD0iMzMxLjc4NzEwOSIgeGxpbms6aHJlZj0iI0RlamFWdVNhbnMtNjUiLz4KICAgICAgPC9nPgogICAgIDwvZz4KICAgIDwvZz4KICAgIDxnIGlkPSJ4dGlja18yIj4KICAgICA8ZyBpZD0ibGluZTJkXzIiPgogICAgICA8Zz4KICAgICAgIDx1c2Ugc3R5bGU9InN0cm9rZTogIzAwMDAwMDsgc3Ryb2tlLXdpZHRoOiAwLjgiIHk9IjMwNy41ODQiIHg9IjMyNS40NCIgeGxpbms6aHJlZj0iI200ODIzMDlmMzJmIi8+CiAgICAgIDwvZz4KICAgICA8L2c+CiAgICAgPGcgaWQ9InRleHRfMiI+CiAgICAgIAogICAgICA8ZyB0cmFuc2Zvcm09InRyYW5zbGF0ZSgyOTcuMzg1MzEyIDMyMi4xODI0MzcpIHNjYWxlKDAuMSAtMC4xKSI+CiAgICAgICA8ZGVmcz4KICAgICAgICA8cGF0aCB0cmFuc2Zvcm09InNjYWxlKDAuMDE1NjI1KSIgZD0iTSA2MjggNDY2NiAmIzEwO0wgMTQ3OCA0NjY2ICYjMTA7TCAzNTQ3IDc2MyAmIzEwO0wgMzU0NyA0NjY2ICYjMTA7TCA0MTU5IDQ2NjYgJiMxMDtMIDQxNTkgMCAmIzEwO0wgMzMwOSAwICYjMTA7TCAxMjQxIDM5MDMgJiMxMDtMIDEyNDEgMCAmIzEwO0wgNjI4IDAgJiMxMDtMIDYyOCA0NjY2ICYjMTA7eiIgaWQ9IkRlamFWdVNhbnMtNGUiLz4KICAgICAgICA8cGF0aCB0cmFuc2Zvcm09InNjYWxlKDAuMDE1NjI1KSIgZD0iTSAxOTU5IDMwOTcgJiMxMDtRIDE0OTcgMzA5NyAxMjI4IDI3MzYgJiMxMDtRIDk1OSAyMzc1IDk1OSAxNzQ3ICYjMTA7USA5NTkgMTExOSAxMjI2IDc1OCAmIzEwO1EgMTQ5NCAzOTcgMTk1OSAzOTcgJiMxMDtRIDI0MTkgMzk3IDI2ODcgNzU5ICYjMTA7USAyOTU2IDExMjIgMjk1NiAxNzQ3ICYjMTA7USAyOTU2IDIzNjkgMjY4NyAyNzMzICYjMTA7USAyNDE5IDMwOTcgMTk1OSAzMDk3ICYjMTA7eiYjMTA7TSAxOTU5IDM1ODQgJiMxMDtRIDI3MDkgMzU4NCAzMTM3IDMwOTYgJiMxMDtRIDM1NjYgMjYwOSAzNTY2IDE3NDcgJiMxMDtRIDM1NjYgODg4IDMxMzcgMzk4ICYjMTA7USAyNzA5IC05MSAxOTU5IC05MSAmIzEwO1EgMTIwNiAtOTEgNzc5IDM5OCAmIzEwO1EgMzUzIDg4OCAzNTMgMTc0NyAmIzEwO1EgMzUzIDI2MDkgNzc5IDMwOTYgJiMxMDtRIDEyMDYgMzU4NCAxOTU5IDM1ODQgJiMxMDt6IiBpZD0iRGVqYVZ1U2Fucy02ZiIvPgogICAgICAgIDxwYXRoIHRyYW5zZm9ybT0ic2NhbGUoMC4wMTU2MjUpIiBpZD0iRGVqYVZ1U2Fucy0yMCIvPgogICAgICAgPC9kZWZzPgogICAgICAgPHVzZSB4bGluazpocmVmPSIjRGVqYVZ1U2Fucy00ZSIvPgogICAgICAgPHVzZSB4PSI3NC44MDQ2ODgiIHhsaW5rOmhyZWY9IiNEZWphVnVTYW5zLTZmIi8+CiAgICAgICA8dXNlIHg9IjEzNS45ODYzMjgiIHhsaW5rOmhyZWY9IiNEZWphVnVTYW5zLTIwIi8+CiAgICAgICA8dXNlIHg9IjE2Ny43NzM0MzgiIHhsaW5rOmhyZWY9IiNEZWphVnVTYW5zLTQ0Ii8+CiAgICAgICA8dXNlIHg9IjI0NC43NzUzOTEiIHhsaW5rOmhyZWY9IiNEZWphVnVTYW5zLTY5Ii8+CiAgICAgICA8dXNlIHg9IjI3Mi41NTg1OTQiIHhsaW5rOmhyZWY9IiNEZWphVnVTYW5zLTczIi8+CiAgICAgICA8dXNlIHg9IjMyNC42NTgyMDMiIHhsaW5rOmhyZWY9IiNEZWphVnVTYW5zLTY1Ii8+CiAgICAgICA8dXNlIHg9IjM4Ni4xODE2NDEiIHhsaW5rOmhyZWY9IiNEZWphVnVTYW5zLTYxIi8+CiAgICAgICA8dXNlIHg9IjQ0Ny40NjA5MzgiIHhsaW5rOmhyZWY9IiNEZWphVnVTYW5zLTczIi8+CiAgICAgICA8dXNlIHg9IjQ5OS41NjA1NDciIHhsaW5rOmhyZWY9IiNEZWphVnVTYW5zLTY1Ii8+CiAgICAgIDwvZz4KICAgICA8L2c+CiAgICA8L2c+CiAgICA8ZyBpZD0idGV4dF8zIj4KICAgICAKICAgICA8ZyB0cmFuc2Zvcm09InRyYW5zbGF0ZSgyMjAuOTQwNDY5IDMzNS44NjA1NjIpIHNjYWxlKDAuMSAtMC4xKSI+CiAgICAgIDxkZWZzPgogICAgICAgPHBhdGggdHJhbnNmb3JtPSJzY2FsZSgwLjAxNTYyNSkiIGQ9Ik0gMzgwOSA2NjYgJiMxMDtMIDM4MDkgMTkxOSAmIzEwO0wgMjc3OCAxOTE5ICYjMTA7TCAyNzc4IDI0MzggJiMxMDtMIDQ0MzQgMjQzOCAmIzEwO0wgNDQzNCA0MzQgJiMxMDtRIDQwNjkgMTc1IDM2MjggNDIgJiMxMDtRIDMxODggLTkxIDI2ODggLTkxICYjMTA7USAxNTk0IC05MSA5NzYgNTQ4ICYjMTA7USAzNTkgMTE4OCAzNTkgMjMyOCAmIzEwO1EgMzU5IDM0NzIgOTc2IDQxMTEgJiMxMDtRIDE1OTQgNDc1MCAyNjg4IDQ3NTAgJiMxMDtRIDMxNDQgNDc1MCAzNTU1IDQ2MzcgJiMxMDtRIDM5NjYgNDUyNSA0MzEzIDQzMDYgJiMxMDtMIDQzMTMgMzYzNCAmIzEwO1EgMzk2MyAzOTMxIDM1NjkgNDA4MSAmIzEwO1EgMzE3NSA0MjMxIDI3NDEgNDIzMSAmIzEwO1EgMTg4NCA0MjMxIDE0NTQgMzc1MyAmIzEwO1EgMTAyNSAzMjc1IDEwMjUgMjMyOCAmIzEwO1EgMTAyNSAxMzg0IDE0NTQgOTA2ICYjMTA7USAxODg0IDQyOCAyNzQxIDQyOCAmIzEwO1EgMzA3NSA0MjggMzMzNyA0ODYgJiMxMDtRIDM2MDAgNTQ0IDM4MDkgNjY2ICYjMTA7eiIgaWQ9IkRlamFWdVNhbnMtNDciLz4KICAgICAgIDxwYXRoIHRyYW5zZm9ybT0ic2NhbGUoMC4wMTU2MjUpIiBkPSJNIDI2MzEgMjk2MyAmIzEwO1EgMjUzNCAzMDE5IDI0MjAgMzA0NSAmIzEwO1EgMjMwNiAzMDcyIDIxNjkgMzA3MiAmIzEwO1EgMTY4MSAzMDcyIDE0MjAgMjc1NSAmIzEwO1EgMTE1OSAyNDM4IDExNTkgMTg0NCAmIzEwO0wgMTE1OSAwICYjMTA7TCA1ODEgMCAmIzEwO0wgNTgxIDM1MDAgJiMxMDtMIDExNTkgMzUwMCAmIzEwO0wgMTE1OSAyOTU2ICYjMTA7USAxMzQxIDMyNzUgMTYzMSAzNDI5ICYjMTA7USAxOTIyIDM1ODQgMjMzOCAzNTg0ICYjMTA7USAyMzk3IDM1ODQgMjQ2OSAzNTc2ICYjMTA7USAyNTQxIDM1NjkgMjYyOCAzNTUzICYjMTA7TCAyNjMxIDI5NjMgJiMxMDt6IiBpZD0iRGVqYVZ1U2Fucy03MiIvPgogICAgICAgPHBhdGggdHJhbnNmb3JtPSJzY2FsZSgwLjAxNTYyNSkiIGQ9Ik0gNTQ0IDEzODEgJiMxMDtMIDU0NCAzNTAwICYjMTA7TCAxMTE5IDM1MDAgJiMxMDtMIDExMTkgMTQwMyAmIzEwO1EgMTExOSA5MDYgMTMxMiA2NTcgJiMxMDtRIDE1MDYgNDA5IDE4OTQgNDA5ICYjMTA7USAyMzU5IDQwOSAyNjI5IDcwNiAmIzEwO1EgMjkwMCAxMDAzIDI5MDAgMTUxNiAmIzEwO0wgMjkwMCAzNTAwICYjMTA7TCAzNDc1IDM1MDAgJiMxMDtMIDM0NzUgMCAmIzEwO0wgMjkwMCAwICYjMTA7TCAyOTAwIDUzOCAmIzEwO1EgMjY5MSAyMTkgMjQxNCA2NCAmIzEwO1EgMjEzOCAtOTEgMTc3MiAtOTEgJiMxMDtRIDExNjkgLTkxIDg1NiAyODQgJiMxMDtRIDU0NCA2NTkgNTQ0IDEzODEgJiMxMDt6JiMxMDtNIDE5OTEgMzU4NCAmIzEwO0wgMTk5MSAzNTg0ICYjMTA7eiIgaWQ9IkRlamFWdVNhbnMtNzUiLz4KICAgICAgIDxwYXRoIHRyYW5zZm9ybT0ic2NhbGUoMC4wMTU2MjUpIiBkPSJNIDExNTkgNTI1ICYjMTA7TCAxMTU5IC0xMzMxICYjMTA7TCA1ODEgLTEzMzEgJiMxMDtMIDU4MSAzNTAwICYjMTA7TCAxMTU5IDM1MDAgJiMxMDtMIDExNTkgMjk2OSAmIzEwO1EgMTM0MSAzMjgxIDE2MTcgMzQzMiAmIzEwO1EgMTg5NCAzNTg0IDIyNzggMzU4NCAmIzEwO1EgMjkxNiAzNTg0IDMzMTQgMzA3OCAmIzEwO1EgMzcxMyAyNTcyIDM3MTMgMTc0NyAmIzEwO1EgMzcxMyA5MjIgMzMxNCA0MTUgJiMxMDtRIDI5MTYgLTkxIDIyNzggLTkxICYjMTA7USAxODk0IC05MSAxNjE3IDYxICYjMTA7USAxMzQxIDIxMyAxMTU5IDUyNSAmIzEwO3omIzEwO00gMzExNiAxNzQ3ICYjMTA7USAzMTE2IDIzODEgMjg1NSAyNzQyICYjMTA7USAyNTk0IDMxMDMgMjEzOCAzMTAzICYjMTA7USAxNjgxIDMxMDMgMTQyMCAyNzQyICYjMTA7USAxMTU5IDIzODEgMTE1OSAxNzQ3ICYjMTA7USAxMTU5IDExMTMgMTQyMCA3NTIgJiMxMDtRIDE2ODEgMzkxIDIxMzggMzkxICYjMTA7USAyNTk0IDM5MSAyODU1IDc1MiAmIzEwO1EgMzExNiAxMTEzIDMxMTYgMTc0NyAmIzEwO3oiIGlkPSJEZWphVnVTYW5zLTcwIi8+CiAgICAgIDwvZGVmcz4KICAgICAgPHVzZSB4bGluazpocmVmPSIjRGVqYVZ1U2Fucy00NyIvPgogICAgICA8dXNlIHg9Ijc3LjQ5MDIzNCIgeGxpbms6aHJlZj0iI0RlamFWdVNhbnMtNzIiLz4KICAgICAgPHVzZSB4PSIxMTYuMzUzNTE2IiB4bGluazpocmVmPSIjRGVqYVZ1U2Fucy02ZiIvPgogICAgICA8dXNlIHg9IjE3Ny41MzUxNTYiIHhsaW5rOmhyZWY9IiNEZWphVnVTYW5zLTc1Ii8+CiAgICAgIDx1c2UgeD0iMjQwLjkxNDA2MiIgeGxpbms6aHJlZj0iI0RlamFWdVNhbnMtNzAiLz4KICAgICA8L2c+CiAgICA8L2c+CiAgIDwvZz4KICAgPGcgaWQ9Im1hdHBsb3RsaWIuYXhpc18yIj4KICAgIDxnIGlkPSJ5dGlja18xIj4KICAgICA8ZyBpZD0ibGluZTJkXzMiPgogICAgICA8ZGVmcz4KICAgICAgIDxwYXRoIHN0eWxlPSJzdHJva2U6ICMwMDAwMDA7IHN0cm9rZS13aWR0aDogMC44IiBkPSJNIDAgMCAmIzEwO0wgLTMuNSAwIiBpZD0ibTQ5YTA2OTllNWIiLz4KICAgICAgPC9kZWZzPgogICAgICA8Zz4KICAgICAgIDx1c2Ugc3R5bGU9InN0cm9rZTogIzAwMDAwMDsgc3Ryb2tlLXdpZHRoOiAwLjgiIHk9IjI4Ny4wNjA1NTkiIHg9IjU3LjYiIHhsaW5rOmhyZWY9IiNtNDlhMDY5OWU1YiIvPgogICAgICA8L2c+CiAgICAgPC9nPgogICAgIDxnIGlkPSJ0ZXh0XzQiPgogICAgICAKICAgICAgPGcgdHJhbnNmb3JtPSJ0cmFuc2xhdGUoMzUuODU3ODEzIDI5MC44NTk3NzgpIHNjYWxlKDAuMSAtMC4xKSI+CiAgICAgICA8ZGVmcz4KICAgICAgICA8cGF0aCB0cmFuc2Zvcm09InNjYWxlKDAuMDE1NjI1KSIgZD0iTSA2NzggMjI3MiAmIzEwO0wgNDY4NCAyMjcyICYjMTA7TCA0Njg0IDE3NDEgJiMxMDtMIDY3OCAxNzQxICYjMTA7TCA2NzggMjI3MiAmIzEwO3oiIGlkPSJEZWphVnVTYW5zLTIyMTIiLz4KICAgICAgICA8cGF0aCB0cmFuc2Zvcm09InNjYWxlKDAuMDE1NjI1KSIgZD0iTSAxMjI4IDUzMSAmIzEwO0wgMzQzMSA1MzEgJiMxMDtMIDM0MzEgMCAmIzEwO0wgNDY5IDAgJiMxMDtMIDQ2OSA1MzEgJiMxMDtRIDgyOCA5MDMgMTQ0OCAxNTI5ICYjMTA7USAyMDY5IDIxNTYgMjIyOCAyMzM4ICYjMTA7USAyNTMxIDI2NzggMjY1MSAyOTE0ICYjMTA7USAyNzcyIDMxNTAgMjc3MiAzMzc4ICYjMTA7USAyNzcyIDM3NTAgMjUxMSAzOTg0ICYjMTA7USAyMjUwIDQyMTkgMTgzMSA0MjE5ICYjMTA7USAxNTM0IDQyMTkgMTIwNCA0MTE2ICYjMTA7USA4NzUgNDAxMyA1MDAgMzgwMyAmIzEwO0wgNTAwIDQ0NDEgJiMxMDtRIDg4MSA0NTk0IDEyMTIgNDY3MiAmIzEwO1EgMTU0NCA0NzUwIDE4MTkgNDc1MCAmIzEwO1EgMjU0NCA0NzUwIDI5NzUgNDM4NyAmIzEwO1EgMzQwNiA0MDI1IDM0MDYgMzQxOSAmIzEwO1EgMzQwNiAzMTMxIDMyOTggMjg3MyAmIzEwO1EgMzE5MSAyNjE2IDI5MDYgMjI2NiAmIzEwO1EgMjgyOCAyMTc1IDI0MDkgMTc0MiAmIzEwO1EgMTk5MSAxMzA5IDEyMjggNTMxICYjMTA7eiIgaWQ9IkRlamFWdVNhbnMtMzIiLz4KICAgICAgIDwvZGVmcz4KICAgICAgIDx1c2UgeGxpbms6aHJlZj0iI0RlamFWdVNhbnMtMjIxMiIvPgogICAgICAgPHVzZSB4PSI4My43ODkwNjIiIHhsaW5rOmhyZWY9IiNEZWphVnVTYW5zLTMyIi8+CiAgICAgIDwvZz4KICAgICA8L2c+CiAgICA8L2c+CiAgICA8ZyBpZD0ieXRpY2tfMiI+CiAgICAgPGcgaWQ9ImxpbmUyZF80Ij4KICAgICAgPGc+CiAgICAgICA8dXNlIHN0eWxlPSJzdHJva2U6ICMwMDAwMDA7IHN0cm9rZS13aWR0aDogMC44IiB5PSIyNTMuMTc0MDE0IiB4PSI1Ny42IiB4bGluazpocmVmPSIjbTQ5YTA2OTllNWIiLz4KICAgICAgPC9nPgogICAgIDwvZz4KICAgICA8ZyBpZD0idGV4dF81Ij4KICAgICAgCiAgICAgIDxnIHRyYW5zZm9ybT0idHJhbnNsYXRlKDM1Ljg1NzgxMyAyNTYuOTczMjMzKSBzY2FsZSgwLjEgLTAuMSkiPgogICAgICAgPGRlZnM+CiAgICAgICAgPHBhdGggdHJhbnNmb3JtPSJzY2FsZSgwLjAxNTYyNSkiIGQ9Ik0gNzk0IDUzMSAmIzEwO0wgMTgyNSA1MzEgJiMxMDtMIDE4MjUgNDA5MSAmIzEwO0wgNzAzIDM4NjYgJiMxMDtMIDcwMyA0NDQxICYjMTA7TCAxODE5IDQ2NjYgJiMxMDtMIDI0NTAgNDY2NiAmIzEwO0wgMjQ1MCA1MzEgJiMxMDtMIDM0ODEgNTMxICYjMTA7TCAzNDgxIDAgJiMxMDtMIDc5NCAwICYjMTA7TCA3OTQgNTMxICYjMTA7eiIgaWQ9IkRlamFWdVNhbnMtMzEiLz4KICAgICAgIDwvZGVmcz4KICAgICAgIDx1c2UgeGxpbms6aHJlZj0iI0RlamFWdVNhbnMtMjIxMiIvPgogICAgICAgPHVzZSB4PSI4My43ODkwNjIiIHhsaW5rOmhyZWY9IiNEZWphVnVTYW5zLTMxIi8+CiAgICAgIDwvZz4KICAgICA8L2c+CiAgICA8L2c+CiAgICA8ZyBpZD0ieXRpY2tfMyI+CiAgICAgPGcgaWQ9ImxpbmUyZF81Ij4KICAgICAgPGc+CiAgICAgICA8dXNlIHN0eWxlPSJzdHJva2U6ICMwMDAwMDA7IHN0cm9rZS13aWR0aDogMC44IiB5PSIyMTkuMjg3NDY5IiB4PSI1Ny42IiB4bGluazpocmVmPSIjbTQ5YTA2OTllNWIiLz4KICAgICAgPC9nPgogICAgIDwvZz4KICAgICA8ZyBpZD0idGV4dF82Ij4KICAgICAgCiAgICAgIDxnIHRyYW5zZm9ybT0idHJhbnNsYXRlKDQ0LjIzNzUgMjIzLjA4NjY4OCkgc2NhbGUoMC4xIC0wLjEpIj4KICAgICAgIDxkZWZzPgogICAgICAgIDxwYXRoIHRyYW5zZm9ybT0ic2NhbGUoMC4wMTU2MjUpIiBkPSJNIDIwMzQgNDI1MCAmIzEwO1EgMTU0NyA0MjUwIDEzMDEgMzc3MCAmIzEwO1EgMTA1NiAzMjkxIDEwNTYgMjMyOCAmIzEwO1EgMTA1NiAxMzY5IDEzMDEgODg5ICYjMTA7USAxNTQ3IDQwOSAyMDM0IDQwOSAmIzEwO1EgMjUyNSA0MDkgMjc3MCA4ODkgJiMxMDtRIDMwMTYgMTM2OSAzMDE2IDIzMjggJiMxMDtRIDMwMTYgMzI5MSAyNzcwIDM3NzAgJiMxMDtRIDI1MjUgNDI1MCAyMDM0IDQyNTAgJiMxMDt6JiMxMDtNIDIwMzQgNDc1MCAmIzEwO1EgMjgxOSA0NzUwIDMyMzMgNDEyOSAmIzEwO1EgMzY0NyAzNTA5IDM2NDcgMjMyOCAmIzEwO1EgMzY0NyAxMTUwIDMyMzMgNTI5ICYjMTA7USAyODE5IC05MSAyMDM0IC05MSAmIzEwO1EgMTI1MCAtOTEgODM2IDUyOSAmIzEwO1EgNDIyIDExNTAgNDIyIDIzMjggJiMxMDtRIDQyMiAzNTA5IDgzNiA0MTI5ICYjMTA7USAxMjUwIDQ3NTAgMjAzNCA0NzUwICYjMTA7eiIgaWQ9IkRlamFWdVNhbnMtMzAiLz4KICAgICAgIDwvZGVmcz4KICAgICAgIDx1c2UgeGxpbms6aHJlZj0iI0RlamFWdVNhbnMtMzAiLz4KICAgICAgPC9nPgogICAgIDwvZz4KICAgIDwvZz4KICAgIDxnIGlkPSJ5dGlja180Ij4KICAgICA8ZyBpZD0ibGluZTJkXzYiPgogICAgICA8Zz4KICAgICAgIDx1c2Ugc3R5bGU9InN0cm9rZTogIzAwMDAwMDsgc3Ryb2tlLXdpZHRoOiAwLjgiIHk9IjE4NS40MDA5MjQiIHg9IjU3LjYiIHhsaW5rOmhyZWY9IiNtNDlhMDY5OWU1YiIvPgogICAgICA8L2c+CiAgICAgPC9nPgogICAgIDxnIGlkPSJ0ZXh0XzciPgogICAgICAKICAgICAgPGcgdHJhbnNmb3JtPSJ0cmFuc2xhdGUoNDQuMjM3NSAxODkuMjAwMTQzKSBzY2FsZSgwLjEgLTAuMSkiPgogICAgICAgPHVzZSB4bGluazpocmVmPSIjRGVqYVZ1U2Fucy0zMSIvPgogICAgICA8L2c+CiAgICAgPC9nPgogICAgPC9nPgogICAgPGcgaWQ9Inl0aWNrXzUiPgogICAgIDxnIGlkPSJsaW5lMmRfNyI+CiAgICAgIDxnPgogICAgICAgPHVzZSBzdHlsZT0ic3Ryb2tlOiAjMDAwMDAwOyBzdHJva2Utd2lkdGg6IDAuOCIgeT0iMTUxLjUxNDM3OSIgeD0iNTcuNiIgeGxpbms6aHJlZj0iI200OWEwNjk5ZTViIi8+CiAgICAgIDwvZz4KICAgICA8L2c+CiAgICAgPGcgaWQ9InRleHRfOCI+CiAgICAgIAogICAgICA8ZyB0cmFuc2Zvcm09InRyYW5zbGF0ZSg0NC4yMzc1IDE1NS4zMTM1OTgpIHNjYWxlKDAuMSAtMC4xKSI+CiAgICAgICA8dXNlIHhsaW5rOmhyZWY9IiNEZWphVnVTYW5zLTMyIi8+CiAgICAgIDwvZz4KICAgICA8L2c+CiAgICA8L2c+CiAgICA8ZyBpZD0ieXRpY2tfNiI+CiAgICAgPGcgaWQ9ImxpbmUyZF84Ij4KICAgICAgPGc+CiAgICAgICA8dXNlIHN0eWxlPSJzdHJva2U6ICMwMDAwMDA7IHN0cm9rZS13aWR0aDogMC44IiB5PSIxMTcuNjI3ODM0IiB4PSI1Ny42IiB4bGluazpocmVmPSIjbTQ5YTA2OTllNWIiLz4KICAgICAgPC9nPgogICAgIDwvZz4KICAgICA8ZyBpZD0idGV4dF85Ij4KICAgICAgCiAgICAgIDxnIHRyYW5zZm9ybT0idHJhbnNsYXRlKDQ0LjIzNzUgMTIxLjQyNzA1Mykgc2NhbGUoMC4xIC0wLjEpIj4KICAgICAgIDxkZWZzPgogICAgICAgIDxwYXRoIHRyYW5zZm9ybT0ic2NhbGUoMC4wMTU2MjUpIiBkPSJNIDI1OTcgMjUxNiAmIzEwO1EgMzA1MCAyNDE5IDMzMDQgMjExMiAmIzEwO1EgMzU1OSAxODA2IDM1NTkgMTM1NiAmIzEwO1EgMzU1OSA2NjYgMzA4NCAyODcgJiMxMDtRIDI2MDkgLTkxIDE3MzQgLTkxICYjMTA7USAxNDQxIC05MSAxMTMwIC0zMyAmIzEwO1EgODE5IDI1IDQ4OCAxNDEgJiMxMDtMIDQ4OCA3NTAgJiMxMDtRIDc1MCA1OTcgMTA2MiA1MTkgJiMxMDtRIDEzNzUgNDQxIDE3MTYgNDQxICYjMTA7USAyMzA5IDQ0MSAyNjIwIDY3NSAmIzEwO1EgMjkzMSA5MDkgMjkzMSAxMzU2ICYjMTA7USAyOTMxIDE3NjkgMjY0MiAyMDAxICYjMTA7USAyMzUzIDIyMzQgMTgzOCAyMjM0ICYjMTA7TCAxMjk0IDIyMzQgJiMxMDtMIDEyOTQgMjc1MyAmIzEwO0wgMTg2MyAyNzUzICYjMTA7USAyMzI4IDI3NTMgMjU3NSAyOTM5ICYjMTA7USAyODIyIDMxMjUgMjgyMiAzNDc1ICYjMTA7USAyODIyIDM4MzQgMjU2NyA0MDI2ICYjMTA7USAyMzEzIDQyMTkgMTgzOCA0MjE5ICYjMTA7USAxNTc4IDQyMTkgMTI4MSA0MTYyICYjMTA7USA5ODQgNDEwNiA2MjggMzk4OCAmIzEwO0wgNjI4IDQ1NTAgJiMxMDtRIDk4OCA0NjUwIDEzMDIgNDcwMCAmIzEwO1EgMTYxNiA0NzUwIDE4OTQgNDc1MCAmIzEwO1EgMjYxMyA0NzUwIDMwMzEgNDQyMyAmIzEwO1EgMzQ1MCA0MDk3IDM0NTAgMzU0MSAmIzEwO1EgMzQ1MCAzMTUzIDMyMjggMjg4NiAmIzEwO1EgMzAwNiAyNjE5IDI1OTcgMjUxNiAmIzEwO3oiIGlkPSJEZWphVnVTYW5zLTMzIi8+CiAgICAgICA8L2RlZnM+CiAgICAgICA8dXNlIHhsaW5rOmhyZWY9IiNEZWphVnVTYW5zLTMzIi8+CiAgICAgIDwvZz4KICAgICA8L2c+CiAgICA8L2c+CiAgICA8ZyBpZD0ieXRpY2tfNyI+CiAgICAgPGcgaWQ9ImxpbmUyZF85Ij4KICAgICAgPGc+CiAgICAgICA8dXNlIHN0eWxlPSJzdHJva2U6ICMwMDAwMDA7IHN0cm9rZS13aWR0aDogMC44IiB5PSI4My43NDEyODkiIHg9IjU3LjYiIHhsaW5rOmhyZWY9IiNtNDlhMDY5OWU1YiIvPgogICAgICA8L2c+CiAgICAgPC9nPgogICAgIDxnIGlkPSJ0ZXh0XzEwIj4KICAgICAgCiAgICAgIDxnIHRyYW5zZm9ybT0idHJhbnNsYXRlKDQ0LjIzNzUgODcuNTQwNTA4KSBzY2FsZSgwLjEgLTAuMSkiPgogICAgICAgPGRlZnM+CiAgICAgICAgPHBhdGggdHJhbnNmb3JtPSJzY2FsZSgwLjAxNTYyNSkiIGQ9Ik0gMjQxOSA0MTE2ICYjMTA7TCA4MjUgMTYyNSAmIzEwO0wgMjQxOSAxNjI1ICYjMTA7TCAyNDE5IDQxMTYgJiMxMDt6JiMxMDtNIDIyNTMgNDY2NiAmIzEwO0wgMzA0NyA0NjY2ICYjMTA7TCAzMDQ3IDE2MjUgJiMxMDtMIDM3MTMgMTYyNSAmIzEwO0wgMzcxMyAxMTAwICYjMTA7TCAzMDQ3IDExMDAgJiMxMDtMIDMwNDcgMCAmIzEwO0wgMjQxOSAwICYjMTA7TCAyNDE5IDExMDAgJiMxMDtMIDMxMyAxMTAwICYjMTA7TCAzMTMgMTcwOSAmIzEwO0wgMjI1MyA0NjY2ICYjMTA7eiIgaWQ9IkRlamFWdVNhbnMtMzQiLz4KICAgICAgIDwvZGVmcz4KICAgICAgIDx1c2UgeGxpbms6aHJlZj0iI0RlamFWdVNhbnMtMzQiLz4KICAgICAgPC9nPgogICAgIDwvZz4KICAgIDwvZz4KICAgIDxnIGlkPSJ5dGlja184Ij4KICAgICA8ZyBpZD0ibGluZTJkXzEwIj4KICAgICAgPGc+CiAgICAgICA8dXNlIHN0eWxlPSJzdHJva2U6ICMwMDAwMDA7IHN0cm9rZS13aWR0aDogMC44IiB5PSI0OS44NTQ3NDQiIHg9IjU3LjYiIHhsaW5rOmhyZWY9IiNtNDlhMDY5OWU1YiIvPgogICAgICA8L2c+CiAgICAgPC9nPgogICAgIDxnIGlkPSJ0ZXh0XzExIj4KICAgICAgCiAgICAgIDxnIHRyYW5zZm9ybT0idHJhbnNsYXRlKDQ0LjIzNzUgNTMuNjUzOTYyKSBzY2FsZSgwLjEgLTAuMSkiPgogICAgICAgPGRlZnM+CiAgICAgICAgPHBhdGggdHJhbnNmb3JtPSJzY2FsZSgwLjAxNTYyNSkiIGQ9Ik0gNjkxIDQ2NjYgJiMxMDtMIDMxNjkgNDY2NiAmIzEwO0wgMzE2OSA0MTM0ICYjMTA7TCAxMjY5IDQxMzQgJiMxMDtMIDEyNjkgMjk5MSAmIzEwO1EgMTQwNiAzMDM4IDE1NDMgMzA2MSAmIzEwO1EgMTY4MSAzMDg0IDE4MTkgMzA4NCAmIzEwO1EgMjYwMCAzMDg0IDMwNTYgMjY1NiAmIzEwO1EgMzUxMyAyMjI4IDM1MTMgMTQ5NyAmIzEwO1EgMzUxMyA3NDQgMzA0NCAzMjYgJiMxMDtRIDI1NzUgLTkxIDE3MjIgLTkxICYjMTA7USAxNDI4IC05MSAxMTIzIC00MSAmIzEwO1EgODE5IDkgNDk0IDEwOSAmIzEwO0wgNDk0IDc0NCAmIzEwO1EgNzc1IDU5MSAxMDc1IDUxNiAmIzEwO1EgMTM3NSA0NDEgMTcwOSA0NDEgJiMxMDtRIDIyNTAgNDQxIDI1NjUgNzI1ICYjMTA7USAyODgxIDEwMDkgMjg4MSAxNDk3ICYjMTA7USAyODgxIDE5ODQgMjU2NSAyMjY4ICYjMTA7USAyMjUwIDI1NTMgMTcwOSAyNTUzICYjMTA7USAxNDU2IDI1NTMgMTIwNCAyNDk3ICYjMTA7USA5NTMgMjQ0MSA2OTEgMjMyMiAmIzEwO0wgNjkxIDQ2NjYgJiMxMDt6IiBpZD0iRGVqYVZ1U2Fucy0zNSIvPgogICAgICAgPC9kZWZzPgogICAgICAgPHVzZSB4bGluazpocmVmPSIjRGVqYVZ1U2Fucy0zNSIvPgogICAgICA8L2c+CiAgICAgPC9nPgogICAgPC9nPgogICAgPGcgaWQ9InRleHRfMTIiPgogICAgIAogICAgIDxnIHRyYW5zZm9ybT0idHJhbnNsYXRlKDI5Ljc3ODEyNSAxNzcuNTgxOTA2KSByb3RhdGUoLTkwKSBzY2FsZSgwLjEgLTAuMSkiPgogICAgICA8ZGVmcz4KICAgICAgIDxwYXRoIHRyYW5zZm9ybT0ic2NhbGUoMC4wMTU2MjUpIiBkPSJNIC0xMyA0NjY2ICYjMTA7TCA2NjYgNDY2NiAmIzEwO0wgMTk1OSAyNzQ3ICYjMTA7TCAzMjQ0IDQ2NjYgJiMxMDtMIDM5MjIgNDY2NiAmIzEwO0wgMjI3MiAyMjIyICYjMTA7TCAyMjcyIDAgJiMxMDtMIDE2MzggMCAmIzEwO0wgMTYzOCAyMjIyICYjMTA7TCAtMTMgNDY2NiAmIzEwO3oiIGlkPSJEZWphVnVTYW5zLTU5Ii8+CiAgICAgIDwvZGVmcz4KICAgICAgPHVzZSB4bGluazpocmVmPSIjRGVqYVZ1U2Fucy01OSIvPgogICAgIDwvZz4KICAgIDwvZz4KICAgPC9nPgogICA8ZyBpZD0icGF0Y2hfMyI+CiAgICA8cGF0aCBzdHlsZT0iZmlsbDogIzMyNzRhMTsgc3Ryb2tlOiAjM2YzZjNmOyBzdHJva2UtbGluZWpvaW46IG1pdGVyIiBjbGlwLXBhdGg9InVybCgjcDk2MmEzYjdhYWMpIiBkPSJNIDc1LjQ1NiAxNjIuNjQ3MTA1ICYjMTA7TCAyMTguMzA0IDE2Mi42NDcxMDUgJiMxMDtMIDIxOC4zMDQgMTExLjE3MjM2MSAmIzEwO0wgNzUuNDU2IDExMS4xNzIzNjEgJiMxMDtMIDc1LjQ1NiAxNjIuNjQ3MTA1ICYjMTA7eiIvPgogICA8L2c+CiAgIDxnIGlkPSJsaW5lMmRfMTEiPgogICAgPHBhdGggc3R5bGU9ImZpbGw6IG5vbmU7IHN0cm9rZTogIzNmM2YzZiIgY2xpcC1wYXRoPSJ1cmwoI3A5NjJhM2I3YWFjKSIgZD0iTSAxNDYuODggMTYyLjY0NzEwNSAmIzEwO0wgMTQ2Ljg4IDIyNi42MjE3NDQiLz4KICAgPC9nPgogICA8ZyBpZD0ibGluZTJkXzEyIj4KICAgIDxwYXRoIHN0eWxlPSJmaWxsOiBub25lOyBzdHJva2U6ICMzZjNmM2YiIGNsaXAtcGF0aD0idXJsKCNwOTYyYTNiN2FhYykiIGQ9Ik0gMTQ2Ljg4IDExMS4xNzIzNjEgJiMxMDtMIDE0Ni44OCA1My41NjgiLz4KICAgPC9nPgogICA8ZyBpZD0ibGluZTJkXzEzIj4KICAgIDxwYXRoIHN0eWxlPSJmaWxsOiBub25lOyBzdHJva2U6ICMzZjNmM2Y7IHN0cm9rZS1saW5lY2FwOiBzcXVhcmUiIGNsaXAtcGF0aD0idXJsKCNwOTYyYTNiN2FhYykiIGQ9Ik0gMTExLjE2OCAyMjYuNjIxNzQ0ICYjMTA7TCAxODIuNTkyIDIyNi42MjE3NDQiLz4KICAgPC9nPgogICA8ZyBpZD0ibGluZTJkXzE0Ij4KICAgIDxwYXRoIHN0eWxlPSJmaWxsOiBub25lOyBzdHJva2U6ICMzZjNmM2Y7IHN0cm9rZS1saW5lY2FwOiBzcXVhcmUiIGNsaXAtcGF0aD0idXJsKCNwOTYyYTNiN2FhYykiIGQ9Ik0gMTExLjE2OCA1My41NjggJiMxMDtMIDE4Mi41OTIgNTMuNTY4Ii8+CiAgIDwvZz4KICAgPGcgaWQ9ImxpbmUyZF8xNSIvPgogICA8ZyBpZD0icGF0Y2hfNCI+CiAgICA8cGF0aCBzdHlsZT0iZmlsbDogI2UxODEyYzsgc3Ryb2tlOiAjM2YzZjNmOyBzdHJva2UtbGluZWpvaW46IG1pdGVyIiBjbGlwLXBhdGg9InVybCgjcDk2MmEzYjdhYWMpIiBkPSJNIDI1NC4wMTYgMjM2LjcwNjY4NCAmIzEwO0wgMzk2Ljg2NCAyMzYuNzA2Njg0ICYjMTA7TCAzOTYuODY0IDE4OC45NjAyNiAmIzEwO0wgMjU0LjAxNiAxODguOTYwMjYgJiMxMDtMIDI1NC4wMTYgMjM2LjcwNjY4NCAmIzEwO3oiLz4KICAgPC9nPgogICA8ZyBpZD0ibGluZTJkXzE2Ij4KICAgIDxwYXRoIHN0eWxlPSJmaWxsOiBub25lOyBzdHJva2U6ICMzZjNmM2YiIGNsaXAtcGF0aD0idXJsKCNwOTYyYTNiN2FhYykiIGQ9Ik0gMzI1LjQ0IDIzNi43MDY2ODQgJiMxMDtMIDMyNS40NCAyOTUuNDg4Ii8+CiAgIDwvZz4KICAgPGcgaWQ9ImxpbmUyZF8xNyI+CiAgICA8cGF0aCBzdHlsZT0iZmlsbDogbm9uZTsgc3Ryb2tlOiAjM2YzZjNmIiBjbGlwLXBhdGg9InVybCgjcDk2MmEzYjdhYWMpIiBkPSJNIDMyNS40NCAxODguOTYwMjYgJiMxMDtMIDMyNS40NCAxMjIuMDE3Nzc4Ii8+CiAgIDwvZz4KICAgPGcgaWQ9ImxpbmUyZF8xOCI+CiAgICA8cGF0aCBzdHlsZT0iZmlsbDogbm9uZTsgc3Ryb2tlOiAjM2YzZjNmOyBzdHJva2UtbGluZWNhcDogc3F1YXJlIiBjbGlwLXBhdGg9InVybCgjcDk2MmEzYjdhYWMpIiBkPSJNIDI4OS43MjggMjk1LjQ4OCAmIzEwO0wgMzYxLjE1MiAyOTUuNDg4Ii8+CiAgIDwvZz4KICAgPGcgaWQ9ImxpbmUyZF8xOSI+CiAgICA8cGF0aCBzdHlsZT0iZmlsbDogbm9uZTsgc3Ryb2tlOiAjM2YzZjNmOyBzdHJva2UtbGluZWNhcDogc3F1YXJlIiBjbGlwLXBhdGg9InVybCgjcDk2MmEzYjdhYWMpIiBkPSJNIDI4OS43MjggMTIyLjAxNzc3OCAmIzEwO0wgMzYxLjE1MiAxMjIuMDE3Nzc4Ii8+CiAgIDwvZz4KICAgPGcgaWQ9ImxpbmUyZF8yMCI+CiAgICA8ZGVmcz4KICAgICA8cGF0aCBzdHlsZT0ic3Ryb2tlOiAjM2YzZjNmIiBkPSJNIDAgMyAmIzEwO0MgMC43OTU2MDkgMyAxLjU1ODc0IDIuNjgzOTAxIDIuMTIxMzIgMi4xMjEzMiAmIzEwO0MgMi42ODM5MDEgMS41NTg3NCAzIDAuNzk1NjA5IDMgMCAmIzEwO0MgMyAtMC43OTU2MDkgMi42ODM5MDEgLTEuNTU4NzQgMi4xMjEzMiAtMi4xMjEzMiAmIzEwO0MgMS41NTg3NCAtMi42ODM5MDEgMC43OTU2MDkgLTMgMCAtMyAmIzEwO0MgLTAuNzk1NjA5IC0zIC0xLjU1ODc0IC0yLjY4MzkwMSAtMi4xMjEzMiAtMi4xMjEzMiAmIzEwO0MgLTIuNjgzOTAxIC0xLjU1ODc0IC0zIC0wLjc5NTYwOSAtMyAwICYjMTA7QyAtMyAwLjc5NTYwOSAtMi42ODM5MDEgMS41NTg3NCAtMi4xMjEzMiAyLjEyMTMyICYjMTA7QyAtMS41NTg3NCAyLjY4MzkwMSAtMC43OTU2MDkgMyAwIDMgJiMxMDt6IiBpZD0ibTQ0NTdjZDNiOWYiLz4KICAgIDwvZGVmcz4KICAgIDxnIGNsaXAtcGF0aD0idXJsKCNwOTYyYTNiN2FhYykiPgogICAgIDx1c2Ugc3R5bGU9ImZpbGwtb3BhY2l0eTogMDsgc3Ryb2tlOiAjM2YzZjNmIiB5PSIxMDMuNTgyMzMiIHg9IjMyNS40NCIgeGxpbms6aHJlZj0iI200NDU3Y2QzYjlmIi8+CiAgICA8L2c+CiAgIDwvZz4KICAgPGcgaWQ9ImxpbmUyZF8yMSI+CiAgICA8cGF0aCBzdHlsZT0iZmlsbDogbm9uZTsgc3Ryb2tlOiAjM2YzZjNmIiBjbGlwLXBhdGg9InVybCgjcDk2MmEzYjdhYWMpIiBkPSJNIDc1LjQ1NiAxMzguMzgwMDc4ICYjMTA7TCAyMTguMzA0IDEzOC4zODAwNzgiLz4KICAgPC9nPgogICA8ZyBpZD0ibGluZTJkXzIyIj4KICAgIDxwYXRoIHN0eWxlPSJmaWxsOiBub25lOyBzdHJva2U6ICMzZjNmM2YiIGNsaXAtcGF0aD0idXJsKCNwOTYyYTNiN2FhYykiIGQ9Ik0gMjU0LjAxNiAyMTMuMDEzNzAxICYjMTA7TCAzOTYuODY0IDIxMy4wMTM3MDEiLz4KICAgPC9nPgogICA8ZyBpZD0icGF0Y2hfNSI+CiAgICA8cGF0aCBzdHlsZT0iZmlsbDogbm9uZTsgc3Ryb2tlOiAjMDAwMDAwOyBzdHJva2Utd2lkdGg6IDAuODsgc3Ryb2tlLWxpbmVqb2luOiBtaXRlcjsgc3Ryb2tlLWxpbmVjYXA6IHNxdWFyZSIgZD0iTSA1Ny42IDMwNy41ODQgJiMxMDtMIDU3LjYgNDEuNDcyIi8+CiAgIDwvZz4KICAgPGcgaWQ9InBhdGNoXzYiPgogICAgPHBhdGggc3R5bGU9ImZpbGw6IG5vbmU7IHN0cm9rZTogIzAwMDAwMDsgc3Ryb2tlLXdpZHRoOiAwLjg7IHN0cm9rZS1saW5lam9pbjogbWl0ZXI7IHN0cm9rZS1saW5lY2FwOiBzcXVhcmUiIGQ9Ik0gNDE0LjcyIDMwNy41ODQgJiMxMDtMIDQxNC43MiA0MS40NzIiLz4KICAgPC9nPgogICA8ZyBpZD0icGF0Y2hfNyI+CiAgICA8cGF0aCBzdHlsZT0iZmlsbDogbm9uZTsgc3Ryb2tlOiAjMDAwMDAwOyBzdHJva2Utd2lkdGg6IDAuODsgc3Ryb2tlLWxpbmVqb2luOiBtaXRlcjsgc3Ryb2tlLWxpbmVjYXA6IHNxdWFyZSIgZD0iTSA1Ny42IDMwNy41ODQgJiMxMDtMIDQxNC43MiAzMDcuNTg0Ii8+CiAgIDwvZz4KICAgPGcgaWQ9InBhdGNoXzgiPgogICAgPHBhdGggc3R5bGU9ImZpbGw6IG5vbmU7IHN0cm9rZTogIzAwMDAwMDsgc3Ryb2tlLXdpZHRoOiAwLjg7IHN0cm9rZS1saW5lam9pbjogbWl0ZXI7IHN0cm9rZS1saW5lY2FwOiBzcXVhcmUiIGQ9Ik0gNTcuNiA0MS40NzIgJiMxMDtMIDQxNC43MiA0MS40NzIiLz4KICAgPC9nPgogICA8ZyBpZD0idGV4dF8xMyI+CiAgICAKICAgIDxnIHRyYW5zZm9ybT0idHJhbnNsYXRlKDE1My4zNTM0MzcgMjIuMDM0NjI1KSBzY2FsZSgwLjEyIC0wLjEyKSI+CiAgICAgPGRlZnM+CiAgICAgIDxwYXRoIHRyYW5zZm9ybT0ic2NhbGUoMC4wMTU2MjUpIiBkPSJNIDYyOCA0NjY2ICYjMTA7TCAzNTc4IDQ2NjYgJiMxMDtMIDM1NzggNDEzNCAmIzEwO0wgMTI1OSA0MTM0ICYjMTA7TCAxMjU5IDI3NTMgJiMxMDtMIDM0ODEgMjc1MyAmIzEwO0wgMzQ4MSAyMjIyICYjMTA7TCAxMjU5IDIyMjIgJiMxMDtMIDEyNTkgNTMxICYjMTA7TCAzNjM0IDUzMSAmIzEwO0wgMzYzNCAwICYjMTA7TCA2MjggMCAmIzEwO0wgNjI4IDQ2NjYgJiMxMDt6IiBpZD0iRGVqYVZ1U2Fucy00NSIvPgogICAgICA8cGF0aCB0cmFuc2Zvcm09InNjYWxlKDAuMDE1NjI1KSIgZD0iTSAyMzc1IDQ4NjMgJiMxMDtMIDIzNzUgNDM4NCAmIzEwO0wgMTgyNSA0Mzg0ICYjMTA7USAxNTE2IDQzODQgMTM5NSA0MjU5ICYjMTA7USAxMjc1IDQxMzQgMTI3NSAzODA5ICYjMTA7TCAxMjc1IDM1MDAgJiMxMDtMIDIyMjIgMzUwMCAmIzEwO0wgMjIyMiAzMDUzICYjMTA7TCAxMjc1IDMwNTMgJiMxMDtMIDEyNzUgMCAmIzEwO0wgNjk3IDAgJiMxMDtMIDY5NyAzMDUzICYjMTA7TCAxNDcgMzA1MyAmIzEwO0wgMTQ3IDM1MDAgJiMxMDtMIDY5NyAzNTAwICYjMTA7TCA2OTcgMzc0NCAmIzEwO1EgNjk3IDQzMjggOTY5IDQ1OTUgJiMxMDtRIDEyNDEgNDg2MyAxODMxIDQ4NjMgJiMxMDtMIDIzNzUgNDg2MyAmIzEwO3oiIGlkPSJEZWphVnVTYW5zLTY2Ii8+CiAgICAgIDxwYXRoIHRyYW5zZm9ybT0ic2NhbGUoMC4wMTU2MjUpIiBkPSJNIDMxMjIgMzM2NiAmIzEwO0wgMzEyMiAyODI4ICYjMTA7USAyODc4IDI5NjMgMjYzMyAzMDMwICYjMTA7USAyMzg4IDMwOTcgMjEzOCAzMDk3ICYjMTA7USAxNTc4IDMwOTcgMTI2OCAyNzQyICYjMTA7USA5NTkgMjM4OCA5NTkgMTc0NyAmIzEwO1EgOTU5IDExMDYgMTI2OCA3NTEgJiMxMDtRIDE1NzggMzk3IDIxMzggMzk3ICYjMTA7USAyMzg4IDM5NyAyNjMzIDQ2NCAmIzEwO1EgMjg3OCA1MzEgMzEyMiA2NjYgJiMxMDtMIDMxMjIgMTM0ICYjMTA7USAyODgxIDIyIDI2MjMgLTM0ICYjMTA7USAyMzY2IC05MSAyMDc1IC05MSAmIzEwO1EgMTI4NCAtOTEgODE4IDQwNiAmIzEwO1EgMzUzIDkwMyAzNTMgMTc0NyAmIzEwO1EgMzUzIDI2MDMgODIzIDMwOTMgJiMxMDtRIDEyOTQgMzU4NCAyMTEzIDM1ODQgJiMxMDtRIDIzNzggMzU4NCAyNjMxIDM1MjkgJiMxMDtRIDI4ODQgMzQ3NSAzMTIyIDMzNjYgJiMxMDt6IiBpZD0iRGVqYVZ1U2Fucy02MyIvPgogICAgICA8cGF0aCB0cmFuc2Zvcm09InNjYWxlKDAuMDE1NjI1KSIgZD0iTSAxMTcyIDQ0OTQgJiMxMDtMIDExNzIgMzUwMCAmIzEwO0wgMjM1NiAzNTAwICYjMTA7TCAyMzU2IDMwNTMgJiMxMDtMIDExNzIgMzA1MyAmIzEwO0wgMTE3MiAxMTUzICYjMTA7USAxMTcyIDcyNSAxMjg5IDYwMyAmIzEwO1EgMTQwNiA0ODEgMTc2NiA0ODEgJiMxMDtMIDIzNTYgNDgxICYjMTA7TCAyMzU2IDAgJiMxMDtMIDE3NjYgMCAmIzEwO1EgMTEwMCAwIDg0NyAyNDggJiMxMDtRIDU5NCA0OTcgNTk0IDExNTMgJiMxMDtMIDU5NCAzMDUzICYjMTA7TCAxNzIgMzA1MyAmIzEwO0wgMTcyIDM1MDAgJiMxMDtMIDU5NCAzNTAwICYjMTA7TCA1OTQgNDQ5NCAmIzEwO0wgMTE3MiA0NDk0ICYjMTA7eiIgaWQ9IkRlamFWdVNhbnMtNzQiLz4KICAgICAgPHBhdGggdHJhbnNmb3JtPSJzY2FsZSgwLjAxNTYyNSkiIGQ9Ik0gMjkwNiAyOTY5ICYjMTA7TCAyOTA2IDQ4NjMgJiMxMDtMIDM0ODEgNDg2MyAmIzEwO0wgMzQ4MSAwICYjMTA7TCAyOTA2IDAgJiMxMDtMIDI5MDYgNTI1ICYjMTA7USAyNzI1IDIxMyAyNDQ4IDYxICYjMTA7USAyMTcyIC05MSAxNzg0IC05MSAmIzEwO1EgMTE1MCAtOTEgNzUxIDQxNSAmIzEwO1EgMzUzIDkyMiAzNTMgMTc0NyAmIzEwO1EgMzUzIDI1NzIgNzUxIDMwNzggJiMxMDtRIDExNTAgMzU4NCAxNzg0IDM1ODQgJiMxMDtRIDIxNzIgMzU4NCAyNDQ4IDM0MzIgJiMxMDtRIDI3MjUgMzI4MSAyOTA2IDI5NjkgJiMxMDt6JiMxMDtNIDk0NyAxNzQ3ICYjMTA7USA5NDcgMTExMyAxMjA4IDc1MiAmIzEwO1EgMTQ2OSAzOTEgMTkyNSAzOTEgJiMxMDtRIDIzODEgMzkxIDI2NDMgNzUyICYjMTA7USAyOTA2IDExMTMgMjkwNiAxNzQ3ICYjMTA7USAyOTA2IDIzODEgMjY0MyAyNzQyICYjMTA7USAyMzgxIDMxMDMgMTkyNSAzMTAzICYjMTA7USAxNDY5IDMxMDMgMTIwOCAyNzQyICYjMTA7USA5NDcgMjM4MSA5NDcgMTc0NyAmIzEwO3oiIGlkPSJEZWphVnVTYW5zLTY0Ii8+CiAgICAgIDxwYXRoIHRyYW5zZm9ybT0ic2NhbGUoMC4wMTU2MjUpIiBkPSJNIDM1MTMgMjExMyAmIzEwO0wgMzUxMyAwICYjMTA7TCAyOTM4IDAgJiMxMDtMIDI5MzggMjA5NCAmIzEwO1EgMjkzOCAyNTkxIDI3NDQgMjgzNyAmIzEwO1EgMjU1MCAzMDg0IDIxNjMgMzA4NCAmIzEwO1EgMTY5NyAzMDg0IDE0MjggMjc4NyAmIzEwO1EgMTE1OSAyNDkxIDExNTkgMTk3OCAmIzEwO0wgMTE1OSAwICYjMTA7TCA1ODEgMCAmIzEwO0wgNTgxIDM1MDAgJiMxMDtMIDExNTkgMzUwMCAmIzEwO0wgMTE1OSAyOTU2ICYjMTA7USAxMzY2IDMyNzIgMTY0NSAzNDI4ICYjMTA7USAxOTI1IDM1ODQgMjI5MSAzNTg0ICYjMTA7USAyODk0IDM1ODQgMzIwMyAzMjExICYjMTA7USAzNTEzIDI4MzggMzUxMyAyMTEzICYjMTA7eiIgaWQ9IkRlamFWdVNhbnMtNmUiLz4KICAgICAgPHBhdGggdHJhbnNmb3JtPSJzY2FsZSgwLjAxNTYyNSkiIGQ9Ik0gMjY5IDM1MDAgJiMxMDtMIDg0NCAzNTAwICYjMTA7TCAxNTYzIDc2OSAmIzEwO0wgMjI3OCAzNTAwICYjMTA7TCAyOTU2IDM1MDAgJiMxMDtMIDM2NzUgNzY5ICYjMTA7TCA0MzkxIDM1MDAgJiMxMDtMIDQ5NjYgMzUwMCAmIzEwO0wgNDA1MCAwICYjMTA7TCAzMzcyIDAgJiMxMDtMIDI2MTkgMjg2OSAmIzEwO0wgMTg2MyAwICYjMTA7TCAxMTg0IDAgJiMxMDtMIDI2OSAzNTAwICYjMTA7eiIgaWQ9IkRlamFWdVNhbnMtNzciLz4KICAgICAgPHBhdGggdHJhbnNmb3JtPSJzY2FsZSgwLjAxNTYyNSkiIGQ9Ik0gMzUxMyAyMTEzICYjMTA7TCAzNTEzIDAgJiMxMDtMIDI5MzggMCAmIzEwO0wgMjkzOCAyMDk0ICYjMTA7USAyOTM4IDI1OTEgMjc0NCAyODM3ICYjMTA7USAyNTUwIDMwODQgMjE2MyAzMDg0ICYjMTA7USAxNjk3IDMwODQgMTQyOCAyNzg3ICYjMTA7USAxMTU5IDI0OTEgMTE1OSAxOTc4ICYjMTA7TCAxMTU5IDAgJiMxMDtMIDU4MSAwICYjMTA7TCA1ODEgNDg2MyAmIzEwO0wgMTE1OSA0ODYzICYjMTA7TCAxMTU5IDI5NTYgJiMxMDtRIDEzNjYgMzI3MiAxNjQ1IDM0MjggJiMxMDtRIDE5MjUgMzU4NCAyMjkxIDM1ODQgJiMxMDtRIDI4OTQgMzU4NCAzMjAzIDMyMTEgJiMxMDtRIDM1MTMgMjgzOCAzNTEzIDIxMTMgJiMxMDt6IiBpZD0iRGVqYVZ1U2Fucy02OCIvPgogICAgIDwvZGVmcz4KICAgICA8dXNlIHhsaW5rOmhyZWY9IiNEZWphVnVTYW5zLTQ1Ii8+CiAgICAgPHVzZSB4PSI2My4xODM1OTQiIHhsaW5rOmhyZWY9IiNEZWphVnVTYW5zLTY2Ii8+CiAgICAgPHVzZSB4PSI5OC4zODg2NzIiIHhsaW5rOmhyZWY9IiNEZWphVnVTYW5zLTY2Ii8+CiAgICAgPHVzZSB4PSIxMzMuNTkzNzUiIHhsaW5rOmhyZWY9IiNEZWphVnVTYW5zLTY1Ii8+CiAgICAgPHVzZSB4PSIxOTUuMTE3MTg4IiB4bGluazpocmVmPSIjRGVqYVZ1U2Fucy02MyIvPgogICAgIDx1c2UgeD0iMjUwLjA5NzY1NiIgeGxpbms6aHJlZj0iI0RlamFWdVNhbnMtNzQiLz4KICAgICA8dXNlIHg9IjI4OS4zMDY2NDEiIHhsaW5rOmhyZWY9IiNEZWphVnVTYW5zLTIwIi8+CiAgICAgPHVzZSB4PSIzMjEuMDkzNzUiIHhsaW5rOmhyZWY9IiNEZWphVnVTYW5zLTZmIi8+CiAgICAgPHVzZSB4PSIzODIuMjc1MzkxIiB4bGluazpocmVmPSIjRGVqYVZ1U2Fucy02NiIvPgogICAgIDx1c2UgeD0iNDE3LjQ4MDQ2OSIgeGxpbms6aHJlZj0iI0RlamFWdVNhbnMtMjAiLz4KICAgICA8dXNlIHg9IjQ0OS4yNjc1NzgiIHhsaW5rOmhyZWY9IiNEZWphVnVTYW5zLTY0Ii8+CiAgICAgPHVzZSB4PSI1MTIuNzQ0MTQxIiB4bGluazpocmVmPSIjRGVqYVZ1U2Fucy02OSIvPgogICAgIDx1c2UgeD0iNTQwLjUyNzM0NCIgeGxpbms6aHJlZj0iI0RlamFWdVNhbnMtNzMiLz4KICAgICA8dXNlIHg9IjU5Mi42MjY5NTMiIHhsaW5rOmhyZWY9IiNEZWphVnVTYW5zLTY1Ii8+CiAgICAgPHVzZSB4PSI2NTQuMTUwMzkxIiB4bGluazpocmVmPSIjRGVqYVZ1U2Fucy02MSIvPgogICAgIDx1c2UgeD0iNzE1LjQyOTY4OCIgeGxpbms6aHJlZj0iI0RlamFWdVNhbnMtNzMiLz4KICAgICA8dXNlIHg9Ijc2Ny41MjkyOTciIHhsaW5rOmhyZWY9IiNEZWphVnVTYW5zLTY1Ii8+CiAgICAgPHVzZSB4PSI4MjkuMDUyNzM0IiB4bGluazpocmVmPSIjRGVqYVZ1U2Fucy0yMCIvPgogICAgIDx1c2UgeD0iODYwLjgzOTg0NCIgeGxpbms6aHJlZj0iI0RlamFWdVNhbnMtNmYiLz4KICAgICA8dXNlIHg9IjkyMi4wMjE0ODQiIHhsaW5rOmhyZWY9IiNEZWphVnVTYW5zLTZlIi8+CiAgICAgPHVzZSB4PSI5ODUuNDAwMzkxIiB4bGluazpocmVmPSIjRGVqYVZ1U2Fucy0yMCIvPgogICAgIDx1c2UgeD0iMTAxNy4xODc1IiB4bGluazpocmVmPSIjRGVqYVZ1U2Fucy01OSIvPgogICAgIDx1c2UgeD0iMTA3OC4yNzE0ODQiIHhsaW5rOmhyZWY9IiNEZWphVnVTYW5zLTIwIi8+CiAgICAgPHVzZSB4PSIxMTEwLjA1ODU5NCIgeGxpbms6aHJlZj0iI0RlamFWdVNhbnMtNzciLz4KICAgICA8dXNlIHg9IjExOTEuODQ1NzAzIiB4bGluazpocmVmPSIjRGVqYVZ1U2Fucy02OCIvPgogICAgIDx1c2UgeD0iMTI1NS4yMjQ2MDkiIHhsaW5rOmhyZWY9IiNEZWphVnVTYW5zLTY1Ii8+CiAgICAgPHVzZSB4PSIxMzE2Ljc0ODA0NyIgeGxpbms6aHJlZj0iI0RlamFWdVNhbnMtNmUiLz4KICAgIDwvZz4KICAgIAogICAgPGcgdHJhbnNmb3JtPSJ0cmFuc2xhdGUoMTg1LjM3MjgxMyAzNS40NzIpIHNjYWxlKDAuMTIgLTAuMTIpIj4KICAgICA8ZGVmcz4KICAgICAgPHBhdGggdHJhbnNmb3JtPSJzY2FsZSgwLjAxNTYyNSkiIGQ9Ik0gMjE4OCA0MDQ0ICYjMTA7TCAxMzMxIDE3MjIgJiMxMDtMIDMwNDcgMTcyMiAmIzEwO0wgMjE4OCA0MDQ0ICYjMTA7eiYjMTA7TSAxODMxIDQ2NjYgJiMxMDtMIDI1NDcgNDY2NiAmIzEwO0wgNDMyNSAwICYjMTA7TCAzNjY5IDAgJiMxMDtMIDMyNDQgMTE5NyAmIzEwO0wgMTE0MSAxMTk3ICYjMTA7TCA3MTYgMCAmIzEwO0wgNTAgMCAmIzEwO0wgMTgzMSA0NjY2ICYjMTA7eiIgaWQ9IkRlamFWdVNhbnMtNDEiLz4KICAgICAgPHBhdGggdHJhbnNmb3JtPSJzY2FsZSgwLjAxNTYyNSkiIGQ9Ik0gMjkwNiAxNzkxICYjMTA7USAyOTA2IDI0MTYgMjY0OCAyNzU5ICYjMTA7USAyMzkxIDMxMDMgMTkyNSAzMTAzICYjMTA7USAxNDYzIDMxMDMgMTIwNSAyNzU5ICYjMTA7USA5NDcgMjQxNiA5NDcgMTc5MSAmIzEwO1EgOTQ3IDExNjkgMTIwNSA4MjUgJiMxMDtRIDE0NjMgNDgxIDE5MjUgNDgxICYjMTA7USAyMzkxIDQ4MSAyNjQ4IDgyNSAmIzEwO1EgMjkwNiAxMTY5IDI5MDYgMTc5MSAmIzEwO3omIzEwO00gMzQ4MSA0MzQgJiMxMDtRIDM0ODEgLTQ1OSAzMDg0IC04OTUgJiMxMDtRIDI2ODggLTEzMzEgMTg2OSAtMTMzMSAmIzEwO1EgMTU2NiAtMTMzMSAxMjk3IC0xMjg2ICYjMTA7USAxMDI4IC0xMjQxIDc3NSAtMTE0NyAmIzEwO0wgNzc1IC01ODggJiMxMDtRIDEwMjggLTcyNSAxMjc1IC03OTAgJiMxMDtRIDE1MjIgLTg1NiAxNzc4IC04NTYgJiMxMDtRIDIzNDQgLTg1NiAyNjI1IC01NjEgJiMxMDtRIDI5MDYgLTI2NiAyOTA2IDMzMSAmIzEwO0wgMjkwNiA2MTYgJiMxMDtRIDI3MjggMzA2IDI0NTAgMTUzICYjMTA7USAyMTcyIDAgMTc4NCAwICYjMTA7USAxMTQxIDAgNzQ3IDQ5MCAmIzEwO1EgMzUzIDk4MSAzNTMgMTc5MSAmIzEwO1EgMzUzIDI2MDMgNzQ3IDMwOTMgJiMxMDtRIDExNDEgMzU4NCAxNzg0IDM1ODQgJiMxMDtRIDIxNzIgMzU4NCAyNDUwIDM0MzEgJiMxMDtRIDI3MjggMzI3OCAyOTA2IDI5NjkgJiMxMDtMIDI5MDYgMzUwMCAmIzEwO0wgMzQ4MSAzNTAwICYjMTA7TCAzNDgxIDQzNCAmIzEwO3oiIGlkPSJEZWphVnVTYW5zLTY3Ii8+CiAgICAgIDxwYXRoIHRyYW5zZm9ybT0ic2NhbGUoMC4wMTU2MjUpIiBkPSJNIDY3OCAzMTUwICYjMTA7TCA2NzggMzcxOSAmIzEwO0wgNDY4NCAyMjY2ICYjMTA7TCA0Njg0IDE3NDcgJiMxMDtMIDY3OCAyOTQgJiMxMDtMIDY3OCA4NjMgJiMxMDtMIDM4OTcgMjAwMyAmIzEwO0wgNjc4IDMxNTAgJiMxMDt6IiBpZD0iRGVqYVZ1U2Fucy0zZSIvPgogICAgICA8cGF0aCB0cmFuc2Zvcm09InNjYWxlKDAuMDE1NjI1KSIgZD0iTSAxNTU2IDI1MDkgJiMxMDtRIDEyNzIgMjI1NiAxMTM5IDIwMDQgJiMxMDtRIDEwMDYgMTc1MyAxMDA2IDE0NzggJiMxMDtRIDEwMDYgMTAyMiAxMzM3IDcxOSAmIzEwO1EgMTY2OSA0MTYgMjE2OSA0MTYgJiMxMDtRIDI0NjYgNDE2IDI3MjUgNTE0ICYjMTA7USAyOTg0IDYxMyAzMjEzIDgxMyAmIzEwO0wgMTU1NiAyNTA5ICYjMTA7eiYjMTA7TSAxOTk3IDI4NTkgJiMxMDtMIDM1ODQgMTIzNCAmIzEwO1EgMzc2OSAxNTEzIDM4NzIgMTgzMCAmIzEwO1EgMzk3NSAyMTQ3IDM5OTQgMjUwMyAmIzEwO0wgNDU3NSAyNTAzICYjMTA7USA0NTM4IDIwOTEgNDM3NSAxNjg3ICYjMTA7USA0MjEzIDEyODQgMzkyMiA4OTEgJiMxMDtMIDQ3OTQgMCAmIzEwO0wgNDAwNiAwICYjMTA7TCAzNTU5IDQ1OSAmIzEwO1EgMzIzNCAxODEgMjg3OCA0NSAmIzEwO1EgMjUyMiAtOTEgMjExMyAtOTEgJiMxMDtRIDEzNTkgLTkxIDg4MSAzMzkgJiMxMDtRIDQwMyA3NjkgNDAzIDE0NDEgJiMxMDtRIDQwMyAxODQxIDYxMiAyMTkyICYjMTA7USA4MjIgMjU0NCAxMjQxIDI4NTMgJiMxMDtRIDEwOTEgMzA1MCAxMDEyIDMyNDUgJiMxMDtRIDkzNCAzNDQxIDkzNCAzNjI4ICYjMTA7USA5MzQgNDEzNCAxMjgxIDQ0NDIgJiMxMDtRIDE2MjggNDc1MCAyMjAzIDQ3NTAgJiMxMDtRIDI0NjMgNDc1MCAyNzIwIDQ2OTQgJiMxMDtRIDI5NzggNDYzOCAzMjQ0IDQ1MjUgJiMxMDtMIDMyNDQgMzk1NiAmIzEwO1EgMjk3MiA0MTAzIDI3MjUgNDE3OSAmIzEwO1EgMjQ3OCA0MjU2IDIyNjYgNDI1NiAmIzEwO1EgMTkzOCA0MjU2IDE3MzMgNDA4MiAmIzEwO1EgMTUyOCAzOTA5IDE1MjggMzYzNCAmIzEwO1EgMTUyOCAzNDc1IDE2MjAgMzMxNCAmIzEwO1EgMTcxMyAzMTUzIDE5OTcgMjg1OSAmIzEwO3oiIGlkPSJEZWphVnVTYW5zLTI2Ii8+CiAgICAgIDxwYXRoIHRyYW5zZm9ybT0ic2NhbGUoMC4wMTU2MjUpIiBkPSJNIDYyOCA0NjY2ICYjMTA7TCAxNTY5IDQ2NjYgJiMxMDtMIDI3NTkgMTQ5MSAmIzEwO0wgMzk1NiA0NjY2ICYjMTA7TCA0ODk3IDQ2NjYgJiMxMDtMIDQ4OTcgMCAmIzEwO0wgNDI4MSAwICYjMTA7TCA0MjgxIDQwOTcgJiMxMDtMIDMwNzggODk3ICYjMTA7TCAyNDQ0IDg5NyAmIzEwO0wgMTI0MSA0MDk3ICYjMTA7TCAxMjQxIDAgJiMxMDtMIDYyOCAwICYjMTA7TCA2MjggNDY2NiAmIzEwO3oiIGlkPSJEZWphVnVTYW5zLTRkIi8+CiAgICAgIDxwYXRoIHRyYW5zZm9ybT0ic2NhbGUoMC4wMTU2MjUpIiBkPSJNIDYwMyA0ODYzICYjMTA7TCAxMTc4IDQ4NjMgJiMxMDtMIDExNzggMCAmIzEwO0wgNjAzIDAgJiMxMDtMIDYwMyA0ODYzICYjMTA7eiIgaWQ9IkRlamFWdVNhbnMtNmMiLz4KICAgICA8L2RlZnM+CiAgICAgPHVzZSB4bGluazpocmVmPSIjRGVqYVZ1U2Fucy00MSIvPgogICAgIDx1c2UgeD0iNjguNDA4MjAzIiB4bGluazpocmVmPSIjRGVqYVZ1U2Fucy02NyIvPgogICAgIDx1c2UgeD0iMTMxLjg4NDc2NiIgeGxpbms6aHJlZj0iI0RlamFWdVNhbnMtNjUiLz4KICAgICA8dXNlIHg9IjE5My40MDgyMDMiIHhsaW5rOmhyZWY9IiNEZWphVnVTYW5zLTIwIi8+CiAgICAgPHVzZSB4PSIyMjUuMTk1MzEyIiB4bGluazpocmVmPSIjRGVqYVZ1U2Fucy0zZSIvPgogICAgIDx1c2UgeD0iMzA4Ljk4NDM3NSIgeGxpbms6aHJlZj0iI0RlamFWdVNhbnMtMjAiLz4KICAgICA8dXNlIHg9IjM0MC43NzE0ODQiIHhsaW5rOmhyZWY9IiNEZWphVnVTYW5zLTM1Ii8+CiAgICAgPHVzZSB4PSI0MDQuMzk0NTMxIiB4bGluazpocmVmPSIjRGVqYVZ1U2Fucy0zMCIvPgogICAgIDx1c2UgeD0iNDY4LjAxNzU3OCIgeGxpbms6aHJlZj0iI0RlamFWdVNhbnMtMjAiLz4KICAgICA8dXNlIHg9IjQ5OS44MDQ2ODgiIHhsaW5rOmhyZWY9IiNEZWphVnVTYW5zLTI2Ii8+CiAgICAgPHVzZSB4PSI1NzcuNzgzMjAzIiB4bGluazpocmVmPSIjRGVqYVZ1U2Fucy0yMCIvPgogICAgIDx1c2UgeD0iNjA5LjU3MDMxMiIgeGxpbms6aHJlZj0iI0RlamFWdVNhbnMtNGQiLz4KICAgICA8dXNlIHg9IjY5NS44NDk2MDkiIHhsaW5rOmhyZWY9IiNEZWphVnVTYW5zLTYxIi8+CiAgICAgPHVzZSB4PSI3NTcuMTI4OTA2IiB4bGluazpocmVmPSIjRGVqYVZ1U2Fucy02YyIvPgogICAgIDx1c2UgeD0iNzg0LjkxMjEwOSIgeGxpbms6aHJlZj0iI0RlamFWdVNhbnMtNjUiLz4KICAgIDwvZz4KICAgPC9nPgogIDwvZz4KIDwvZz4KIDxkZWZzPgogIDxjbGlwUGF0aCBpZD0icDk2MmEzYjdhYWMiPgogICA8cmVjdCBoZWlnaHQ9IjI2Ni4xMTIiIHdpZHRoPSIzNTcuMTIiIHk9IjQxLjQ3MiIgeD0iNTcuNiIvPgogIDwvY2xpcFBhdGg+CiA8L2RlZnM+Cjwvc3ZnPg==;" vertex="1" parent="1">
                    <mxGeometry x="130.54" y="80" width="346.42" height="260" as="geometry"/>
                </mxCell>
                <mxCell id="19" value="" style="shape=image;verticalLabelPosition=bottom;labelBackgroundColor=default;verticalAlign=top;aspect=fixed;imageAspect=0;image=data:image/svg+xml,PHN2ZyB4bWxucz0iaHR0cDovL3d3dy53My5vcmcvMjAwMC9zdmciIHhtbG5zOnhsaW5rPSJodHRwOi8vd3d3LnczLm9yZy8xOTk5L3hsaW5rIiB2ZXJzaW9uPSIxLjEiIHZpZXdCb3g9IjAgMCA0NjAuOCAzNDUuNiIgaGVpZ2h0PSIzNDUuNnB0IiB3aWR0aD0iNDYwLjhwdCI+CiA8bWV0YWRhdGE+CiAgCiAgIAogICAgCiAgICAyMDI1LTA1LTAzVDE1OjQxOjQyLjMxMzkxMgogICAgaW1hZ2Uvc3ZnK3htbAogICAgCiAgICAgCiAgICAgIE1hdHBsb3RsaWIgdjMuOS4xLnBvc3QxLCBodHRwczovL21hdHBsb3RsaWIub3JnLwogICAgIAogICAgCiAgIAogIAogPC9tZXRhZGF0YT4KIDxkZWZzPgogIDxzdHlsZSB0eXBlPSJ0ZXh0L2NzcyI+KntzdHJva2UtbGluZWpvaW46IHJvdW5kOyBzdHJva2UtbGluZWNhcDogYnV0dH08L3N0eWxlPgogPC9kZWZzPgogPGcgaWQ9ImZpZ3VyZV8xIj4KICA8ZyBpZD0icGF0Y2hfMSI+CiAgIDxwYXRoIHN0eWxlPSJmaWxsOiBub25lIiBkPSJNIDAgMzQ1LjYgJiMxMDtMIDQ2MC44IDM0NS42ICYjMTA7TCA0NjAuOCAwICYjMTA7TCAwIDAgJiMxMDtMIDAgMzQ1LjYgJiMxMDt6Ii8+CiAgPC9nPgogIDxnIGlkPSJheGVzXzEiPgogICA8ZyBpZD0icGF0Y2hfMiI+CiAgICA8cGF0aCBzdHlsZT0iZmlsbDogbm9uZSIgZD0iTSA1Ny42IDMwNy41ODQgJiMxMDtMIDQxNC43MiAzMDcuNTg0ICYjMTA7TCA0MTQuNzIgNDEuNDcyICYjMTA7TCA1Ny42IDQxLjQ3MiAmIzEwO0wgNTcuNiAzMDcuNTg0ICYjMTA7eiIvPgogICA8L2c+CiAgIDxnIGlkPSJtYXRwbG90bGliLmF4aXNfMSI+CiAgICA8ZyBpZD0ieHRpY2tfMSI+CiAgICAgPGcgaWQ9ImxpbmUyZF8xIj4KICAgICAgPGRlZnM+CiAgICAgICA8cGF0aCBzdHlsZT0ic3Ryb2tlOiAjMDAwMDAwOyBzdHJva2Utd2lkdGg6IDAuOCIgZD0iTSAwIDAgJiMxMDtMIDAgMy41IiBpZD0ibWUyYjRlYjAxMDkiLz4KICAgICAgPC9kZWZzPgogICAgICA8Zz4KICAgICAgIDx1c2Ugc3R5bGU9InN0cm9rZTogIzAwMDAwMDsgc3Ryb2tlLXdpZHRoOiAwLjgiIHk9IjMwNy41ODQiIHg9IjE0Ni44OCIgeGxpbms6aHJlZj0iI21lMmI0ZWIwMTA5Ii8+CiAgICAgIDwvZz4KICAgICA8L2c+CiAgICAgPGcgaWQ9InRleHRfMSI+CiAgICAgIAogICAgICA8ZyB0cmFuc2Zvcm09InRyYW5zbGF0ZSgxMjcuMjE0Mzc1IDMyMi4xODI0MzcpIHNjYWxlKDAuMSAtMC4xKSI+CiAgICAgICA8ZGVmcz4KICAgICAgICA8cGF0aCB0cmFuc2Zvcm09InNjYWxlKDAuMDE1NjI1KSIgZD0iTSAxMjU5IDQxNDcgJiMxMDtMIDEyNTkgNTE5ICYjMTA7TCAyMDIyIDUxOSAmIzEwO1EgMjk4OCA1MTkgMzQzNiA5NTYgJiMxMDtRIDM4ODQgMTM5NCAzODg0IDIzMzggJiMxMDtRIDM4ODQgMzI3NSAzNDM2IDM3MTEgJiMxMDtRIDI5ODggNDE0NyAyMDIyIDQxNDcgJiMxMDtMIDEyNTkgNDE0NyAmIzEwO3omIzEwO00gNjI4IDQ2NjYgJiMxMDtMIDE5MjUgNDY2NiAmIzEwO1EgMzI4MSA0NjY2IDM5MTUgNDEwMiAmIzEwO1EgNDU1MCAzNTM4IDQ1NTAgMjMzOCAmIzEwO1EgNDU1MCAxMTMxIDM5MTIgNTY1ICYjMTA7USAzMjc1IDAgMTkyNSAwICYjMTA7TCA2MjggMCAmIzEwO0wgNjI4IDQ2NjYgJiMxMDt6IiBpZD0iRGVqYVZ1U2Fucy00NCIvPgogICAgICAgIDxwYXRoIHRyYW5zZm9ybT0ic2NhbGUoMC4wMTU2MjUpIiBkPSJNIDYwMyAzNTAwICYjMTA7TCAxMTc4IDM1MDAgJiMxMDtMIDExNzggMCAmIzEwO0wgNjAzIDAgJiMxMDtMIDYwMyAzNTAwICYjMTA7eiYjMTA7TSA2MDMgNDg2MyAmIzEwO0wgMTE3OCA0ODYzICYjMTA7TCAxMTc4IDQxMzQgJiMxMDtMIDYwMyA0MTM0ICYjMTA7TCA2MDMgNDg2MyAmIzEwO3oiIGlkPSJEZWphVnVTYW5zLTY5Ii8+CiAgICAgICAgPHBhdGggdHJhbnNmb3JtPSJzY2FsZSgwLjAxNTYyNSkiIGQ9Ik0gMjgzNCAzMzk3ICYjMTA7TCAyODM0IDI4NTMgJiMxMDtRIDI1OTEgMjk3OCAyMzI4IDMwNDAgJiMxMDtRIDIwNjYgMzEwMyAxNzg0IDMxMDMgJiMxMDtRIDEzNTYgMzEwMyAxMTQyIDI5NzIgJiMxMDtRIDkyOCAyODQxIDkyOCAyNTc4ICYjMTA7USA5MjggMjM3OCAxMDgxIDIyNjQgJiMxMDtRIDEyMzQgMjE1MCAxNjk3IDIwNDcgJiMxMDtMIDE4OTQgMjAwMyAmIzEwO1EgMjUwNiAxODcyIDI3NjQgMTYzMyAmIzEwO1EgMzAyMiAxMzk0IDMwMjIgOTY2ICYjMTA7USAzMDIyIDQ3OCAyNjM2IDE5MyAmIzEwO1EgMjI1MCAtOTEgMTU3NSAtOTEgJiMxMDtRIDEyOTQgLTkxIDk4OSAtMzYgJiMxMDtRIDY4NCAxOSAzNDcgMTI4ICYjMTA7TCAzNDcgNzIyICYjMTA7USA2NjYgNTU2IDk3NSA0NzMgJiMxMDtRIDEyODQgMzkxIDE1ODggMzkxICYjMTA7USAxOTk0IDM5MSAyMjEyIDUzMCAmIzEwO1EgMjQzMSA2NjkgMjQzMSA5MjIgJiMxMDtRIDI0MzEgMTE1NiAyMjczIDEyODEgJiMxMDtRIDIxMTYgMTQwNiAxNTgxIDE1MjIgJiMxMDtMIDEzODEgMTU2OSAmIzEwO1EgODQ3IDE2ODEgNjA5IDE5MTQgJiMxMDtRIDM3MiAyMTQ3IDM3MiAyNTUzICYjMTA7USAzNzIgMzA0NyA3MjIgMzMxNSAmIzEwO1EgMTA3MiAzNTg0IDE3MTYgMzU4NCAmIzEwO1EgMjAzNCAzNTg0IDIzMTUgMzUzNyAmIzEwO1EgMjU5NyAzNDkxIDI4MzQgMzM5NyAmIzEwO3oiIGlkPSJEZWphVnVTYW5zLTczIi8+CiAgICAgICAgPHBhdGggdHJhbnNmb3JtPSJzY2FsZSgwLjAxNTYyNSkiIGQ9Ik0gMzU5NyAxODk0ICYjMTA7TCAzNTk3IDE2MTMgJiMxMDtMIDk1MyAxNjEzICYjMTA7USA5OTEgMTAxOSAxMzExIDcwOCAmIzEwO1EgMTYzMSAzOTcgMjIwMyAzOTcgJiMxMDtRIDI1MzQgMzk3IDI4NDUgNDc4ICYjMTA7USAzMTU2IDU1OSAzNDYzIDcyMiAmIzEwO0wgMzQ2MyAxNzggJiMxMDtRIDMxNTMgNDcgMjgyOCAtMjIgJiMxMDtRIDI1MDMgLTkxIDIxNjkgLTkxICYjMTA7USAxMzMxIC05MSA4NDIgMzk2ICYjMTA7USAzNTMgODg0IDM1MyAxNzE2ICYjMTA7USAzNTMgMjU3NSA4MTcgMzA3OSAmIzEwO1EgMTI4MSAzNTg0IDIwNjkgMzU4NCAmIzEwO1EgMjc3NSAzNTg0IDMxODYgMzEyOSAmIzEwO1EgMzU5NyAyNjc1IDM1OTcgMTg5NCAmIzEwO3omIzEwO00gMzAyMiAyMDYzICYjMTA7USAzMDE2IDI1MzQgMjc1OCAyODE1ICYjMTA7USAyNTAwIDMwOTcgMjA3NSAzMDk3ICYjMTA7USAxNTk0IDMwOTcgMTMwNSAyODI1ICYjMTA7USAxMDE2IDI1NTMgOTcyIDIwNTkgJiMxMDtMIDMwMjIgMjA2MyAmIzEwO3oiIGlkPSJEZWphVnVTYW5zLTY1Ii8+CiAgICAgICAgPHBhdGggdHJhbnNmb3JtPSJzY2FsZSgwLjAxNTYyNSkiIGQ9Ik0gMjE5NCAxNzU5ICYjMTA7USAxNDk3IDE3NTkgMTIyOCAxNjAwICYjMTA7USA5NTkgMTQ0MSA5NTkgMTA1NiAmIzEwO1EgOTU5IDc1MCAxMTYxIDU3MCAmIzEwO1EgMTM2MyAzOTEgMTcwOSAzOTEgJiMxMDtRIDIxODggMzkxIDI0NzcgNzMwICYjMTA7USAyNzY2IDEwNjkgMjc2NiAxNjMxICYjMTA7TCAyNzY2IDE3NTkgJiMxMDtMIDIxOTQgMTc1OSAmIzEwO3omIzEwO00gMzM0MSAxOTk3ICYjMTA7TCAzMzQxIDAgJiMxMDtMIDI3NjYgMCAmIzEwO0wgMjc2NiA1MzEgJiMxMDtRIDI1NjkgMjEzIDIyNzUgNjEgJiMxMDtRIDE5ODEgLTkxIDE1NTYgLTkxICYjMTA7USAxMDE5IC05MSA3MDEgMjExICYjMTA7USAzODQgNTEzIDM4NCAxMDE5ICYjMTA7USAzODQgMTYwOSA3NzkgMTkwOSAmIzEwO1EgMTE3NSAyMjA5IDE5NTkgMjIwOSAmIzEwO0wgMjc2NiAyMjA5ICYjMTA7TCAyNzY2IDIyNjYgJiMxMDtRIDI3NjYgMjY2MyAyNTA1IDI4ODAgJiMxMDtRIDIyNDQgMzA5NyAxNzcyIDMwOTcgJiMxMDtRIDE0NzIgMzA5NyAxMTg3IDMwMjUgJiMxMDtRIDkwMyAyOTUzIDY0MSAyODA5ICYjMTA7TCA2NDEgMzM0MSAmIzEwO1EgOTU2IDM0NjMgMTI1MyAzNTIzICYjMTA7USAxNTUwIDM1ODQgMTgzMSAzNTg0ICYjMTA7USAyNTkxIDM1ODQgMjk2NiAzMTkwICYjMTA7USAzMzQxIDI3OTcgMzM0MSAxOTk3ICYjMTA7eiIgaWQ9IkRlamFWdVNhbnMtNjEiLz4KICAgICAgIDwvZGVmcz4KICAgICAgIDx1c2UgeGxpbms6aHJlZj0iI0RlamFWdVNhbnMtNDQiLz4KICAgICAgIDx1c2UgeD0iNzcuMDAxOTUzIiB4bGluazpocmVmPSIjRGVqYVZ1U2Fucy02OSIvPgogICAgICAgPHVzZSB4PSIxMDQuNzg1MTU2IiB4bGluazpocmVmPSIjRGVqYVZ1U2Fucy03MyIvPgogICAgICAgPHVzZSB4PSIxNTYuODg0NzY2IiB4bGluazpocmVmPSIjRGVqYVZ1U2Fucy02NSIvPgogICAgICAgPHVzZSB4PSIyMTguNDA4MjAzIiB4bGluazpocmVmPSIjRGVqYVZ1U2Fucy02MSIvPgogICAgICAgPHVzZSB4PSIyNzkuNjg3NSIgeGxpbms6aHJlZj0iI0RlamFWdVNhbnMtNzMiLz4KICAgICAgIDx1c2UgeD0iMzMxLjc4NzEwOSIgeGxpbms6aHJlZj0iI0RlamFWdVNhbnMtNjUiLz4KICAgICAgPC9nPgogICAgIDwvZz4KICAgIDwvZz4KICAgIDxnIGlkPSJ4dGlja18yIj4KICAgICA8ZyBpZD0ibGluZTJkXzIiPgogICAgICA8Zz4KICAgICAgIDx1c2Ugc3R5bGU9InN0cm9rZTogIzAwMDAwMDsgc3Ryb2tlLXdpZHRoOiAwLjgiIHk9IjMwNy41ODQiIHg9IjMyNS40NCIgeGxpbms6aHJlZj0iI21lMmI0ZWIwMTA5Ii8+CiAgICAgIDwvZz4KICAgICA8L2c+CiAgICAgPGcgaWQ9InRleHRfMiI+CiAgICAgIAogICAgICA8ZyB0cmFuc2Zvcm09InRyYW5zbGF0ZSgyOTcuMzg1MzEyIDMyMi4xODI0MzcpIHNjYWxlKDAuMSAtMC4xKSI+CiAgICAgICA8ZGVmcz4KICAgICAgICA8cGF0aCB0cmFuc2Zvcm09InNjYWxlKDAuMDE1NjI1KSIgZD0iTSA2MjggNDY2NiAmIzEwO0wgMTQ3OCA0NjY2ICYjMTA7TCAzNTQ3IDc2MyAmIzEwO0wgMzU0NyA0NjY2ICYjMTA7TCA0MTU5IDQ2NjYgJiMxMDtMIDQxNTkgMCAmIzEwO0wgMzMwOSAwICYjMTA7TCAxMjQxIDM5MDMgJiMxMDtMIDEyNDEgMCAmIzEwO0wgNjI4IDAgJiMxMDtMIDYyOCA0NjY2ICYjMTA7eiIgaWQ9IkRlamFWdVNhbnMtNGUiLz4KICAgICAgICA8cGF0aCB0cmFuc2Zvcm09InNjYWxlKDAuMDE1NjI1KSIgZD0iTSAxOTU5IDMwOTcgJiMxMDtRIDE0OTcgMzA5NyAxMjI4IDI3MzYgJiMxMDtRIDk1OSAyMzc1IDk1OSAxNzQ3ICYjMTA7USA5NTkgMTExOSAxMjI2IDc1OCAmIzEwO1EgMTQ5NCAzOTcgMTk1OSAzOTcgJiMxMDtRIDI0MTkgMzk3IDI2ODcgNzU5ICYjMTA7USAyOTU2IDExMjIgMjk1NiAxNzQ3ICYjMTA7USAyOTU2IDIzNjkgMjY4NyAyNzMzICYjMTA7USAyNDE5IDMwOTcgMTk1OSAzMDk3ICYjMTA7eiYjMTA7TSAxOTU5IDM1ODQgJiMxMDtRIDI3MDkgMzU4NCAzMTM3IDMwOTYgJiMxMDtRIDM1NjYgMjYwOSAzNTY2IDE3NDcgJiMxMDtRIDM1NjYgODg4IDMxMzcgMzk4ICYjMTA7USAyNzA5IC05MSAxOTU5IC05MSAmIzEwO1EgMTIwNiAtOTEgNzc5IDM5OCAmIzEwO1EgMzUzIDg4OCAzNTMgMTc0NyAmIzEwO1EgMzUzIDI2MDkgNzc5IDMwOTYgJiMxMDtRIDEyMDYgMzU4NCAxOTU5IDM1ODQgJiMxMDt6IiBpZD0iRGVqYVZ1U2Fucy02ZiIvPgogICAgICAgIDxwYXRoIHRyYW5zZm9ybT0ic2NhbGUoMC4wMTU2MjUpIiBpZD0iRGVqYVZ1U2Fucy0yMCIvPgogICAgICAgPC9kZWZzPgogICAgICAgPHVzZSB4bGluazpocmVmPSIjRGVqYVZ1U2Fucy00ZSIvPgogICAgICAgPHVzZSB4PSI3NC44MDQ2ODgiIHhsaW5rOmhyZWY9IiNEZWphVnVTYW5zLTZmIi8+CiAgICAgICA8dXNlIHg9IjEzNS45ODYzMjgiIHhsaW5rOmhyZWY9IiNEZWphVnVTYW5zLTIwIi8+CiAgICAgICA8dXNlIHg9IjE2Ny43NzM0MzgiIHhsaW5rOmhyZWY9IiNEZWphVnVTYW5zLTQ0Ii8+CiAgICAgICA8dXNlIHg9IjI0NC43NzUzOTEiIHhsaW5rOmhyZWY9IiNEZWphVnVTYW5zLTY5Ii8+CiAgICAgICA8dXNlIHg9IjI3Mi41NTg1OTQiIHhsaW5rOmhyZWY9IiNEZWphVnVTYW5zLTczIi8+CiAgICAgICA8dXNlIHg9IjMyNC42NTgyMDMiIHhsaW5rOmhyZWY9IiNEZWphVnVTYW5zLTY1Ii8+CiAgICAgICA8dXNlIHg9IjM4Ni4xODE2NDEiIHhsaW5rOmhyZWY9IiNEZWphVnVTYW5zLTYxIi8+CiAgICAgICA8dXNlIHg9IjQ0Ny40NjA5MzgiIHhsaW5rOmhyZWY9IiNEZWphVnVTYW5zLTczIi8+CiAgICAgICA8dXNlIHg9IjQ5OS41NjA1NDciIHhsaW5rOmhyZWY9IiNEZWphVnVTYW5zLTY1Ii8+CiAgICAgIDwvZz4KICAgICA8L2c+CiAgICA8L2c+CiAgICA8ZyBpZD0idGV4dF8zIj4KICAgICAKICAgICA8ZyB0cmFuc2Zvcm09InRyYW5zbGF0ZSgyMjAuOTQwNDY5IDMzNS44NjA1NjIpIHNjYWxlKDAuMSAtMC4xKSI+CiAgICAgIDxkZWZzPgogICAgICAgPHBhdGggdHJhbnNmb3JtPSJzY2FsZSgwLjAxNTYyNSkiIGQ9Ik0gMzgwOSA2NjYgJiMxMDtMIDM4MDkgMTkxOSAmIzEwO0wgMjc3OCAxOTE5ICYjMTA7TCAyNzc4IDI0MzggJiMxMDtMIDQ0MzQgMjQzOCAmIzEwO0wgNDQzNCA0MzQgJiMxMDtRIDQwNjkgMTc1IDM2MjggNDIgJiMxMDtRIDMxODggLTkxIDI2ODggLTkxICYjMTA7USAxNTk0IC05MSA5NzYgNTQ4ICYjMTA7USAzNTkgMTE4OCAzNTkgMjMyOCAmIzEwO1EgMzU5IDM0NzIgOTc2IDQxMTEgJiMxMDtRIDE1OTQgNDc1MCAyNjg4IDQ3NTAgJiMxMDtRIDMxNDQgNDc1MCAzNTU1IDQ2MzcgJiMxMDtRIDM5NjYgNDUyNSA0MzEzIDQzMDYgJiMxMDtMIDQzMTMgMzYzNCAmIzEwO1EgMzk2MyAzOTMxIDM1NjkgNDA4MSAmIzEwO1EgMzE3NSA0MjMxIDI3NDEgNDIzMSAmIzEwO1EgMTg4NCA0MjMxIDE0NTQgMzc1MyAmIzEwO1EgMTAyNSAzMjc1IDEwMjUgMjMyOCAmIzEwO1EgMTAyNSAxMzg0IDE0NTQgOTA2ICYjMTA7USAxODg0IDQyOCAyNzQxIDQyOCAmIzEwO1EgMzA3NSA0MjggMzMzNyA0ODYgJiMxMDtRIDM2MDAgNTQ0IDM4MDkgNjY2ICYjMTA7eiIgaWQ9IkRlamFWdVNhbnMtNDciLz4KICAgICAgIDxwYXRoIHRyYW5zZm9ybT0ic2NhbGUoMC4wMTU2MjUpIiBkPSJNIDI2MzEgMjk2MyAmIzEwO1EgMjUzNCAzMDE5IDI0MjAgMzA0NSAmIzEwO1EgMjMwNiAzMDcyIDIxNjkgMzA3MiAmIzEwO1EgMTY4MSAzMDcyIDE0MjAgMjc1NSAmIzEwO1EgMTE1OSAyNDM4IDExNTkgMTg0NCAmIzEwO0wgMTE1OSAwICYjMTA7TCA1ODEgMCAmIzEwO0wgNTgxIDM1MDAgJiMxMDtMIDExNTkgMzUwMCAmIzEwO0wgMTE1OSAyOTU2ICYjMTA7USAxMzQxIDMyNzUgMTYzMSAzNDI5ICYjMTA7USAxOTIyIDM1ODQgMjMzOCAzNTg0ICYjMTA7USAyMzk3IDM1ODQgMjQ2OSAzNTc2ICYjMTA7USAyNTQxIDM1NjkgMjYyOCAzNTUzICYjMTA7TCAyNjMxIDI5NjMgJiMxMDt6IiBpZD0iRGVqYVZ1U2Fucy03MiIvPgogICAgICAgPHBhdGggdHJhbnNmb3JtPSJzY2FsZSgwLjAxNTYyNSkiIGQ9Ik0gNTQ0IDEzODEgJiMxMDtMIDU0NCAzNTAwICYjMTA7TCAxMTE5IDM1MDAgJiMxMDtMIDExMTkgMTQwMyAmIzEwO1EgMTExOSA5MDYgMTMxMiA2NTcgJiMxMDtRIDE1MDYgNDA5IDE4OTQgNDA5ICYjMTA7USAyMzU5IDQwOSAyNjI5IDcwNiAmIzEwO1EgMjkwMCAxMDAzIDI5MDAgMTUxNiAmIzEwO0wgMjkwMCAzNTAwICYjMTA7TCAzNDc1IDM1MDAgJiMxMDtMIDM0NzUgMCAmIzEwO0wgMjkwMCAwICYjMTA7TCAyOTAwIDUzOCAmIzEwO1EgMjY5MSAyMTkgMjQxNCA2NCAmIzEwO1EgMjEzOCAtOTEgMTc3MiAtOTEgJiMxMDtRIDExNjkgLTkxIDg1NiAyODQgJiMxMDtRIDU0NCA2NTkgNTQ0IDEzODEgJiMxMDt6JiMxMDtNIDE5OTEgMzU4NCAmIzEwO0wgMTk5MSAzNTg0ICYjMTA7eiIgaWQ9IkRlamFWdVNhbnMtNzUiLz4KICAgICAgIDxwYXRoIHRyYW5zZm9ybT0ic2NhbGUoMC4wMTU2MjUpIiBkPSJNIDExNTkgNTI1ICYjMTA7TCAxMTU5IC0xMzMxICYjMTA7TCA1ODEgLTEzMzEgJiMxMDtMIDU4MSAzNTAwICYjMTA7TCAxMTU5IDM1MDAgJiMxMDtMIDExNTkgMjk2OSAmIzEwO1EgMTM0MSAzMjgxIDE2MTcgMzQzMiAmIzEwO1EgMTg5NCAzNTg0IDIyNzggMzU4NCAmIzEwO1EgMjkxNiAzNTg0IDMzMTQgMzA3OCAmIzEwO1EgMzcxMyAyNTcyIDM3MTMgMTc0NyAmIzEwO1EgMzcxMyA5MjIgMzMxNCA0MTUgJiMxMDtRIDI5MTYgLTkxIDIyNzggLTkxICYjMTA7USAxODk0IC05MSAxNjE3IDYxICYjMTA7USAxMzQxIDIxMyAxMTU5IDUyNSAmIzEwO3omIzEwO00gMzExNiAxNzQ3ICYjMTA7USAzMTE2IDIzODEgMjg1NSAyNzQyICYjMTA7USAyNTk0IDMxMDMgMjEzOCAzMTAzICYjMTA7USAxNjgxIDMxMDMgMTQyMCAyNzQyICYjMTA7USAxMTU5IDIzODEgMTE1OSAxNzQ3ICYjMTA7USAxMTU5IDExMTMgMTQyMCA3NTIgJiMxMDtRIDE2ODEgMzkxIDIxMzggMzkxICYjMTA7USAyNTk0IDM5MSAyODU1IDc1MiAmIzEwO1EgMzExNiAxMTEzIDMxMTYgMTc0NyAmIzEwO3oiIGlkPSJEZWphVnVTYW5zLTcwIi8+CiAgICAgIDwvZGVmcz4KICAgICAgPHVzZSB4bGluazpocmVmPSIjRGVqYVZ1U2Fucy00NyIvPgogICAgICA8dXNlIHg9Ijc3LjQ5MDIzNCIgeGxpbms6aHJlZj0iI0RlamFWdVNhbnMtNzIiLz4KICAgICAgPHVzZSB4PSIxMTYuMzUzNTE2IiB4bGluazpocmVmPSIjRGVqYVZ1U2Fucy02ZiIvPgogICAgICA8dXNlIHg9IjE3Ny41MzUxNTYiIHhsaW5rOmhyZWY9IiNEZWphVnVTYW5zLTc1Ii8+CiAgICAgIDx1c2UgeD0iMjQwLjkxNDA2MiIgeGxpbms6aHJlZj0iI0RlamFWdVNhbnMtNzAiLz4KICAgICA8L2c+CiAgICA8L2c+CiAgIDwvZz4KICAgPGcgaWQ9Im1hdHBsb3RsaWIuYXhpc18yIj4KICAgIDxnIGlkPSJ5dGlja18xIj4KICAgICA8ZyBpZD0ibGluZTJkXzMiPgogICAgICA8ZGVmcz4KICAgICAgIDxwYXRoIHN0eWxlPSJzdHJva2U6ICMwMDAwMDA7IHN0cm9rZS13aWR0aDogMC44IiBkPSJNIDAgMCAmIzEwO0wgLTMuNSAwIiBpZD0ibWY4NmIzOTJkY2IiLz4KICAgICAgPC9kZWZzPgogICAgICA8Zz4KICAgICAgIDx1c2Ugc3R5bGU9InN0cm9rZTogIzAwMDAwMDsgc3Ryb2tlLXdpZHRoOiAwLjgiIHk9IjI1OS42OTA2OCIgeD0iNTcuNiIgeGxpbms6aHJlZj0iI21mODZiMzkyZGNiIi8+CiAgICAgIDwvZz4KICAgICA8L2c+CiAgICAgPGcgaWQ9InRleHRfNCI+CiAgICAgIAogICAgICA8ZyB0cmFuc2Zvcm09InRyYW5zbGF0ZSgzNS44NTc4MTMgMjYzLjQ4OTg5OSkgc2NhbGUoMC4xIC0wLjEpIj4KICAgICAgIDxkZWZzPgogICAgICAgIDxwYXRoIHRyYW5zZm9ybT0ic2NhbGUoMC4wMTU2MjUpIiBkPSJNIDY3OCAyMjcyICYjMTA7TCA0Njg0IDIyNzIgJiMxMDtMIDQ2ODQgMTc0MSAmIzEwO0wgNjc4IDE3NDEgJiMxMDtMIDY3OCAyMjcyICYjMTA7eiIgaWQ9IkRlamFWdVNhbnMtMjIxMiIvPgogICAgICAgIDxwYXRoIHRyYW5zZm9ybT0ic2NhbGUoMC4wMTU2MjUpIiBkPSJNIDEyMjggNTMxICYjMTA7TCAzNDMxIDUzMSAmIzEwO0wgMzQzMSAwICYjMTA7TCA0NjkgMCAmIzEwO0wgNDY5IDUzMSAmIzEwO1EgODI4IDkwMyAxNDQ4IDE1MjkgJiMxMDtRIDIwNjkgMjE1NiAyMjI4IDIzMzggJiMxMDtRIDI1MzEgMjY3OCAyNjUxIDI5MTQgJiMxMDtRIDI3NzIgMzE1MCAyNzcyIDMzNzggJiMxMDtRIDI3NzIgMzc1MCAyNTExIDM5ODQgJiMxMDtRIDIyNTAgNDIxOSAxODMxIDQyMTkgJiMxMDtRIDE1MzQgNDIxOSAxMjA0IDQxMTYgJiMxMDtRIDg3NSA0MDEzIDUwMCAzODAzICYjMTA7TCA1MDAgNDQ0MSAmIzEwO1EgODgxIDQ1OTQgMTIxMiA0NjcyICYjMTA7USAxNTQ0IDQ3NTAgMTgxOSA0NzUwICYjMTA7USAyNTQ0IDQ3NTAgMjk3NSA0Mzg3ICYjMTA7USAzNDA2IDQwMjUgMzQwNiAzNDE5ICYjMTA7USAzNDA2IDMxMzEgMzI5OCAyODczICYjMTA7USAzMTkxIDI2MTYgMjkwNiAyMjY2ICYjMTA7USAyODI4IDIxNzUgMjQwOSAxNzQyICYjMTA7USAxOTkxIDEzMDkgMTIyOCA1MzEgJiMxMDt6IiBpZD0iRGVqYVZ1U2Fucy0zMiIvPgogICAgICAgPC9kZWZzPgogICAgICAgPHVzZSB4bGluazpocmVmPSIjRGVqYVZ1U2Fucy0yMjEyIi8+CiAgICAgICA8dXNlIHg9IjgzLjc4OTA2MiIgeGxpbms6aHJlZj0iI0RlamFWdVNhbnMtMzIiLz4KICAgICAgPC9nPgogICAgIDwvZz4KICAgIDwvZz4KICAgIDxnIGlkPSJ5dGlja18yIj4KICAgICA8ZyBpZD0ibGluZTJkXzQiPgogICAgICA8Zz4KICAgICAgIDx1c2Ugc3R5bGU9InN0cm9rZTogIzAwMDAwMDsgc3Ryb2tlLXdpZHRoOiAwLjgiIHk9IjIwMC44MjMxMDkiIHg9IjU3LjYiIHhsaW5rOmhyZWY9IiNtZjg2YjM5MmRjYiIvPgogICAgICA8L2c+CiAgICAgPC9nPgogICAgIDxnIGlkPSJ0ZXh0XzUiPgogICAgICAKICAgICAgPGcgdHJhbnNmb3JtPSJ0cmFuc2xhdGUoNDQuMjM3NSAyMDQuNjIyMzI4KSBzY2FsZSgwLjEgLTAuMSkiPgogICAgICAgPGRlZnM+CiAgICAgICAgPHBhdGggdHJhbnNmb3JtPSJzY2FsZSgwLjAxNTYyNSkiIGQ9Ik0gMjAzNCA0MjUwICYjMTA7USAxNTQ3IDQyNTAgMTMwMSAzNzcwICYjMTA7USAxMDU2IDMyOTEgMTA1NiAyMzI4ICYjMTA7USAxMDU2IDEzNjkgMTMwMSA4ODkgJiMxMDtRIDE1NDcgNDA5IDIwMzQgNDA5ICYjMTA7USAyNTI1IDQwOSAyNzcwIDg4OSAmIzEwO1EgMzAxNiAxMzY5IDMwMTYgMjMyOCAmIzEwO1EgMzAxNiAzMjkxIDI3NzAgMzc3MCAmIzEwO1EgMjUyNSA0MjUwIDIwMzQgNDI1MCAmIzEwO3omIzEwO00gMjAzNCA0NzUwICYjMTA7USAyODE5IDQ3NTAgMzIzMyA0MTI5ICYjMTA7USAzNjQ3IDM1MDkgMzY0NyAyMzI4ICYjMTA7USAzNjQ3IDExNTAgMzIzMyA1MjkgJiMxMDtRIDI4MTkgLTkxIDIwMzQgLTkxICYjMTA7USAxMjUwIC05MSA4MzYgNTI5ICYjMTA7USA0MjIgMTE1MCA0MjIgMjMyOCAmIzEwO1EgNDIyIDM1MDkgODM2IDQxMjkgJiMxMDtRIDEyNTAgNDc1MCAyMDM0IDQ3NTAgJiMxMDt6IiBpZD0iRGVqYVZ1U2Fucy0zMCIvPgogICAgICAgPC9kZWZzPgogICAgICAgPHVzZSB4bGluazpocmVmPSIjRGVqYVZ1U2Fucy0zMCIvPgogICAgICA8L2c+CiAgICAgPC9nPgogICAgPC9nPgogICAgPGcgaWQ9Inl0aWNrXzMiPgogICAgIDxnIGlkPSJsaW5lMmRfNSI+CiAgICAgIDxnPgogICAgICAgPHVzZSBzdHlsZT0ic3Ryb2tlOiAjMDAwMDAwOyBzdHJva2Utd2lkdGg6IDAuOCIgeT0iMTQxLjk1NTUzOCIgeD0iNTcuNiIgeGxpbms6aHJlZj0iI21mODZiMzkyZGNiIi8+CiAgICAgIDwvZz4KICAgICA8L2c+CiAgICAgPGcgaWQ9InRleHRfNiI+CiAgICAgIAogICAgICA8ZyB0cmFuc2Zvcm09InRyYW5zbGF0ZSg0NC4yMzc1IDE0NS43NTQ3NTYpIHNjYWxlKDAuMSAtMC4xKSI+CiAgICAgICA8dXNlIHhsaW5rOmhyZWY9IiNEZWphVnVTYW5zLTMyIi8+CiAgICAgIDwvZz4KICAgICA8L2c+CiAgICA8L2c+CiAgICA8ZyBpZD0ieXRpY2tfNCI+CiAgICAgPGcgaWQ9ImxpbmUyZF82Ij4KICAgICAgPGc+CiAgICAgICA8dXNlIHN0eWxlPSJzdHJva2U6ICMwMDAwMDA7IHN0cm9rZS13aWR0aDogMC44IiB5PSI4My4wODc5NjYiIHg9IjU3LjYiIHhsaW5rOmhyZWY9IiNtZjg2YjM5MmRjYiIvPgogICAgICA8L2c+CiAgICAgPC9nPgogICAgIDxnIGlkPSJ0ZXh0XzciPgogICAgICAKICAgICAgPGcgdHJhbnNmb3JtPSJ0cmFuc2xhdGUoNDQuMjM3NSA4Ni44ODcxODUpIHNjYWxlKDAuMSAtMC4xKSI+CiAgICAgICA8ZGVmcz4KICAgICAgICA8cGF0aCB0cmFuc2Zvcm09InNjYWxlKDAuMDE1NjI1KSIgZD0iTSAyNDE5IDQxMTYgJiMxMDtMIDgyNSAxNjI1ICYjMTA7TCAyNDE5IDE2MjUgJiMxMDtMIDI0MTkgNDExNiAmIzEwO3omIzEwO00gMjI1MyA0NjY2ICYjMTA7TCAzMDQ3IDQ2NjYgJiMxMDtMIDMwNDcgMTYyNSAmIzEwO0wgMzcxMyAxNjI1ICYjMTA7TCAzNzEzIDExMDAgJiMxMDtMIDMwNDcgMTEwMCAmIzEwO0wgMzA0NyAwICYjMTA7TCAyNDE5IDAgJiMxMDtMIDI0MTkgMTEwMCAmIzEwO0wgMzEzIDExMDAgJiMxMDtMIDMxMyAxNzA5ICYjMTA7TCAyMjUzIDQ2NjYgJiMxMDt6IiBpZD0iRGVqYVZ1U2Fucy0zNCIvPgogICAgICAgPC9kZWZzPgogICAgICAgPHVzZSB4bGluazpocmVmPSIjRGVqYVZ1U2Fucy0zNCIvPgogICAgICA8L2c+CiAgICAgPC9nPgogICAgPC9nPgogICAgPGcgaWQ9InRleHRfOCI+CiAgICAgCiAgICAgPGcgdHJhbnNmb3JtPSJ0cmFuc2xhdGUoMjkuNzc4MTI1IDE3Ny41ODE5MDYpIHJvdGF0ZSgtOTApIHNjYWxlKDAuMSAtMC4xKSI+CiAgICAgIDxkZWZzPgogICAgICAgPHBhdGggdHJhbnNmb3JtPSJzY2FsZSgwLjAxNTYyNSkiIGQ9Ik0gLTEzIDQ2NjYgJiMxMDtMIDY2NiA0NjY2ICYjMTA7TCAxOTU5IDI3NDcgJiMxMDtMIDMyNDQgNDY2NiAmIzEwO0wgMzkyMiA0NjY2ICYjMTA7TCAyMjcyIDIyMjIgJiMxMDtMIDIyNzIgMCAmIzEwO0wgMTYzOCAwICYjMTA7TCAxNjM4IDIyMjIgJiMxMDtMIC0xMyA0NjY2ICYjMTA7eiIgaWQ9IkRlamFWdVNhbnMtNTkiLz4KICAgICAgPC9kZWZzPgogICAgICA8dXNlIHhsaW5rOmhyZWY9IiNEZWphVnVTYW5zLTU5Ii8+CiAgICAgPC9nPgogICAgPC9nPgogICA8L2c+CiAgIDxnIGlkPSJwYXRjaF8zIj4KICAgIDxwYXRoIHN0eWxlPSJmaWxsOiAjMzI3NGExOyBzdHJva2U6ICMzZjNmM2Y7IHN0cm9rZS1saW5lam9pbjogbWl0ZXIiIGNsaXAtcGF0aD0idXJsKCNwODg4OTQxYTZjMSkiIGQ9Ik0gNzUuNDU2IDE0NC42MjU0MTMgJiMxMDtMIDIxOC4zMDQgMTQ0LjYyNTQxMyAmIzEwO0wgMjE4LjMwNCAxMTAuNjM4NjYyICYjMTA7TCA3NS40NTYgMTEwLjYzODY2MiAmIzEwO0wgNzUuNDU2IDE0NC42MjU0MTMgJiMxMDt6Ii8+CiAgIDwvZz4KICAgPGcgaWQ9ImxpbmUyZF83Ij4KICAgIDxwYXRoIHN0eWxlPSJmaWxsOiBub25lOyBzdHJva2U6ICMzZjNmM2YiIGNsaXAtcGF0aD0idXJsKCNwODg4OTQxYTZjMSkiIGQ9Ik0gMTQ2Ljg4IDE0NC42MjU0MTMgJiMxMDtMIDE0Ni44OCAxODguMjUwMDQzIi8+CiAgIDwvZz4KICAgPGcgaWQ9ImxpbmUyZF84Ij4KICAgIDxwYXRoIHN0eWxlPSJmaWxsOiBub25lOyBzdHJva2U6ICMzZjNmM2YiIGNsaXAtcGF0aD0idXJsKCNwODg4OTQxYTZjMSkiIGQ9Ik0gMTQ2Ljg4IDExMC42Mzg2NjIgJiMxMDtMIDE0Ni44OCA2MC45NDM0MyIvPgogICA8L2c+CiAgIDxnIGlkPSJsaW5lMmRfOSI+CiAgICA8cGF0aCBzdHlsZT0iZmlsbDogbm9uZTsgc3Ryb2tlOiAjM2YzZjNmOyBzdHJva2UtbGluZWNhcDogc3F1YXJlIiBjbGlwLXBhdGg9InVybCgjcDg4ODk0MWE2YzEpIiBkPSJNIDExMS4xNjggMTg4LjI1MDA0MyAmIzEwO0wgMTgyLjU5MiAxODguMjUwMDQzIi8+CiAgIDwvZz4KICAgPGcgaWQ9ImxpbmUyZF8xMCI+CiAgICA8cGF0aCBzdHlsZT0iZmlsbDogbm9uZTsgc3Ryb2tlOiAjM2YzZjNmOyBzdHJva2UtbGluZWNhcDogc3F1YXJlIiBjbGlwLXBhdGg9InVybCgjcDg4ODk0MWE2YzEpIiBkPSJNIDExMS4xNjggNjAuOTQzNDMgJiMxMDtMIDE4Mi41OTIgNjAuOTQzNDMiLz4KICAgPC9nPgogICA8ZyBpZD0ibGluZTJkXzExIj4KICAgIDxkZWZzPgogICAgIDxwYXRoIHN0eWxlPSJzdHJva2U6ICMzZjNmM2YiIGQ9Ik0gMCAzICYjMTA7QyAwLjc5NTYwOSAzIDEuNTU4NzQgMi42ODM5MDEgMi4xMjEzMiAyLjEyMTMyICYjMTA7QyAyLjY4MzkwMSAxLjU1ODc0IDMgMC43OTU2MDkgMyAwICYjMTA7QyAzIC0wLjc5NTYwOSAyLjY4MzkwMSAtMS41NTg3NCAyLjEyMTMyIC0yLjEyMTMyICYjMTA7QyAxLjU1ODc0IC0yLjY4MzkwMSAwLjc5NTYwOSAtMyAwIC0zICYjMTA7QyAtMC43OTU2MDkgLTMgLTEuNTU4NzQgLTIuNjgzOTAxIC0yLjEyMTMyIC0yLjEyMTMyICYjMTA7QyAtMi42ODM5MDEgLTEuNTU4NzQgLTMgLTAuNzk1NjA5IC0zIDAgJiMxMDtDIC0zIDAuNzk1NjA5IC0yLjY4MzkwMSAxLjU1ODc0IC0yLjEyMTMyIDIuMTIxMzIgJiMxMDtDIC0xLjU1ODc0IDIuNjgzOTAxIC0wLjc5NTYwOSAzIDAgMyAmIzEwO3oiIGlkPSJtZmU1ZTVjMmY1MyIvPgogICAgPC9kZWZzPgogICAgPGcgY2xpcC1wYXRoPSJ1cmwoI3A4ODg5NDFhNmMxKSI+CiAgICAgPHVzZSBzdHlsZT0iZmlsbC1vcGFjaXR5OiAwOyBzdHJva2U6ICMzZjNmM2YiIHk9IjIwNC40Mjg0NjciIHg9IjE0Ni44OCIgeGxpbms6aHJlZj0iI21mZTVlNWMyZjUzIi8+CiAgICAgPHVzZSBzdHlsZT0iZmlsbC1vcGFjaXR5OiAwOyBzdHJva2U6ICMzZjNmM2YiIHk9IjE5Ny45MzUwMDEiIHg9IjE0Ni44OCIgeGxpbms6aHJlZj0iI21mZTVlNWMyZjUzIi8+CiAgICAgPHVzZSBzdHlsZT0iZmlsbC1vcGFjaXR5OiAwOyBzdHJva2U6ICMzZjNmM2YiIHk9IjUzLjU2OCIgeD0iMTQ2Ljg4IiB4bGluazpocmVmPSIjbWZlNWU1YzJmNTMiLz4KICAgIDwvZz4KICAgPC9nPgogICA8ZyBpZD0icGF0Y2hfNCI+CiAgICA8cGF0aCBzdHlsZT0iZmlsbDogI2UxODEyYzsgc3Ryb2tlOiAjM2YzZjNmOyBzdHJva2UtbGluZWpvaW46IG1pdGVyIiBjbGlwLXBhdGg9InVybCgjcDg4ODk0MWE2YzEpIiBkPSJNIDI1NC4wMTYgMjAzLjY2NzY2NyAmIzEwO0wgMzk2Ljg2NCAyMDMuNjY3NjY3ICYjMTA7TCAzOTYuODY0IDE2NS45NTU1ODEgJiMxMDtMIDI1NC4wMTYgMTY1Ljk1NTU4MSAmIzEwO0wgMjU0LjAxNiAyMDMuNjY3NjY3ICYjMTA7eiIvPgogICA8L2c+CiAgIDxnIGlkPSJsaW5lMmRfMTIiPgogICAgPHBhdGggc3R5bGU9ImZpbGw6IG5vbmU7IHN0cm9rZTogIzNmM2YzZiIgY2xpcC1wYXRoPSJ1cmwoI3A4ODg5NDFhNmMxKSIgZD0iTSAzMjUuNDQgMjAzLjY2NzY2NyAmIzEwO0wgMzI1LjQ0IDI1OS40MDAzNjEiLz4KICAgPC9nPgogICA8ZyBpZD0ibGluZTJkXzEzIj4KICAgIDxwYXRoIHN0eWxlPSJmaWxsOiBub25lOyBzdHJva2U6ICMzZjNmM2YiIGNsaXAtcGF0aD0idXJsKCNwODg4OTQxYTZjMSkiIGQ9Ik0gMzI1LjQ0IDE2NS45NTU1ODEgJiMxMDtMIDMyNS40NCAxMjQuNDQwMjEiLz4KICAgPC9nPgogICA8ZyBpZD0ibGluZTJkXzE0Ij4KICAgIDxwYXRoIHN0eWxlPSJmaWxsOiBub25lOyBzdHJva2U6ICMzZjNmM2Y7IHN0cm9rZS1saW5lY2FwOiBzcXVhcmUiIGNsaXAtcGF0aD0idXJsKCNwODg4OTQxYTZjMSkiIGQ9Ik0gMjg5LjcyOCAyNTkuNDAwMzYxICYjMTA7TCAzNjEuMTUyIDI1OS40MDAzNjEiLz4KICAgPC9nPgogICA8ZyBpZD0ibGluZTJkXzE1Ij4KICAgIDxwYXRoIHN0eWxlPSJmaWxsOiBub25lOyBzdHJva2U6ICMzZjNmM2Y7IHN0cm9rZS1saW5lY2FwOiBzcXVhcmUiIGNsaXAtcGF0aD0idXJsKCNwODg4OTQxYTZjMSkiIGQ9Ik0gMjg5LjcyOCAxMjQuNDQwMjEgJiMxMDtMIDM2MS4xNTIgMTI0LjQ0MDIxIi8+CiAgIDwvZz4KICAgPGcgaWQ9ImxpbmUyZF8xNiI+CiAgICA8ZyBjbGlwLXBhdGg9InVybCgjcDg4ODk0MWE2YzEpIj4KICAgICA8dXNlIHN0eWxlPSJmaWxsLW9wYWNpdHk6IDA7IHN0cm9rZTogIzNmM2YzZiIgeT0iMjYwLjY4MDU1OSIgeD0iMzI1LjQ0IiB4bGluazpocmVmPSIjbWZlNWU1YzJmNTMiLz4KICAgICA8dXNlIHN0eWxlPSJmaWxsLW9wYWNpdHk6IDA7IHN0cm9rZTogIzNmM2YzZiIgeT0iMjYxLjQ2OTE1NCIgeD0iMzI1LjQ0IiB4bGluazpocmVmPSIjbWZlNWU1YzJmNTMiLz4KICAgICA8dXNlIHN0eWxlPSJmaWxsLW9wYWNpdHk6IDA7IHN0cm9rZTogIzNmM2YzZiIgeT0iMjk1LjQ4OCIgeD0iMzI1LjQ0IiB4bGluazpocmVmPSIjbWZlNWU1YzJmNTMiLz4KICAgICA8dXNlIHN0eWxlPSJmaWxsLW9wYWNpdHk6IDA7IHN0cm9rZTogIzNmM2YzZiIgeT0iMjY3LjI4ODQ1NCIgeD0iMzI1LjQ0IiB4bGluazpocmVmPSIjbWZlNWU1YzJmNTMiLz4KICAgIDwvZz4KICAgPC9nPgogICA8ZyBpZD0ibGluZTJkXzE3Ij4KICAgIDxwYXRoIHN0eWxlPSJmaWxsOiBub25lOyBzdHJva2U6ICMzZjNmM2YiIGNsaXAtcGF0aD0idXJsKCNwODg4OTQxYTZjMSkiIGQ9Ik0gNzUuNDU2IDEyNi44MjA4MTMgJiMxMDtMIDIxOC4zMDQgMTI2LjgyMDgxMyIvPgogICA8L2c+CiAgIDxnIGlkPSJsaW5lMmRfMTgiPgogICAgPHBhdGggc3R5bGU9ImZpbGw6IG5vbmU7IHN0cm9rZTogIzNmM2YzZiIgY2xpcC1wYXRoPSJ1cmwoI3A4ODg5NDFhNmMxKSIgZD0iTSAyNTQuMDE2IDE4Ny41NjY3NTEgJiMxMDtMIDM5Ni44NjQgMTg3LjU2Njc1MSIvPgogICA8L2c+CiAgIDxnIGlkPSJwYXRjaF81Ij4KICAgIDxwYXRoIHN0eWxlPSJmaWxsOiBub25lOyBzdHJva2U6ICMwMDAwMDA7IHN0cm9rZS13aWR0aDogMC44OyBzdHJva2UtbGluZWpvaW46IG1pdGVyOyBzdHJva2UtbGluZWNhcDogc3F1YXJlIiBkPSJNIDU3LjYgMzA3LjU4NCAmIzEwO0wgNTcuNiA0MS40NzIiLz4KICAgPC9nPgogICA8ZyBpZD0icGF0Y2hfNiI+CiAgICA8cGF0aCBzdHlsZT0iZmlsbDogbm9uZTsgc3Ryb2tlOiAjMDAwMDAwOyBzdHJva2Utd2lkdGg6IDAuODsgc3Ryb2tlLWxpbmVqb2luOiBtaXRlcjsgc3Ryb2tlLWxpbmVjYXA6IHNxdWFyZSIgZD0iTSA0MTQuNzIgMzA3LjU4NCAmIzEwO0wgNDE0LjcyIDQxLjQ3MiIvPgogICA8L2c+CiAgIDxnIGlkPSJwYXRjaF83Ij4KICAgIDxwYXRoIHN0eWxlPSJmaWxsOiBub25lOyBzdHJva2U6ICMwMDAwMDA7IHN0cm9rZS13aWR0aDogMC44OyBzdHJva2UtbGluZWpvaW46IG1pdGVyOyBzdHJva2UtbGluZWNhcDogc3F1YXJlIiBkPSJNIDU3LjYgMzA3LjU4NCAmIzEwO0wgNDE0LjcyIDMwNy41ODQiLz4KICAgPC9nPgogICA8ZyBpZD0icGF0Y2hfOCI+CiAgICA8cGF0aCBzdHlsZT0iZmlsbDogbm9uZTsgc3Ryb2tlOiAjMDAwMDAwOyBzdHJva2Utd2lkdGg6IDAuODsgc3Ryb2tlLWxpbmVqb2luOiBtaXRlcjsgc3Ryb2tlLWxpbmVjYXA6IHNxdWFyZSIgZD0iTSA1Ny42IDQxLjQ3MiAmIzEwO0wgNDE0LjcyIDQxLjQ3MiIvPgogICA8L2c+CiAgIDxnIGlkPSJ0ZXh0XzkiPgogICAgCiAgICA8ZyB0cmFuc2Zvcm09InRyYW5zbGF0ZSgxNTMuMzUzNDM3IDIyLjAzNDYyNSkgc2NhbGUoMC4xMiAtMC4xMikiPgogICAgIDxkZWZzPgogICAgICA8cGF0aCB0cmFuc2Zvcm09InNjYWxlKDAuMDE1NjI1KSIgZD0iTSA2MjggNDY2NiAmIzEwO0wgMzU3OCA0NjY2ICYjMTA7TCAzNTc4IDQxMzQgJiMxMDtMIDEyNTkgNDEzNCAmIzEwO0wgMTI1OSAyNzUzICYjMTA7TCAzNDgxIDI3NTMgJiMxMDtMIDM0ODEgMjIyMiAmIzEwO0wgMTI1OSAyMjIyICYjMTA7TCAxMjU5IDUzMSAmIzEwO0wgMzYzNCA1MzEgJiMxMDtMIDM2MzQgMCAmIzEwO0wgNjI4IDAgJiMxMDtMIDYyOCA0NjY2ICYjMTA7eiIgaWQ9IkRlamFWdVNhbnMtNDUiLz4KICAgICAgPHBhdGggdHJhbnNmb3JtPSJzY2FsZSgwLjAxNTYyNSkiIGQ9Ik0gMjM3NSA0ODYzICYjMTA7TCAyMzc1IDQzODQgJiMxMDtMIDE4MjUgNDM4NCAmIzEwO1EgMTUxNiA0Mzg0IDEzOTUgNDI1OSAmIzEwO1EgMTI3NSA0MTM0IDEyNzUgMzgwOSAmIzEwO0wgMTI3NSAzNTAwICYjMTA7TCAyMjIyIDM1MDAgJiMxMDtMIDIyMjIgMzA1MyAmIzEwO0wgMTI3NSAzMDUzICYjMTA7TCAxMjc1IDAgJiMxMDtMIDY5NyAwICYjMTA7TCA2OTcgMzA1MyAmIzEwO0wgMTQ3IDMwNTMgJiMxMDtMIDE0NyAzNTAwICYjMTA7TCA2OTcgMzUwMCAmIzEwO0wgNjk3IDM3NDQgJiMxMDtRIDY5NyA0MzI4IDk2OSA0NTk1ICYjMTA7USAxMjQxIDQ4NjMgMTgzMSA0ODYzICYjMTA7TCAyMzc1IDQ4NjMgJiMxMDt6IiBpZD0iRGVqYVZ1U2Fucy02NiIvPgogICAgICA8cGF0aCB0cmFuc2Zvcm09InNjYWxlKDAuMDE1NjI1KSIgZD0iTSAzMTIyIDMzNjYgJiMxMDtMIDMxMjIgMjgyOCAmIzEwO1EgMjg3OCAyOTYzIDI2MzMgMzAzMCAmIzEwO1EgMjM4OCAzMDk3IDIxMzggMzA5NyAmIzEwO1EgMTU3OCAzMDk3IDEyNjggMjc0MiAmIzEwO1EgOTU5IDIzODggOTU5IDE3NDcgJiMxMDtRIDk1OSAxMTA2IDEyNjggNzUxICYjMTA7USAxNTc4IDM5NyAyMTM4IDM5NyAmIzEwO1EgMjM4OCAzOTcgMjYzMyA0NjQgJiMxMDtRIDI4NzggNTMxIDMxMjIgNjY2ICYjMTA7TCAzMTIyIDEzNCAmIzEwO1EgMjg4MSAyMiAyNjIzIC0zNCAmIzEwO1EgMjM2NiAtOTEgMjA3NSAtOTEgJiMxMDtRIDEyODQgLTkxIDgxOCA0MDYgJiMxMDtRIDM1MyA5MDMgMzUzIDE3NDcgJiMxMDtRIDM1MyAyNjAzIDgyMyAzMDkzICYjMTA7USAxMjk0IDM1ODQgMjExMyAzNTg0ICYjMTA7USAyMzc4IDM1ODQgMjYzMSAzNTI5ICYjMTA7USAyODg0IDM0NzUgMzEyMiAzMzY2ICYjMTA7eiIgaWQ9IkRlamFWdVNhbnMtNjMiLz4KICAgICAgPHBhdGggdHJhbnNmb3JtPSJzY2FsZSgwLjAxNTYyNSkiIGQ9Ik0gMTE3MiA0NDk0ICYjMTA7TCAxMTcyIDM1MDAgJiMxMDtMIDIzNTYgMzUwMCAmIzEwO0wgMjM1NiAzMDUzICYjMTA7TCAxMTcyIDMwNTMgJiMxMDtMIDExNzIgMTE1MyAmIzEwO1EgMTE3MiA3MjUgMTI4OSA2MDMgJiMxMDtRIDE0MDYgNDgxIDE3NjYgNDgxICYjMTA7TCAyMzU2IDQ4MSAmIzEwO0wgMjM1NiAwICYjMTA7TCAxNzY2IDAgJiMxMDtRIDExMDAgMCA4NDcgMjQ4ICYjMTA7USA1OTQgNDk3IDU5NCAxMTUzICYjMTA7TCA1OTQgMzA1MyAmIzEwO0wgMTcyIDMwNTMgJiMxMDtMIDE3MiAzNTAwICYjMTA7TCA1OTQgMzUwMCAmIzEwO0wgNTk0IDQ0OTQgJiMxMDtMIDExNzIgNDQ5NCAmIzEwO3oiIGlkPSJEZWphVnVTYW5zLTc0Ii8+CiAgICAgIDxwYXRoIHRyYW5zZm9ybT0ic2NhbGUoMC4wMTU2MjUpIiBkPSJNIDI5MDYgMjk2OSAmIzEwO0wgMjkwNiA0ODYzICYjMTA7TCAzNDgxIDQ4NjMgJiMxMDtMIDM0ODEgMCAmIzEwO0wgMjkwNiAwICYjMTA7TCAyOTA2IDUyNSAmIzEwO1EgMjcyNSAyMTMgMjQ0OCA2MSAmIzEwO1EgMjE3MiAtOTEgMTc4NCAtOTEgJiMxMDtRIDExNTAgLTkxIDc1MSA0MTUgJiMxMDtRIDM1MyA5MjIgMzUzIDE3NDcgJiMxMDtRIDM1MyAyNTcyIDc1MSAzMDc4ICYjMTA7USAxMTUwIDM1ODQgMTc4NCAzNTg0ICYjMTA7USAyMTcyIDM1ODQgMjQ0OCAzNDMyICYjMTA7USAyNzI1IDMyODEgMjkwNiAyOTY5ICYjMTA7eiYjMTA7TSA5NDcgMTc0NyAmIzEwO1EgOTQ3IDExMTMgMTIwOCA3NTIgJiMxMDtRIDE0NjkgMzkxIDE5MjUgMzkxICYjMTA7USAyMzgxIDM5MSAyNjQzIDc1MiAmIzEwO1EgMjkwNiAxMTEzIDI5MDYgMTc0NyAmIzEwO1EgMjkwNiAyMzgxIDI2NDMgMjc0MiAmIzEwO1EgMjM4MSAzMTAzIDE5MjUgMzEwMyAmIzEwO1EgMTQ2OSAzMTAzIDEyMDggMjc0MiAmIzEwO1EgOTQ3IDIzODEgOTQ3IDE3NDcgJiMxMDt6IiBpZD0iRGVqYVZ1U2Fucy02NCIvPgogICAgICA8cGF0aCB0cmFuc2Zvcm09InNjYWxlKDAuMDE1NjI1KSIgZD0iTSAzNTEzIDIxMTMgJiMxMDtMIDM1MTMgMCAmIzEwO0wgMjkzOCAwICYjMTA7TCAyOTM4IDIwOTQgJiMxMDtRIDI5MzggMjU5MSAyNzQ0IDI4MzcgJiMxMDtRIDI1NTAgMzA4NCAyMTYzIDMwODQgJiMxMDtRIDE2OTcgMzA4NCAxNDI4IDI3ODcgJiMxMDtRIDExNTkgMjQ5MSAxMTU5IDE5NzggJiMxMDtMIDExNTkgMCAmIzEwO0wgNTgxIDAgJiMxMDtMIDU4MSAzNTAwICYjMTA7TCAxMTU5IDM1MDAgJiMxMDtMIDExNTkgMjk1NiAmIzEwO1EgMTM2NiAzMjcyIDE2NDUgMzQyOCAmIzEwO1EgMTkyNSAzNTg0IDIyOTEgMzU4NCAmIzEwO1EgMjg5NCAzNTg0IDMyMDMgMzIxMSAmIzEwO1EgMzUxMyAyODM4IDM1MTMgMjExMyAmIzEwO3oiIGlkPSJEZWphVnVTYW5zLTZlIi8+CiAgICAgIDxwYXRoIHRyYW5zZm9ybT0ic2NhbGUoMC4wMTU2MjUpIiBkPSJNIDI2OSAzNTAwICYjMTA7TCA4NDQgMzUwMCAmIzEwO0wgMTU2MyA3NjkgJiMxMDtMIDIyNzggMzUwMCAmIzEwO0wgMjk1NiAzNTAwICYjMTA7TCAzNjc1IDc2OSAmIzEwO0wgNDM5MSAzNTAwICYjMTA7TCA0OTY2IDM1MDAgJiMxMDtMIDQwNTAgMCAmIzEwO0wgMzM3MiAwICYjMTA7TCAyNjE5IDI4NjkgJiMxMDtMIDE4NjMgMCAmIzEwO0wgMTE4NCAwICYjMTA7TCAyNjkgMzUwMCAmIzEwO3oiIGlkPSJEZWphVnVTYW5zLTc3Ii8+CiAgICAgIDxwYXRoIHRyYW5zZm9ybT0ic2NhbGUoMC4wMTU2MjUpIiBkPSJNIDM1MTMgMjExMyAmIzEwO0wgMzUxMyAwICYjMTA7TCAyOTM4IDAgJiMxMDtMIDI5MzggMjA5NCAmIzEwO1EgMjkzOCAyNTkxIDI3NDQgMjgzNyAmIzEwO1EgMjU1MCAzMDg0IDIxNjMgMzA4NCAmIzEwO1EgMTY5NyAzMDg0IDE0MjggMjc4NyAmIzEwO1EgMTE1OSAyNDkxIDExNTkgMTk3OCAmIzEwO0wgMTE1OSAwICYjMTA7TCA1ODEgMCAmIzEwO0wgNTgxIDQ4NjMgJiMxMDtMIDExNTkgNDg2MyAmIzEwO0wgMTE1OSAyOTU2ICYjMTA7USAxMzY2IDMyNzIgMTY0NSAzNDI4ICYjMTA7USAxOTI1IDM1ODQgMjI5MSAzNTg0ICYjMTA7USAyODk0IDM1ODQgMzIwMyAzMjExICYjMTA7USAzNTEzIDI4MzggMzUxMyAyMTEzICYjMTA7eiIgaWQ9IkRlamFWdVNhbnMtNjgiLz4KICAgICA8L2RlZnM+CiAgICAgPHVzZSB4bGluazpocmVmPSIjRGVqYVZ1U2Fucy00NSIvPgogICAgIDx1c2UgeD0iNjMuMTgzNTk0IiB4bGluazpocmVmPSIjRGVqYVZ1U2Fucy02NiIvPgogICAgIDx1c2UgeD0iOTguMzg4NjcyIiB4bGluazpocmVmPSIjRGVqYVZ1U2Fucy02NiIvPgogICAgIDx1c2UgeD0iMTMzLjU5Mzc1IiB4bGluazpocmVmPSIjRGVqYVZ1U2Fucy02NSIvPgogICAgIDx1c2UgeD0iMTk1LjExNzE4OCIgeGxpbms6aHJlZj0iI0RlamFWdVNhbnMtNjMiLz4KICAgICA8dXNlIHg9IjI1MC4wOTc2NTYiIHhsaW5rOmhyZWY9IiNEZWphVnVTYW5zLTc0Ii8+CiAgICAgPHVzZSB4PSIyODkuMzA2NjQxIiB4bGluazpocmVmPSIjRGVqYVZ1U2Fucy0yMCIvPgogICAgIDx1c2UgeD0iMzIxLjA5Mzc1IiB4bGluazpocmVmPSIjRGVqYVZ1U2Fucy02ZiIvPgogICAgIDx1c2UgeD0iMzgyLjI3NTM5MSIgeGxpbms6aHJlZj0iI0RlamFWdVNhbnMtNjYiLz4KICAgICA8dXNlIHg9IjQxNy40ODA0NjkiIHhsaW5rOmhyZWY9IiNEZWphVnVTYW5zLTIwIi8+CiAgICAgPHVzZSB4PSI0NDkuMjY3NTc4IiB4bGluazpocmVmPSIjRGVqYVZ1U2Fucy02NCIvPgogICAgIDx1c2UgeD0iNTEyLjc0NDE0MSIgeGxpbms6aHJlZj0iI0RlamFWdVNhbnMtNjkiLz4KICAgICA8dXNlIHg9IjU0MC41MjczNDQiIHhsaW5rOmhyZWY9IiNEZWphVnVTYW5zLTczIi8+CiAgICAgPHVzZSB4PSI1OTIuNjI2OTUzIiB4bGluazpocmVmPSIjRGVqYVZ1U2Fucy02NSIvPgogICAgIDx1c2UgeD0iNjU0LjE1MDM5MSIgeGxpbms6aHJlZj0iI0RlamFWdVNhbnMtNjEiLz4KICAgICA8dXNlIHg9IjcxNS40Mjk2ODgiIHhsaW5rOmhyZWY9IiNEZWphVnVTYW5zLTczIi8+CiAgICAgPHVzZSB4PSI3NjcuNTI5Mjk3IiB4bGluazpocmVmPSIjRGVqYVZ1U2Fucy02NSIvPgogICAgIDx1c2UgeD0iODI5LjA1MjczNCIgeGxpbms6aHJlZj0iI0RlamFWdVNhbnMtMjAiLz4KICAgICA8dXNlIHg9Ijg2MC44Mzk4NDQiIHhsaW5rOmhyZWY9IiNEZWphVnVTYW5zLTZmIi8+CiAgICAgPHVzZSB4PSI5MjIuMDIxNDg0IiB4bGluazpocmVmPSIjRGVqYVZ1U2Fucy02ZSIvPgogICAgIDx1c2UgeD0iOTg1LjQwMDM5MSIgeGxpbms6aHJlZj0iI0RlamFWdVNhbnMtMjAiLz4KICAgICA8dXNlIHg9IjEwMTcuMTg3NSIgeGxpbms6aHJlZj0iI0RlamFWdVNhbnMtNTkiLz4KICAgICA8dXNlIHg9IjEwNzguMjcxNDg0IiB4bGluazpocmVmPSIjRGVqYVZ1U2Fucy0yMCIvPgogICAgIDx1c2UgeD0iMTExMC4wNTg1OTQiIHhsaW5rOmhyZWY9IiNEZWphVnVTYW5zLTc3Ii8+CiAgICAgPHVzZSB4PSIxMTkxLjg0NTcwMyIgeGxpbms6aHJlZj0iI0RlamFWdVNhbnMtNjgiLz4KICAgICA8dXNlIHg9IjEyNTUuMjI0NjA5IiB4bGluazpocmVmPSIjRGVqYVZ1U2Fucy02NSIvPgogICAgIDx1c2UgeD0iMTMxNi43NDgwNDciIHhsaW5rOmhyZWY9IiNEZWphVnVTYW5zLTZlIi8+CiAgICA8L2c+CiAgICAKICAgIDxnIHRyYW5zZm9ybT0idHJhbnNsYXRlKDE3Ny44OTI1IDM1LjQ3Mikgc2NhbGUoMC4xMiAtMC4xMikiPgogICAgIDxkZWZzPgogICAgICA8cGF0aCB0cmFuc2Zvcm09InNjYWxlKDAuMDE1NjI1KSIgZD0iTSAyMTg4IDQwNDQgJiMxMDtMIDEzMzEgMTcyMiAmIzEwO0wgMzA0NyAxNzIyICYjMTA7TCAyMTg4IDQwNDQgJiMxMDt6JiMxMDtNIDE4MzEgNDY2NiAmIzEwO0wgMjU0NyA0NjY2ICYjMTA7TCA0MzI1IDAgJiMxMDtMIDM2NjkgMCAmIzEwO0wgMzI0NCAxMTk3ICYjMTA7TCAxMTQxIDExOTcgJiMxMDtMIDcxNiAwICYjMTA7TCA1MCAwICYjMTA7TCAxODMxIDQ2NjYgJiMxMDt6IiBpZD0iRGVqYVZ1U2Fucy00MSIvPgogICAgICA8cGF0aCB0cmFuc2Zvcm09InNjYWxlKDAuMDE1NjI1KSIgZD0iTSAyOTA2IDE3OTEgJiMxMDtRIDI5MDYgMjQxNiAyNjQ4IDI3NTkgJiMxMDtRIDIzOTEgMzEwMyAxOTI1IDMxMDMgJiMxMDtRIDE0NjMgMzEwMyAxMjA1IDI3NTkgJiMxMDtRIDk0NyAyNDE2IDk0NyAxNzkxICYjMTA7USA5NDcgMTE2OSAxMjA1IDgyNSAmIzEwO1EgMTQ2MyA0ODEgMTkyNSA0ODEgJiMxMDtRIDIzOTEgNDgxIDI2NDggODI1ICYjMTA7USAyOTA2IDExNjkgMjkwNiAxNzkxICYjMTA7eiYjMTA7TSAzNDgxIDQzNCAmIzEwO1EgMzQ4MSAtNDU5IDMwODQgLTg5NSAmIzEwO1EgMjY4OCAtMTMzMSAxODY5IC0xMzMxICYjMTA7USAxNTY2IC0xMzMxIDEyOTcgLTEyODYgJiMxMDtRIDEwMjggLTEyNDEgNzc1IC0xMTQ3ICYjMTA7TCA3NzUgLTU4OCAmIzEwO1EgMTAyOCAtNzI1IDEyNzUgLTc5MCAmIzEwO1EgMTUyMiAtODU2IDE3NzggLTg1NiAmIzEwO1EgMjM0NCAtODU2IDI2MjUgLTU2MSAmIzEwO1EgMjkwNiAtMjY2IDI5MDYgMzMxICYjMTA7TCAyOTA2IDYxNiAmIzEwO1EgMjcyOCAzMDYgMjQ1MCAxNTMgJiMxMDtRIDIxNzIgMCAxNzg0IDAgJiMxMDtRIDExNDEgMCA3NDcgNDkwICYjMTA7USAzNTMgOTgxIDM1MyAxNzkxICYjMTA7USAzNTMgMjYwMyA3NDcgMzA5MyAmIzEwO1EgMTE0MSAzNTg0IDE3ODQgMzU4NCAmIzEwO1EgMjE3MiAzNTg0IDI0NTAgMzQzMSAmIzEwO1EgMjcyOCAzMjc4IDI5MDYgMjk2OSAmIzEwO0wgMjkwNiAzNTAwICYjMTA7TCAzNDgxIDM1MDAgJiMxMDtMIDM0ODEgNDM0ICYjMTA7eiIgaWQ9IkRlamFWdVNhbnMtNjciLz4KICAgICAgPHBhdGggdHJhbnNmb3JtPSJzY2FsZSgwLjAxNTYyNSkiIGQ9Ik0gNjc4IDMxNTAgJiMxMDtMIDY3OCAzNzE5ICYjMTA7TCA0Njg0IDIyNjYgJiMxMDtMIDQ2ODQgMTc0NyAmIzEwO0wgNjc4IDI5NCAmIzEwO0wgNjc4IDg2MyAmIzEwO0wgMzg5NyAyMDAzICYjMTA7TCA2NzggMzE1MCAmIzEwO3oiIGlkPSJEZWphVnVTYW5zLTNlIi8+CiAgICAgIDxwYXRoIHRyYW5zZm9ybT0ic2NhbGUoMC4wMTU2MjUpIiBkPSJNIDY5MSA0NjY2ICYjMTA7TCAzMTY5IDQ2NjYgJiMxMDtMIDMxNjkgNDEzNCAmIzEwO0wgMTI2OSA0MTM0ICYjMTA7TCAxMjY5IDI5OTEgJiMxMDtRIDE0MDYgMzAzOCAxNTQzIDMwNjEgJiMxMDtRIDE2ODEgMzA4NCAxODE5IDMwODQgJiMxMDtRIDI2MDAgMzA4NCAzMDU2IDI2NTYgJiMxMDtRIDM1MTMgMjIyOCAzNTEzIDE0OTcgJiMxMDtRIDM1MTMgNzQ0IDMwNDQgMzI2ICYjMTA7USAyNTc1IC05MSAxNzIyIC05MSAmIzEwO1EgMTQyOCAtOTEgMTEyMyAtNDEgJiMxMDtRIDgxOSA5IDQ5NCAxMDkgJiMxMDtMIDQ5NCA3NDQgJiMxMDtRIDc3NSA1OTEgMTA3NSA1MTYgJiMxMDtRIDEzNzUgNDQxIDE3MDkgNDQxICYjMTA7USAyMjUwIDQ0MSAyNTY1IDcyNSAmIzEwO1EgMjg4MSAxMDA5IDI4ODEgMTQ5NyAmIzEwO1EgMjg4MSAxOTg0IDI1NjUgMjI2OCAmIzEwO1EgMjI1MCAyNTUzIDE3MDkgMjU1MyAmIzEwO1EgMTQ1NiAyNTUzIDEyMDQgMjQ5NyAmIzEwO1EgOTUzIDI0NDEgNjkxIDIzMjIgJiMxMDtMIDY5MSA0NjY2ICYjMTA7eiIgaWQ9IkRlamFWdVNhbnMtMzUiLz4KICAgICAgPHBhdGggdHJhbnNmb3JtPSJzY2FsZSgwLjAxNTYyNSkiIGQ9Ik0gMTU1NiAyNTA5ICYjMTA7USAxMjcyIDIyNTYgMTEzOSAyMDA0ICYjMTA7USAxMDA2IDE3NTMgMTAwNiAxNDc4ICYjMTA7USAxMDA2IDEwMjIgMTMzNyA3MTkgJiMxMDtRIDE2NjkgNDE2IDIxNjkgNDE2ICYjMTA7USAyNDY2IDQxNiAyNzI1IDUxNCAmIzEwO1EgMjk4NCA2MTMgMzIxMyA4MTMgJiMxMDtMIDE1NTYgMjUwOSAmIzEwO3omIzEwO00gMTk5NyAyODU5ICYjMTA7TCAzNTg0IDEyMzQgJiMxMDtRIDM3NjkgMTUxMyAzODcyIDE4MzAgJiMxMDtRIDM5NzUgMjE0NyAzOTk0IDI1MDMgJiMxMDtMIDQ1NzUgMjUwMyAmIzEwO1EgNDUzOCAyMDkxIDQzNzUgMTY4NyAmIzEwO1EgNDIxMyAxMjg0IDM5MjIgODkxICYjMTA7TCA0Nzk0IDAgJiMxMDtMIDQwMDYgMCAmIzEwO0wgMzU1OSA0NTkgJiMxMDtRIDMyMzQgMTgxIDI4NzggNDUgJiMxMDtRIDI1MjIgLTkxIDIxMTMgLTkxICYjMTA7USAxMzU5IC05MSA4ODEgMzM5ICYjMTA7USA0MDMgNzY5IDQwMyAxNDQxICYjMTA7USA0MDMgMTg0MSA2MTIgMjE5MiAmIzEwO1EgODIyIDI1NDQgMTI0MSAyODUzICYjMTA7USAxMDkxIDMwNTAgMTAxMiAzMjQ1ICYjMTA7USA5MzQgMzQ0MSA5MzQgMzYyOCAmIzEwO1EgOTM0IDQxMzQgMTI4MSA0NDQyICYjMTA7USAxNjI4IDQ3NTAgMjIwMyA0NzUwICYjMTA7USAyNDYzIDQ3NTAgMjcyMCA0Njk0ICYjMTA7USAyOTc4IDQ2MzggMzI0NCA0NTI1ICYjMTA7TCAzMjQ0IDM5NTYgJiMxMDtRIDI5NzIgNDEwMyAyNzI1IDQxNzkgJiMxMDtRIDI0NzggNDI1NiAyMjY2IDQyNTYgJiMxMDtRIDE5MzggNDI1NiAxNzMzIDQwODIgJiMxMDtRIDE1MjggMzkwOSAxNTI4IDM2MzQgJiMxMDtRIDE1MjggMzQ3NSAxNjIwIDMzMTQgJiMxMDtRIDE3MTMgMzE1MyAxOTk3IDI4NTkgJiMxMDt6IiBpZD0iRGVqYVZ1U2Fucy0yNiIvPgogICAgICA8cGF0aCB0cmFuc2Zvcm09InNjYWxlKDAuMDE1NjI1KSIgZD0iTSA2MjggNDY2NiAmIzEwO0wgMzMwOSA0NjY2ICYjMTA7TCAzMzA5IDQxMzQgJiMxMDtMIDEyNTkgNDEzNCAmIzEwO0wgMTI1OSAyNzU5ICYjMTA7TCAzMTA5IDI3NTkgJiMxMDtMIDMxMDkgMjIyOCAmIzEwO0wgMTI1OSAyMjI4ICYjMTA7TCAxMjU5IDAgJiMxMDtMIDYyOCAwICYjMTA7TCA2MjggNDY2NiAmIzEwO3oiIGlkPSJEZWphVnVTYW5zLTQ2Ii8+CiAgICAgIDxwYXRoIHRyYW5zZm9ybT0ic2NhbGUoMC4wMTU2MjUpIiBkPSJNIDMzMjggMjgyOCAmIzEwO1EgMzU0NCAzMjE2IDM4NDQgMzQwMCAmIzEwO1EgNDE0NCAzNTg0IDQ1NTAgMzU4NCAmIzEwO1EgNTA5NyAzNTg0IDUzOTQgMzIwMSAmIzEwO1EgNTY5MSAyODE5IDU2OTEgMjExMyAmIzEwO0wgNTY5MSAwICYjMTA7TCA1MTEzIDAgJiMxMDtMIDUxMTMgMjA5NCAmIzEwO1EgNTExMyAyNTk3IDQ5MzQgMjg0MCAmIzEwO1EgNDc1NiAzMDg0IDQzOTEgMzA4NCAmIzEwO1EgMzk0NCAzMDg0IDM2ODQgMjc4NyAmIzEwO1EgMzQyNSAyNDkxIDM0MjUgMTk3OCAmIzEwO0wgMzQyNSAwICYjMTA7TCAyODQ3IDAgJiMxMDtMIDI4NDcgMjA5NCAmIzEwO1EgMjg0NyAyNjAwIDI2NjkgMjg0MiAmIzEwO1EgMjQ5MSAzMDg0IDIxMTkgMzA4NCAmIzEwO1EgMTY3OCAzMDg0IDE0MTggMjc4NiAmIzEwO1EgMTE1OSAyNDg4IDExNTkgMTk3OCAmIzEwO0wgMTE1OSAwICYjMTA7TCA1ODEgMCAmIzEwO0wgNTgxIDM1MDAgJiMxMDtMIDExNTkgMzUwMCAmIzEwO0wgMTE1OSAyOTU2ICYjMTA7USAxMzU2IDMyNzggMTYzMSAzNDMxICYjMTA7USAxOTA2IDM1ODQgMjI4NCAzNTg0ICYjMTA7USAyNjY2IDM1ODQgMjkzMyAzMzkwICYjMTA7USAzMjAwIDMxOTcgMzMyOCAyODI4ICYjMTA7eiIgaWQ9IkRlamFWdVNhbnMtNmQiLz4KICAgICAgPHBhdGggdHJhbnNmb3JtPSJzY2FsZSgwLjAxNTYyNSkiIGQ9Ik0gNjAzIDQ4NjMgJiMxMDtMIDExNzggNDg2MyAmIzEwO0wgMTE3OCAwICYjMTA7TCA2MDMgMCAmIzEwO0wgNjAzIDQ4NjMgJiMxMDt6IiBpZD0iRGVqYVZ1U2Fucy02YyIvPgogICAgIDwvZGVmcz4KICAgICA8dXNlIHhsaW5rOmhyZWY9IiNEZWphVnVTYW5zLTQxIi8+CiAgICAgPHVzZSB4PSI2OC40MDgyMDMiIHhsaW5rOmhyZWY9IiNEZWphVnVTYW5zLTY3Ii8+CiAgICAgPHVzZSB4PSIxMzEuODg0NzY2IiB4bGluazpocmVmPSIjRGVqYVZ1U2Fucy02NSIvPgogICAgIDx1c2UgeD0iMTkzLjQwODIwMyIgeGxpbms6aHJlZj0iI0RlamFWdVNhbnMtMjAiLz4KICAgICA8dXNlIHg9IjIyNS4xOTUzMTIiIHhsaW5rOmhyZWY9IiNEZWphVnVTYW5zLTNlIi8+CiAgICAgPHVzZSB4PSIzMDguOTg0Mzc1IiB4bGluazpocmVmPSIjRGVqYVZ1U2Fucy0yMCIvPgogICAgIDx1c2UgeD0iMzQwLjc3MTQ4NCIgeGxpbms6aHJlZj0iI0RlamFWdVNhbnMtMzUiLz4KICAgICA8dXNlIHg9IjQwNC4zOTQ1MzEiIHhsaW5rOmhyZWY9IiNEZWphVnVTYW5zLTMwIi8+CiAgICAgPHVzZSB4PSI0NjguMDE3NTc4IiB4bGluazpocmVmPSIjRGVqYVZ1U2Fucy0yMCIvPgogICAgIDx1c2UgeD0iNDk5LjgwNDY4OCIgeGxpbms6aHJlZj0iI0RlamFWdVNhbnMtMjYiLz4KICAgICA8dXNlIHg9IjU3Ny43ODMyMDMiIHhsaW5rOmhyZWY9IiNEZWphVnVTYW5zLTIwIi8+CiAgICAgPHVzZSB4PSI2MDkuNTcwMzEyIiB4bGluazpocmVmPSIjRGVqYVZ1U2Fucy00NiIvPgogICAgIDx1c2UgeD0iNjYxLjU4OTg0NCIgeGxpbms6aHJlZj0iI0RlamFWdVNhbnMtNjUiLz4KICAgICA8dXNlIHg9IjcyMy4xMTMyODEiIHhsaW5rOmhyZWY9IiNEZWphVnVTYW5zLTZkIi8+CiAgICAgPHVzZSB4PSI4MjAuNTI1MzkxIiB4bGluazpocmVmPSIjRGVqYVZ1U2Fucy02MSIvPgogICAgIDx1c2UgeD0iODgxLjgwNDY4OCIgeGxpbms6aHJlZj0iI0RlamFWdVNhbnMtNmMiLz4KICAgICA8dXNlIHg9IjkwOS41ODc4OTEiIHhsaW5rOmhyZWY9IiNEZWphVnVTYW5zLTY1Ii8+CiAgICA8L2c+CiAgIDwvZz4KICA8L2c+CiA8L2c+CiA8ZGVmcz4KICA8Y2xpcFBhdGggaWQ9InA4ODg5NDFhNmMxIj4KICAgPHJlY3QgaGVpZ2h0PSIyNjYuMTEyIiB3aWR0aD0iMzU3LjEyIiB5PSI0MS40NzIiIHg9IjU3LjYiLz4KICA8L2NsaXBQYXRoPgogPC9kZWZzPgo8L3N2Zz4=;" vertex="1" parent="1">
                    <mxGeometry x="130.54" y="360" width="346.42" height="260" as="geometry"/>
                </mxCell>
                <mxCell id="20" value="" style="shape=image;verticalLabelPosition=bottom;labelBackgroundColor=default;verticalAlign=top;aspect=fixed;imageAspect=0;image=data:image/svg+xml,PHN2ZyB4bWxucz0iaHR0cDovL3d3dy53My5vcmcvMjAwMC9zdmciIHhtbG5zOnhsaW5rPSJodHRwOi8vd3d3LnczLm9yZy8xOTk5L3hsaW5rIiB2ZXJzaW9uPSIxLjEiIHZpZXdCb3g9IjAgMCA0NjAuOCAzNDUuNiIgaGVpZ2h0PSIzNDUuNnB0IiB3aWR0aD0iNDYwLjhwdCI+CiA8bWV0YWRhdGE+CiAgCiAgIAogICAgCiAgICAyMDI1LTA1LTAzVDE1OjQxOjQyLjIwMTY4OAogICAgaW1hZ2Uvc3ZnK3htbAogICAgCiAgICAgCiAgICAgIE1hdHBsb3RsaWIgdjMuOS4xLnBvc3QxLCBodHRwczovL21hdHBsb3RsaWIub3JnLwogICAgIAogICAgCiAgIAogIAogPC9tZXRhZGF0YT4KIDxkZWZzPgogIDxzdHlsZSB0eXBlPSJ0ZXh0L2NzcyI+KntzdHJva2UtbGluZWpvaW46IHJvdW5kOyBzdHJva2UtbGluZWNhcDogYnV0dH08L3N0eWxlPgogPC9kZWZzPgogPGcgaWQ9ImZpZ3VyZV8xIj4KICA8ZyBpZD0icGF0Y2hfMSI+CiAgIDxwYXRoIHN0eWxlPSJmaWxsOiBub25lIiBkPSJNIDAgMzQ1LjYgJiMxMDtMIDQ2MC44IDM0NS42ICYjMTA7TCA0NjAuOCAwICYjMTA7TCAwIDAgJiMxMDtMIDAgMzQ1LjYgJiMxMDt6Ii8+CiAgPC9nPgogIDxnIGlkPSJheGVzXzEiPgogICA8ZyBpZD0icGF0Y2hfMiI+CiAgICA8cGF0aCBzdHlsZT0iZmlsbDogbm9uZSIgZD0iTSA1Ny42IDMwNy41ODQgJiMxMDtMIDQxNC43MiAzMDcuNTg0ICYjMTA7TCA0MTQuNzIgNDEuNDcyICYjMTA7TCA1Ny42IDQxLjQ3MiAmIzEwO0wgNTcuNiAzMDcuNTg0ICYjMTA7eiIvPgogICA8L2c+CiAgIDxnIGlkPSJtYXRwbG90bGliLmF4aXNfMSI+CiAgICA8ZyBpZD0ieHRpY2tfMSI+CiAgICAgPGcgaWQ9ImxpbmUyZF8xIj4KICAgICAgPGRlZnM+CiAgICAgICA8cGF0aCBzdHlsZT0ic3Ryb2tlOiAjMDAwMDAwOyBzdHJva2Utd2lkdGg6IDAuOCIgZD0iTSAwIDAgJiMxMDtMIDAgMy41IiBpZD0ibWQ4YzE0ZDMyZjIiLz4KICAgICAgPC9kZWZzPgogICAgICA8Zz4KICAgICAgIDx1c2Ugc3R5bGU9InN0cm9rZTogIzAwMDAwMDsgc3Ryb2tlLXdpZHRoOiAwLjgiIHk9IjMwNy41ODQiIHg9IjE0Ni44OCIgeGxpbms6aHJlZj0iI21kOGMxNGQzMmYyIi8+CiAgICAgIDwvZz4KICAgICA8L2c+CiAgICAgPGcgaWQ9InRleHRfMSI+CiAgICAgIAogICAgICA8ZyB0cmFuc2Zvcm09InRyYW5zbGF0ZSgxMjcuMjE0Mzc1IDMyMi4xODI0MzcpIHNjYWxlKDAuMSAtMC4xKSI+CiAgICAgICA8ZGVmcz4KICAgICAgICA8cGF0aCB0cmFuc2Zvcm09InNjYWxlKDAuMDE1NjI1KSIgZD0iTSAxMjU5IDQxNDcgJiMxMDtMIDEyNTkgNTE5ICYjMTA7TCAyMDIyIDUxOSAmIzEwO1EgMjk4OCA1MTkgMzQzNiA5NTYgJiMxMDtRIDM4ODQgMTM5NCAzODg0IDIzMzggJiMxMDtRIDM4ODQgMzI3NSAzNDM2IDM3MTEgJiMxMDtRIDI5ODggNDE0NyAyMDIyIDQxNDcgJiMxMDtMIDEyNTkgNDE0NyAmIzEwO3omIzEwO00gNjI4IDQ2NjYgJiMxMDtMIDE5MjUgNDY2NiAmIzEwO1EgMzI4MSA0NjY2IDM5MTUgNDEwMiAmIzEwO1EgNDU1MCAzNTM4IDQ1NTAgMjMzOCAmIzEwO1EgNDU1MCAxMTMxIDM5MTIgNTY1ICYjMTA7USAzMjc1IDAgMTkyNSAwICYjMTA7TCA2MjggMCAmIzEwO0wgNjI4IDQ2NjYgJiMxMDt6IiBpZD0iRGVqYVZ1U2Fucy00NCIvPgogICAgICAgIDxwYXRoIHRyYW5zZm9ybT0ic2NhbGUoMC4wMTU2MjUpIiBkPSJNIDYwMyAzNTAwICYjMTA7TCAxMTc4IDM1MDAgJiMxMDtMIDExNzggMCAmIzEwO0wgNjAzIDAgJiMxMDtMIDYwMyAzNTAwICYjMTA7eiYjMTA7TSA2MDMgNDg2MyAmIzEwO0wgMTE3OCA0ODYzICYjMTA7TCAxMTc4IDQxMzQgJiMxMDtMIDYwMyA0MTM0ICYjMTA7TCA2MDMgNDg2MyAmIzEwO3oiIGlkPSJEZWphVnVTYW5zLTY5Ii8+CiAgICAgICAgPHBhdGggdHJhbnNmb3JtPSJzY2FsZSgwLjAxNTYyNSkiIGQ9Ik0gMjgzNCAzMzk3ICYjMTA7TCAyODM0IDI4NTMgJiMxMDtRIDI1OTEgMjk3OCAyMzI4IDMwNDAgJiMxMDtRIDIwNjYgMzEwMyAxNzg0IDMxMDMgJiMxMDtRIDEzNTYgMzEwMyAxMTQyIDI5NzIgJiMxMDtRIDkyOCAyODQxIDkyOCAyNTc4ICYjMTA7USA5MjggMjM3OCAxMDgxIDIyNjQgJiMxMDtRIDEyMzQgMjE1MCAxNjk3IDIwNDcgJiMxMDtMIDE4OTQgMjAwMyAmIzEwO1EgMjUwNiAxODcyIDI3NjQgMTYzMyAmIzEwO1EgMzAyMiAxMzk0IDMwMjIgOTY2ICYjMTA7USAzMDIyIDQ3OCAyNjM2IDE5MyAmIzEwO1EgMjI1MCAtOTEgMTU3NSAtOTEgJiMxMDtRIDEyOTQgLTkxIDk4OSAtMzYgJiMxMDtRIDY4NCAxOSAzNDcgMTI4ICYjMTA7TCAzNDcgNzIyICYjMTA7USA2NjYgNTU2IDk3NSA0NzMgJiMxMDtRIDEyODQgMzkxIDE1ODggMzkxICYjMTA7USAxOTk0IDM5MSAyMjEyIDUzMCAmIzEwO1EgMjQzMSA2NjkgMjQzMSA5MjIgJiMxMDtRIDI0MzEgMTE1NiAyMjczIDEyODEgJiMxMDtRIDIxMTYgMTQwNiAxNTgxIDE1MjIgJiMxMDtMIDEzODEgMTU2OSAmIzEwO1EgODQ3IDE2ODEgNjA5IDE5MTQgJiMxMDtRIDM3MiAyMTQ3IDM3MiAyNTUzICYjMTA7USAzNzIgMzA0NyA3MjIgMzMxNSAmIzEwO1EgMTA3MiAzNTg0IDE3MTYgMzU4NCAmIzEwO1EgMjAzNCAzNTg0IDIzMTUgMzUzNyAmIzEwO1EgMjU5NyAzNDkxIDI4MzQgMzM5NyAmIzEwO3oiIGlkPSJEZWphVnVTYW5zLTczIi8+CiAgICAgICAgPHBhdGggdHJhbnNmb3JtPSJzY2FsZSgwLjAxNTYyNSkiIGQ9Ik0gMzU5NyAxODk0ICYjMTA7TCAzNTk3IDE2MTMgJiMxMDtMIDk1MyAxNjEzICYjMTA7USA5OTEgMTAxOSAxMzExIDcwOCAmIzEwO1EgMTYzMSAzOTcgMjIwMyAzOTcgJiMxMDtRIDI1MzQgMzk3IDI4NDUgNDc4ICYjMTA7USAzMTU2IDU1OSAzNDYzIDcyMiAmIzEwO0wgMzQ2MyAxNzggJiMxMDtRIDMxNTMgNDcgMjgyOCAtMjIgJiMxMDtRIDI1MDMgLTkxIDIxNjkgLTkxICYjMTA7USAxMzMxIC05MSA4NDIgMzk2ICYjMTA7USAzNTMgODg0IDM1MyAxNzE2ICYjMTA7USAzNTMgMjU3NSA4MTcgMzA3OSAmIzEwO1EgMTI4MSAzNTg0IDIwNjkgMzU4NCAmIzEwO1EgMjc3NSAzNTg0IDMxODYgMzEyOSAmIzEwO1EgMzU5NyAyNjc1IDM1OTcgMTg5NCAmIzEwO3omIzEwO00gMzAyMiAyMDYzICYjMTA7USAzMDE2IDI1MzQgMjc1OCAyODE1ICYjMTA7USAyNTAwIDMwOTcgMjA3NSAzMDk3ICYjMTA7USAxNTk0IDMwOTcgMTMwNSAyODI1ICYjMTA7USAxMDE2IDI1NTMgOTcyIDIwNTkgJiMxMDtMIDMwMjIgMjA2MyAmIzEwO3oiIGlkPSJEZWphVnVTYW5zLTY1Ii8+CiAgICAgICAgPHBhdGggdHJhbnNmb3JtPSJzY2FsZSgwLjAxNTYyNSkiIGQ9Ik0gMjE5NCAxNzU5ICYjMTA7USAxNDk3IDE3NTkgMTIyOCAxNjAwICYjMTA7USA5NTkgMTQ0MSA5NTkgMTA1NiAmIzEwO1EgOTU5IDc1MCAxMTYxIDU3MCAmIzEwO1EgMTM2MyAzOTEgMTcwOSAzOTEgJiMxMDtRIDIxODggMzkxIDI0NzcgNzMwICYjMTA7USAyNzY2IDEwNjkgMjc2NiAxNjMxICYjMTA7TCAyNzY2IDE3NTkgJiMxMDtMIDIxOTQgMTc1OSAmIzEwO3omIzEwO00gMzM0MSAxOTk3ICYjMTA7TCAzMzQxIDAgJiMxMDtMIDI3NjYgMCAmIzEwO0wgMjc2NiA1MzEgJiMxMDtRIDI1NjkgMjEzIDIyNzUgNjEgJiMxMDtRIDE5ODEgLTkxIDE1NTYgLTkxICYjMTA7USAxMDE5IC05MSA3MDEgMjExICYjMTA7USAzODQgNTEzIDM4NCAxMDE5ICYjMTA7USAzODQgMTYwOSA3NzkgMTkwOSAmIzEwO1EgMTE3NSAyMjA5IDE5NTkgMjIwOSAmIzEwO0wgMjc2NiAyMjA5ICYjMTA7TCAyNzY2IDIyNjYgJiMxMDtRIDI3NjYgMjY2MyAyNTA1IDI4ODAgJiMxMDtRIDIyNDQgMzA5NyAxNzcyIDMwOTcgJiMxMDtRIDE0NzIgMzA5NyAxMTg3IDMwMjUgJiMxMDtRIDkwMyAyOTUzIDY0MSAyODA5ICYjMTA7TCA2NDEgMzM0MSAmIzEwO1EgOTU2IDM0NjMgMTI1MyAzNTIzICYjMTA7USAxNTUwIDM1ODQgMTgzMSAzNTg0ICYjMTA7USAyNTkxIDM1ODQgMjk2NiAzMTkwICYjMTA7USAzMzQxIDI3OTcgMzM0MSAxOTk3ICYjMTA7eiIgaWQ9IkRlamFWdVNhbnMtNjEiLz4KICAgICAgIDwvZGVmcz4KICAgICAgIDx1c2UgeGxpbms6aHJlZj0iI0RlamFWdVNhbnMtNDQiLz4KICAgICAgIDx1c2UgeD0iNzcuMDAxOTUzIiB4bGluazpocmVmPSIjRGVqYVZ1U2Fucy02OSIvPgogICAgICAgPHVzZSB4PSIxMDQuNzg1MTU2IiB4bGluazpocmVmPSIjRGVqYVZ1U2Fucy03MyIvPgogICAgICAgPHVzZSB4PSIxNTYuODg0NzY2IiB4bGluazpocmVmPSIjRGVqYVZ1U2Fucy02NSIvPgogICAgICAgPHVzZSB4PSIyMTguNDA4MjAzIiB4bGluazpocmVmPSIjRGVqYVZ1U2Fucy02MSIvPgogICAgICAgPHVzZSB4PSIyNzkuNjg3NSIgeGxpbms6aHJlZj0iI0RlamFWdVNhbnMtNzMiLz4KICAgICAgIDx1c2UgeD0iMzMxLjc4NzEwOSIgeGxpbms6aHJlZj0iI0RlamFWdVNhbnMtNjUiLz4KICAgICAgPC9nPgogICAgIDwvZz4KICAgIDwvZz4KICAgIDxnIGlkPSJ4dGlja18yIj4KICAgICA8ZyBpZD0ibGluZTJkXzIiPgogICAgICA8Zz4KICAgICAgIDx1c2Ugc3R5bGU9InN0cm9rZTogIzAwMDAwMDsgc3Ryb2tlLXdpZHRoOiAwLjgiIHk9IjMwNy41ODQiIHg9IjMyNS40NCIgeGxpbms6aHJlZj0iI21kOGMxNGQzMmYyIi8+CiAgICAgIDwvZz4KICAgICA8L2c+CiAgICAgPGcgaWQ9InRleHRfMiI+CiAgICAgIAogICAgICA8ZyB0cmFuc2Zvcm09InRyYW5zbGF0ZSgyOTcuMzg1MzEyIDMyMi4xODI0MzcpIHNjYWxlKDAuMSAtMC4xKSI+CiAgICAgICA8ZGVmcz4KICAgICAgICA8cGF0aCB0cmFuc2Zvcm09InNjYWxlKDAuMDE1NjI1KSIgZD0iTSA2MjggNDY2NiAmIzEwO0wgMTQ3OCA0NjY2ICYjMTA7TCAzNTQ3IDc2MyAmIzEwO0wgMzU0NyA0NjY2ICYjMTA7TCA0MTU5IDQ2NjYgJiMxMDtMIDQxNTkgMCAmIzEwO0wgMzMwOSAwICYjMTA7TCAxMjQxIDM5MDMgJiMxMDtMIDEyNDEgMCAmIzEwO0wgNjI4IDAgJiMxMDtMIDYyOCA0NjY2ICYjMTA7eiIgaWQ9IkRlamFWdVNhbnMtNGUiLz4KICAgICAgICA8cGF0aCB0cmFuc2Zvcm09InNjYWxlKDAuMDE1NjI1KSIgZD0iTSAxOTU5IDMwOTcgJiMxMDtRIDE0OTcgMzA5NyAxMjI4IDI3MzYgJiMxMDtRIDk1OSAyMzc1IDk1OSAxNzQ3ICYjMTA7USA5NTkgMTExOSAxMjI2IDc1OCAmIzEwO1EgMTQ5NCAzOTcgMTk1OSAzOTcgJiMxMDtRIDI0MTkgMzk3IDI2ODcgNzU5ICYjMTA7USAyOTU2IDExMjIgMjk1NiAxNzQ3ICYjMTA7USAyOTU2IDIzNjkgMjY4NyAyNzMzICYjMTA7USAyNDE5IDMwOTcgMTk1OSAzMDk3ICYjMTA7eiYjMTA7TSAxOTU5IDM1ODQgJiMxMDtRIDI3MDkgMzU4NCAzMTM3IDMwOTYgJiMxMDtRIDM1NjYgMjYwOSAzNTY2IDE3NDcgJiMxMDtRIDM1NjYgODg4IDMxMzcgMzk4ICYjMTA7USAyNzA5IC05MSAxOTU5IC05MSAmIzEwO1EgMTIwNiAtOTEgNzc5IDM5OCAmIzEwO1EgMzUzIDg4OCAzNTMgMTc0NyAmIzEwO1EgMzUzIDI2MDkgNzc5IDMwOTYgJiMxMDtRIDEyMDYgMzU4NCAxOTU5IDM1ODQgJiMxMDt6IiBpZD0iRGVqYVZ1U2Fucy02ZiIvPgogICAgICAgIDxwYXRoIHRyYW5zZm9ybT0ic2NhbGUoMC4wMTU2MjUpIiBpZD0iRGVqYVZ1U2Fucy0yMCIvPgogICAgICAgPC9kZWZzPgogICAgICAgPHVzZSB4bGluazpocmVmPSIjRGVqYVZ1U2Fucy00ZSIvPgogICAgICAgPHVzZSB4PSI3NC44MDQ2ODgiIHhsaW5rOmhyZWY9IiNEZWphVnVTYW5zLTZmIi8+CiAgICAgICA8dXNlIHg9IjEzNS45ODYzMjgiIHhsaW5rOmhyZWY9IiNEZWphVnVTYW5zLTIwIi8+CiAgICAgICA8dXNlIHg9IjE2Ny43NzM0MzgiIHhsaW5rOmhyZWY9IiNEZWphVnVTYW5zLTQ0Ii8+CiAgICAgICA8dXNlIHg9IjI0NC43NzUzOTEiIHhsaW5rOmhyZWY9IiNEZWphVnVTYW5zLTY5Ii8+CiAgICAgICA8dXNlIHg9IjI3Mi41NTg1OTQiIHhsaW5rOmhyZWY9IiNEZWphVnVTYW5zLTczIi8+CiAgICAgICA8dXNlIHg9IjMyNC42NTgyMDMiIHhsaW5rOmhyZWY9IiNEZWphVnVTYW5zLTY1Ii8+CiAgICAgICA8dXNlIHg9IjM4Ni4xODE2NDEiIHhsaW5rOmhyZWY9IiNEZWphVnVTYW5zLTYxIi8+CiAgICAgICA8dXNlIHg9IjQ0Ny40NjA5MzgiIHhsaW5rOmhyZWY9IiNEZWphVnVTYW5zLTczIi8+CiAgICAgICA8dXNlIHg9IjQ5OS41NjA1NDciIHhsaW5rOmhyZWY9IiNEZWphVnVTYW5zLTY1Ii8+CiAgICAgIDwvZz4KICAgICA8L2c+CiAgICA8L2c+CiAgICA8ZyBpZD0idGV4dF8zIj4KICAgICAKICAgICA8ZyB0cmFuc2Zvcm09InRyYW5zbGF0ZSgyMjAuOTQwNDY5IDMzNS44NjA1NjIpIHNjYWxlKDAuMSAtMC4xKSI+CiAgICAgIDxkZWZzPgogICAgICAgPHBhdGggdHJhbnNmb3JtPSJzY2FsZSgwLjAxNTYyNSkiIGQ9Ik0gMzgwOSA2NjYgJiMxMDtMIDM4MDkgMTkxOSAmIzEwO0wgMjc3OCAxOTE5ICYjMTA7TCAyNzc4IDI0MzggJiMxMDtMIDQ0MzQgMjQzOCAmIzEwO0wgNDQzNCA0MzQgJiMxMDtRIDQwNjkgMTc1IDM2MjggNDIgJiMxMDtRIDMxODggLTkxIDI2ODggLTkxICYjMTA7USAxNTk0IC05MSA5NzYgNTQ4ICYjMTA7USAzNTkgMTE4OCAzNTkgMjMyOCAmIzEwO1EgMzU5IDM0NzIgOTc2IDQxMTEgJiMxMDtRIDE1OTQgNDc1MCAyNjg4IDQ3NTAgJiMxMDtRIDMxNDQgNDc1MCAzNTU1IDQ2MzcgJiMxMDtRIDM5NjYgNDUyNSA0MzEzIDQzMDYgJiMxMDtMIDQzMTMgMzYzNCAmIzEwO1EgMzk2MyAzOTMxIDM1NjkgNDA4MSAmIzEwO1EgMzE3NSA0MjMxIDI3NDEgNDIzMSAmIzEwO1EgMTg4NCA0MjMxIDE0NTQgMzc1MyAmIzEwO1EgMTAyNSAzMjc1IDEwMjUgMjMyOCAmIzEwO1EgMTAyNSAxMzg0IDE0NTQgOTA2ICYjMTA7USAxODg0IDQyOCAyNzQxIDQyOCAmIzEwO1EgMzA3NSA0MjggMzMzNyA0ODYgJiMxMDtRIDM2MDAgNTQ0IDM4MDkgNjY2ICYjMTA7eiIgaWQ9IkRlamFWdVNhbnMtNDciLz4KICAgICAgIDxwYXRoIHRyYW5zZm9ybT0ic2NhbGUoMC4wMTU2MjUpIiBkPSJNIDI2MzEgMjk2MyAmIzEwO1EgMjUzNCAzMDE5IDI0MjAgMzA0NSAmIzEwO1EgMjMwNiAzMDcyIDIxNjkgMzA3MiAmIzEwO1EgMTY4MSAzMDcyIDE0MjAgMjc1NSAmIzEwO1EgMTE1OSAyNDM4IDExNTkgMTg0NCAmIzEwO0wgMTE1OSAwICYjMTA7TCA1ODEgMCAmIzEwO0wgNTgxIDM1MDAgJiMxMDtMIDExNTkgMzUwMCAmIzEwO0wgMTE1OSAyOTU2ICYjMTA7USAxMzQxIDMyNzUgMTYzMSAzNDI5ICYjMTA7USAxOTIyIDM1ODQgMjMzOCAzNTg0ICYjMTA7USAyMzk3IDM1ODQgMjQ2OSAzNTc2ICYjMTA7USAyNTQxIDM1NjkgMjYyOCAzNTUzICYjMTA7TCAyNjMxIDI5NjMgJiMxMDt6IiBpZD0iRGVqYVZ1U2Fucy03MiIvPgogICAgICAgPHBhdGggdHJhbnNmb3JtPSJzY2FsZSgwLjAxNTYyNSkiIGQ9Ik0gNTQ0IDEzODEgJiMxMDtMIDU0NCAzNTAwICYjMTA7TCAxMTE5IDM1MDAgJiMxMDtMIDExMTkgMTQwMyAmIzEwO1EgMTExOSA5MDYgMTMxMiA2NTcgJiMxMDtRIDE1MDYgNDA5IDE4OTQgNDA5ICYjMTA7USAyMzU5IDQwOSAyNjI5IDcwNiAmIzEwO1EgMjkwMCAxMDAzIDI5MDAgMTUxNiAmIzEwO0wgMjkwMCAzNTAwICYjMTA7TCAzNDc1IDM1MDAgJiMxMDtMIDM0NzUgMCAmIzEwO0wgMjkwMCAwICYjMTA7TCAyOTAwIDUzOCAmIzEwO1EgMjY5MSAyMTkgMjQxNCA2NCAmIzEwO1EgMjEzOCAtOTEgMTc3MiAtOTEgJiMxMDtRIDExNjkgLTkxIDg1NiAyODQgJiMxMDtRIDU0NCA2NTkgNTQ0IDEzODEgJiMxMDt6JiMxMDtNIDE5OTEgMzU4NCAmIzEwO0wgMTk5MSAzNTg0ICYjMTA7eiIgaWQ9IkRlamFWdVNhbnMtNzUiLz4KICAgICAgIDxwYXRoIHRyYW5zZm9ybT0ic2NhbGUoMC4wMTU2MjUpIiBkPSJNIDExNTkgNTI1ICYjMTA7TCAxMTU5IC0xMzMxICYjMTA7TCA1ODEgLTEzMzEgJiMxMDtMIDU4MSAzNTAwICYjMTA7TCAxMTU5IDM1MDAgJiMxMDtMIDExNTkgMjk2OSAmIzEwO1EgMTM0MSAzMjgxIDE2MTcgMzQzMiAmIzEwO1EgMTg5NCAzNTg0IDIyNzggMzU4NCAmIzEwO1EgMjkxNiAzNTg0IDMzMTQgMzA3OCAmIzEwO1EgMzcxMyAyNTcyIDM3MTMgMTc0NyAmIzEwO1EgMzcxMyA5MjIgMzMxNCA0MTUgJiMxMDtRIDI5MTYgLTkxIDIyNzggLTkxICYjMTA7USAxODk0IC05MSAxNjE3IDYxICYjMTA7USAxMzQxIDIxMyAxMTU5IDUyNSAmIzEwO3omIzEwO00gMzExNiAxNzQ3ICYjMTA7USAzMTE2IDIzODEgMjg1NSAyNzQyICYjMTA7USAyNTk0IDMxMDMgMjEzOCAzMTAzICYjMTA7USAxNjgxIDMxMDMgMTQyMCAyNzQyICYjMTA7USAxMTU5IDIzODEgMTE1OSAxNzQ3ICYjMTA7USAxMTU5IDExMTMgMTQyMCA3NTIgJiMxMDtRIDE2ODEgMzkxIDIxMzggMzkxICYjMTA7USAyNTk0IDM5MSAyODU1IDc1MiAmIzEwO1EgMzExNiAxMTEzIDMxMTYgMTc0NyAmIzEwO3oiIGlkPSJEZWphVnVTYW5zLTcwIi8+CiAgICAgIDwvZGVmcz4KICAgICAgPHVzZSB4bGluazpocmVmPSIjRGVqYVZ1U2Fucy00NyIvPgogICAgICA8dXNlIHg9Ijc3LjQ5MDIzNCIgeGxpbms6aHJlZj0iI0RlamFWdVNhbnMtNzIiLz4KICAgICAgPHVzZSB4PSIxMTYuMzUzNTE2IiB4bGluazpocmVmPSIjRGVqYVZ1U2Fucy02ZiIvPgogICAgICA8dXNlIHg9IjE3Ny41MzUxNTYiIHhsaW5rOmhyZWY9IiNEZWphVnVTYW5zLTc1Ii8+CiAgICAgIDx1c2UgeD0iMjQwLjkxNDA2MiIgeGxpbms6aHJlZj0iI0RlamFWdVNhbnMtNzAiLz4KICAgICA8L2c+CiAgICA8L2c+CiAgIDwvZz4KICAgPGcgaWQ9Im1hdHBsb3RsaWIuYXhpc18yIj4KICAgIDxnIGlkPSJ5dGlja18xIj4KICAgICA8ZyBpZD0ibGluZTJkXzMiPgogICAgICA8ZGVmcz4KICAgICAgIDxwYXRoIHN0eWxlPSJzdHJva2U6ICMwMDAwMDA7IHN0cm9rZS13aWR0aDogMC44IiBkPSJNIDAgMCAmIzEwO0wgLTMuNSAwIiBpZD0ibTE1MTBjMTczNWMiLz4KICAgICAgPC9kZWZzPgogICAgICA8Zz4KICAgICAgIDx1c2Ugc3R5bGU9InN0cm9rZTogIzAwMDAwMDsgc3Ryb2tlLXdpZHRoOiAwLjgiIHk9IjMwMS45MTc2MjUiIHg9IjU3LjYiIHhsaW5rOmhyZWY9IiNtMTUxMGMxNzM1YyIvPgogICAgICA8L2c+CiAgICAgPC9nPgogICAgIDxnIGlkPSJ0ZXh0XzQiPgogICAgICAKICAgICAgPGcgdHJhbnNmb3JtPSJ0cmFuc2xhdGUoMzUuODU3ODEzIDMwNS43MTY4NDMpIHNjYWxlKDAuMSAtMC4xKSI+CiAgICAgICA8ZGVmcz4KICAgICAgICA8cGF0aCB0cmFuc2Zvcm09InNjYWxlKDAuMDE1NjI1KSIgZD0iTSA2NzggMjI3MiAmIzEwO0wgNDY4NCAyMjcyICYjMTA7TCA0Njg0IDE3NDEgJiMxMDtMIDY3OCAxNzQxICYjMTA7TCA2NzggMjI3MiAmIzEwO3oiIGlkPSJEZWphVnVTYW5zLTIyMTIiLz4KICAgICAgICA8cGF0aCB0cmFuc2Zvcm09InNjYWxlKDAuMDE1NjI1KSIgZD0iTSAyNTk3IDI1MTYgJiMxMDtRIDMwNTAgMjQxOSAzMzA0IDIxMTIgJiMxMDtRIDM1NTkgMTgwNiAzNTU5IDEzNTYgJiMxMDtRIDM1NTkgNjY2IDMwODQgMjg3ICYjMTA7USAyNjA5IC05MSAxNzM0IC05MSAmIzEwO1EgMTQ0MSAtOTEgMTEzMCAtMzMgJiMxMDtRIDgxOSAyNSA0ODggMTQxICYjMTA7TCA0ODggNzUwICYjMTA7USA3NTAgNTk3IDEwNjIgNTE5ICYjMTA7USAxMzc1IDQ0MSAxNzE2IDQ0MSAmIzEwO1EgMjMwOSA0NDEgMjYyMCA2NzUgJiMxMDtRIDI5MzEgOTA5IDI5MzEgMTM1NiAmIzEwO1EgMjkzMSAxNzY5IDI2NDIgMjAwMSAmIzEwO1EgMjM1MyAyMjM0IDE4MzggMjIzNCAmIzEwO0wgMTI5NCAyMjM0ICYjMTA7TCAxMjk0IDI3NTMgJiMxMDtMIDE4NjMgMjc1MyAmIzEwO1EgMjMyOCAyNzUzIDI1NzUgMjkzOSAmIzEwO1EgMjgyMiAzMTI1IDI4MjIgMzQ3NSAmIzEwO1EgMjgyMiAzODM0IDI1NjcgNDAyNiAmIzEwO1EgMjMxMyA0MjE5IDE4MzggNDIxOSAmIzEwO1EgMTU3OCA0MjE5IDEyODEgNDE2MiAmIzEwO1EgOTg0IDQxMDYgNjI4IDM5ODggJiMxMDtMIDYyOCA0NTUwICYjMTA7USA5ODggNDY1MCAxMzAyIDQ3MDAgJiMxMDtRIDE2MTYgNDc1MCAxODk0IDQ3NTAgJiMxMDtRIDI2MTMgNDc1MCAzMDMxIDQ0MjMgJiMxMDtRIDM0NTAgNDA5NyAzNDUwIDM1NDEgJiMxMDtRIDM0NTAgMzE1MyAzMjI4IDI4ODYgJiMxMDtRIDMwMDYgMjYxOSAyNTk3IDI1MTYgJiMxMDt6IiBpZD0iRGVqYVZ1U2Fucy0zMyIvPgogICAgICAgPC9kZWZzPgogICAgICAgPHVzZSB4bGluazpocmVmPSIjRGVqYVZ1U2Fucy0yMjEyIi8+CiAgICAgICA8dXNlIHg9IjgzLjc4OTA2MiIgeGxpbms6aHJlZj0iI0RlamFWdVNhbnMtMzMiLz4KICAgICAgPC9nPgogICAgIDwvZz4KICAgIDwvZz4KICAgIDxnIGlkPSJ5dGlja18yIj4KICAgICA8ZyBpZD0ibGluZTJkXzQiPgogICAgICA8Zz4KICAgICAgIDx1c2Ugc3R5bGU9InN0cm9rZTogIzAwMDAwMDsgc3Ryb2tlLXdpZHRoOiAwLjgiIHk9IjI3MS41MDU1ODgiIHg9IjU3LjYiIHhsaW5rOmhyZWY9IiNtMTUxMGMxNzM1YyIvPgogICAgICA8L2c+CiAgICAgPC9nPgogICAgIDxnIGlkPSJ0ZXh0XzUiPgogICAgICAKICAgICAgPGcgdHJhbnNmb3JtPSJ0cmFuc2xhdGUoMzUuODU3ODEzIDI3NS4zMDQ4MDcpIHNjYWxlKDAuMSAtMC4xKSI+CiAgICAgICA8ZGVmcz4KICAgICAgICA8cGF0aCB0cmFuc2Zvcm09InNjYWxlKDAuMDE1NjI1KSIgZD0iTSAxMjI4IDUzMSAmIzEwO0wgMzQzMSA1MzEgJiMxMDtMIDM0MzEgMCAmIzEwO0wgNDY5IDAgJiMxMDtMIDQ2OSA1MzEgJiMxMDtRIDgyOCA5MDMgMTQ0OCAxNTI5ICYjMTA7USAyMDY5IDIxNTYgMjIyOCAyMzM4ICYjMTA7USAyNTMxIDI2NzggMjY1MSAyOTE0ICYjMTA7USAyNzcyIDMxNTAgMjc3MiAzMzc4ICYjMTA7USAyNzcyIDM3NTAgMjUxMSAzOTg0ICYjMTA7USAyMjUwIDQyMTkgMTgzMSA0MjE5ICYjMTA7USAxNTM0IDQyMTkgMTIwNCA0MTE2ICYjMTA7USA4NzUgNDAxMyA1MDAgMzgwMyAmIzEwO0wgNTAwIDQ0NDEgJiMxMDtRIDg4MSA0NTk0IDEyMTIgNDY3MiAmIzEwO1EgMTU0NCA0NzUwIDE4MTkgNDc1MCAmIzEwO1EgMjU0NCA0NzUwIDI5NzUgNDM4NyAmIzEwO1EgMzQwNiA0MDI1IDM0MDYgMzQxOSAmIzEwO1EgMzQwNiAzMTMxIDMyOTggMjg3MyAmIzEwO1EgMzE5MSAyNjE2IDI5MDYgMjI2NiAmIzEwO1EgMjgyOCAyMTc1IDI0MDkgMTc0MiAmIzEwO1EgMTk5MSAxMzA5IDEyMjggNTMxICYjMTA7eiIgaWQ9IkRlamFWdVNhbnMtMzIiLz4KICAgICAgIDwvZGVmcz4KICAgICAgIDx1c2UgeGxpbms6aHJlZj0iI0RlamFWdVNhbnMtMjIxMiIvPgogICAgICAgPHVzZSB4PSI4My43ODkwNjIiIHhsaW5rOmhyZWY9IiNEZWphVnVTYW5zLTMyIi8+CiAgICAgIDwvZz4KICAgICA8L2c+CiAgICA8L2c+CiAgICA8ZyBpZD0ieXRpY2tfMyI+CiAgICAgPGcgaWQ9ImxpbmUyZF81Ij4KICAgICAgPGc+CiAgICAgICA8dXNlIHN0eWxlPSJzdHJva2U6ICMwMDAwMDA7IHN0cm9rZS13aWR0aDogMC44IiB5PSIyNDEuMDkzNTUyIiB4PSI1Ny42IiB4bGluazpocmVmPSIjbTE1MTBjMTczNWMiLz4KICAgICAgPC9nPgogICAgIDwvZz4KICAgICA8ZyBpZD0idGV4dF82Ij4KICAgICAgCiAgICAgIDxnIHRyYW5zZm9ybT0idHJhbnNsYXRlKDM1Ljg1NzgxMyAyNDQuODkyNzcxKSBzY2FsZSgwLjEgLTAuMSkiPgogICAgICAgPGRlZnM+CiAgICAgICAgPHBhdGggdHJhbnNmb3JtPSJzY2FsZSgwLjAxNTYyNSkiIGQ9Ik0gNzk0IDUzMSAmIzEwO0wgMTgyNSA1MzEgJiMxMDtMIDE4MjUgNDA5MSAmIzEwO0wgNzAzIDM4NjYgJiMxMDtMIDcwMyA0NDQxICYjMTA7TCAxODE5IDQ2NjYgJiMxMDtMIDI0NTAgNDY2NiAmIzEwO0wgMjQ1MCA1MzEgJiMxMDtMIDM0ODEgNTMxICYjMTA7TCAzNDgxIDAgJiMxMDtMIDc5NCAwICYjMTA7TCA3OTQgNTMxICYjMTA7eiIgaWQ9IkRlamFWdVNhbnMtMzEiLz4KICAgICAgIDwvZGVmcz4KICAgICAgIDx1c2UgeGxpbms6aHJlZj0iI0RlamFWdVNhbnMtMjIxMiIvPgogICAgICAgPHVzZSB4PSI4My43ODkwNjIiIHhsaW5rOmhyZWY9IiNEZWphVnVTYW5zLTMxIi8+CiAgICAgIDwvZz4KICAgICA8L2c+CiAgICA8L2c+CiAgICA8ZyBpZD0ieXRpY2tfNCI+CiAgICAgPGcgaWQ9ImxpbmUyZF82Ij4KICAgICAgPGc+CiAgICAgICA8dXNlIHN0eWxlPSJzdHJva2U6ICMwMDAwMDA7IHN0cm9rZS13aWR0aDogMC44IiB5PSIyMTAuNjgxNTE1IiB4PSI1Ny42IiB4bGluazpocmVmPSIjbTE1MTBjMTczNWMiLz4KICAgICAgPC9nPgogICAgIDwvZz4KICAgICA8ZyBpZD0idGV4dF83Ij4KICAgICAgCiAgICAgIDxnIHRyYW5zZm9ybT0idHJhbnNsYXRlKDQ0LjIzNzUgMjE0LjQ4MDczNCkgc2NhbGUoMC4xIC0wLjEpIj4KICAgICAgIDxkZWZzPgogICAgICAgIDxwYXRoIHRyYW5zZm9ybT0ic2NhbGUoMC4wMTU2MjUpIiBkPSJNIDIwMzQgNDI1MCAmIzEwO1EgMTU0NyA0MjUwIDEzMDEgMzc3MCAmIzEwO1EgMTA1NiAzMjkxIDEwNTYgMjMyOCAmIzEwO1EgMTA1NiAxMzY5IDEzMDEgODg5ICYjMTA7USAxNTQ3IDQwOSAyMDM0IDQwOSAmIzEwO1EgMjUyNSA0MDkgMjc3MCA4ODkgJiMxMDtRIDMwMTYgMTM2OSAzMDE2IDIzMjggJiMxMDtRIDMwMTYgMzI5MSAyNzcwIDM3NzAgJiMxMDtRIDI1MjUgNDI1MCAyMDM0IDQyNTAgJiMxMDt6JiMxMDtNIDIwMzQgNDc1MCAmIzEwO1EgMjgxOSA0NzUwIDMyMzMgNDEyOSAmIzEwO1EgMzY0NyAzNTA5IDM2NDcgMjMyOCAmIzEwO1EgMzY0NyAxMTUwIDMyMzMgNTI5ICYjMTA7USAyODE5IC05MSAyMDM0IC05MSAmIzEwO1EgMTI1MCAtOTEgODM2IDUyOSAmIzEwO1EgNDIyIDExNTAgNDIyIDIzMjggJiMxMDtRIDQyMiAzNTA5IDgzNiA0MTI5ICYjMTA7USAxMjUwIDQ3NTAgMjAzNCA0NzUwICYjMTA7eiIgaWQ9IkRlamFWdVNhbnMtMzAiLz4KICAgICAgIDwvZGVmcz4KICAgICAgIDx1c2UgeGxpbms6aHJlZj0iI0RlamFWdVNhbnMtMzAiLz4KICAgICAgPC9nPgogICAgIDwvZz4KICAgIDwvZz4KICAgIDxnIGlkPSJ5dGlja181Ij4KICAgICA8ZyBpZD0ibGluZTJkXzciPgogICAgICA8Zz4KICAgICAgIDx1c2Ugc3R5bGU9InN0cm9rZTogIzAwMDAwMDsgc3Ryb2tlLXdpZHRoOiAwLjgiIHk9IjE4MC4yNjk0NzkiIHg9IjU3LjYiIHhsaW5rOmhyZWY9IiNtMTUxMGMxNzM1YyIvPgogICAgICA8L2c+CiAgICAgPC9nPgogICAgIDxnIGlkPSJ0ZXh0XzgiPgogICAgICAKICAgICAgPGcgdHJhbnNmb3JtPSJ0cmFuc2xhdGUoNDQuMjM3NSAxODQuMDY4Njk4KSBzY2FsZSgwLjEgLTAuMSkiPgogICAgICAgPHVzZSB4bGluazpocmVmPSIjRGVqYVZ1U2Fucy0zMSIvPgogICAgICA8L2c+CiAgICAgPC9nPgogICAgPC9nPgogICAgPGcgaWQ9Inl0aWNrXzYiPgogICAgIDxnIGlkPSJsaW5lMmRfOCI+CiAgICAgIDxnPgogICAgICAgPHVzZSBzdHlsZT0ic3Ryb2tlOiAjMDAwMDAwOyBzdHJva2Utd2lkdGg6IDAuOCIgeT0iMTQ5Ljg1NzQ0MiIgeD0iNTcuNiIgeGxpbms6aHJlZj0iI20xNTEwYzE3MzVjIi8+CiAgICAgIDwvZz4KICAgICA8L2c+CiAgICAgPGcgaWQ9InRleHRfOSI+CiAgICAgIAogICAgICA8ZyB0cmFuc2Zvcm09InRyYW5zbGF0ZSg0NC4yMzc1IDE1My42NTY2NjEpIHNjYWxlKDAuMSAtMC4xKSI+CiAgICAgICA8dXNlIHhsaW5rOmhyZWY9IiNEZWphVnVTYW5zLTMyIi8+CiAgICAgIDwvZz4KICAgICA8L2c+CiAgICA8L2c+CiAgICA8ZyBpZD0ieXRpY2tfNyI+CiAgICAgPGcgaWQ9ImxpbmUyZF85Ij4KICAgICAgPGc+CiAgICAgICA8dXNlIHN0eWxlPSJzdHJva2U6ICMwMDAwMDA7IHN0cm9rZS13aWR0aDogMC44IiB5PSIxMTkuNDQ1NDA2IiB4PSI1Ny42IiB4bGluazpocmVmPSIjbTE1MTBjMTczNWMiLz4KICAgICAgPC9nPgogICAgIDwvZz4KICAgICA8ZyBpZD0idGV4dF8xMCI+CiAgICAgIAogICAgICA8ZyB0cmFuc2Zvcm09InRyYW5zbGF0ZSg0NC4yMzc1IDEyMy4yNDQ2MjUpIHNjYWxlKDAuMSAtMC4xKSI+CiAgICAgICA8dXNlIHhsaW5rOmhyZWY9IiNEZWphVnVTYW5zLTMzIi8+CiAgICAgIDwvZz4KICAgICA8L2c+CiAgICA8L2c+CiAgICA8ZyBpZD0ieXRpY2tfOCI+CiAgICAgPGcgaWQ9ImxpbmUyZF8xMCI+CiAgICAgIDxnPgogICAgICAgPHVzZSBzdHlsZT0ic3Ryb2tlOiAjMDAwMDAwOyBzdHJva2Utd2lkdGg6IDAuOCIgeT0iODkuMDMzMzY5IiB4PSI1Ny42IiB4bGluazpocmVmPSIjbTE1MTBjMTczNWMiLz4KICAgICAgPC9nPgogICAgIDwvZz4KICAgICA8ZyBpZD0idGV4dF8xMSI+CiAgICAgIAogICAgICA8ZyB0cmFuc2Zvcm09InRyYW5zbGF0ZSg0NC4yMzc1IDkyLjgzMjU4OCkgc2NhbGUoMC4xIC0wLjEpIj4KICAgICAgIDxkZWZzPgogICAgICAgIDxwYXRoIHRyYW5zZm9ybT0ic2NhbGUoMC4wMTU2MjUpIiBkPSJNIDI0MTkgNDExNiAmIzEwO0wgODI1IDE2MjUgJiMxMDtMIDI0MTkgMTYyNSAmIzEwO0wgMjQxOSA0MTE2ICYjMTA7eiYjMTA7TSAyMjUzIDQ2NjYgJiMxMDtMIDMwNDcgNDY2NiAmIzEwO0wgMzA0NyAxNjI1ICYjMTA7TCAzNzEzIDE2MjUgJiMxMDtMIDM3MTMgMTEwMCAmIzEwO0wgMzA0NyAxMTAwICYjMTA7TCAzMDQ3IDAgJiMxMDtMIDI0MTkgMCAmIzEwO0wgMjQxOSAxMTAwICYjMTA7TCAzMTMgMTEwMCAmIzEwO0wgMzEzIDE3MDkgJiMxMDtMIDIyNTMgNDY2NiAmIzEwO3oiIGlkPSJEZWphVnVTYW5zLTM0Ii8+CiAgICAgICA8L2RlZnM+CiAgICAgICA8dXNlIHhsaW5rOmhyZWY9IiNEZWphVnVTYW5zLTM0Ii8+CiAgICAgIDwvZz4KICAgICA8L2c+CiAgICA8L2c+CiAgICA8ZyBpZD0ieXRpY2tfOSI+CiAgICAgPGcgaWQ9ImxpbmUyZF8xMSI+CiAgICAgIDxnPgogICAgICAgPHVzZSBzdHlsZT0ic3Ryb2tlOiAjMDAwMDAwOyBzdHJva2Utd2lkdGg6IDAuOCIgeT0iNTguNjIxMzMzIiB4PSI1Ny42IiB4bGluazpocmVmPSIjbTE1MTBjMTczNWMiLz4KICAgICAgPC9nPgogICAgIDwvZz4KICAgICA8ZyBpZD0idGV4dF8xMiI+CiAgICAgIAogICAgICA8ZyB0cmFuc2Zvcm09InRyYW5zbGF0ZSg0NC4yMzc1IDYyLjQyMDU1Mikgc2NhbGUoMC4xIC0wLjEpIj4KICAgICAgIDxkZWZzPgogICAgICAgIDxwYXRoIHRyYW5zZm9ybT0ic2NhbGUoMC4wMTU2MjUpIiBkPSJNIDY5MSA0NjY2ICYjMTA7TCAzMTY5IDQ2NjYgJiMxMDtMIDMxNjkgNDEzNCAmIzEwO0wgMTI2OSA0MTM0ICYjMTA7TCAxMjY5IDI5OTEgJiMxMDtRIDE0MDYgMzAzOCAxNTQzIDMwNjEgJiMxMDtRIDE2ODEgMzA4NCAxODE5IDMwODQgJiMxMDtRIDI2MDAgMzA4NCAzMDU2IDI2NTYgJiMxMDtRIDM1MTMgMjIyOCAzNTEzIDE0OTcgJiMxMDtRIDM1MTMgNzQ0IDMwNDQgMzI2ICYjMTA7USAyNTc1IC05MSAxNzIyIC05MSAmIzEwO1EgMTQyOCAtOTEgMTEyMyAtNDEgJiMxMDtRIDgxOSA5IDQ5NCAxMDkgJiMxMDtMIDQ5NCA3NDQgJiMxMDtRIDc3NSA1OTEgMTA3NSA1MTYgJiMxMDtRIDEzNzUgNDQxIDE3MDkgNDQxICYjMTA7USAyMjUwIDQ0MSAyNTY1IDcyNSAmIzEwO1EgMjg4MSAxMDA5IDI4ODEgMTQ5NyAmIzEwO1EgMjg4MSAxOTg0IDI1NjUgMjI2OCAmIzEwO1EgMjI1MCAyNTUzIDE3MDkgMjU1MyAmIzEwO1EgMTQ1NiAyNTUzIDEyMDQgMjQ5NyAmIzEwO1EgOTUzIDI0NDEgNjkxIDIzMjIgJiMxMDtMIDY5MSA0NjY2ICYjMTA7eiIgaWQ9IkRlamFWdVNhbnMtMzUiLz4KICAgICAgIDwvZGVmcz4KICAgICAgIDx1c2UgeGxpbms6aHJlZj0iI0RlamFWdVNhbnMtMzUiLz4KICAgICAgPC9nPgogICAgIDwvZz4KICAgIDwvZz4KICAgIDxnIGlkPSJ0ZXh0XzEzIj4KICAgICAKICAgICA8ZyB0cmFuc2Zvcm09InRyYW5zbGF0ZSgyOS43NzgxMjUgMTc3LjU4MTkwNikgcm90YXRlKC05MCkgc2NhbGUoMC4xIC0wLjEpIj4KICAgICAgPGRlZnM+CiAgICAgICA8cGF0aCB0cmFuc2Zvcm09InNjYWxlKDAuMDE1NjI1KSIgZD0iTSAtMTMgNDY2NiAmIzEwO0wgNjY2IDQ2NjYgJiMxMDtMIDE5NTkgMjc0NyAmIzEwO0wgMzI0NCA0NjY2ICYjMTA7TCAzOTIyIDQ2NjYgJiMxMDtMIDIyNzIgMjIyMiAmIzEwO0wgMjI3MiAwICYjMTA7TCAxNjM4IDAgJiMxMDtMIDE2MzggMjIyMiAmIzEwO0wgLTEzIDQ2NjYgJiMxMDt6IiBpZD0iRGVqYVZ1U2Fucy01OSIvPgogICAgICA8L2RlZnM+CiAgICAgIDx1c2UgeGxpbms6aHJlZj0iI0RlamFWdVNhbnMtNTkiLz4KICAgICA8L2c+CiAgICA8L2c+CiAgIDwvZz4KICAgPGcgaWQ9InBhdGNoXzMiPgogICAgPHBhdGggc3R5bGU9ImZpbGw6ICMzMjc0YTE7IHN0cm9rZTogIzNmM2YzZjsgc3Ryb2tlLWxpbmVqb2luOiBtaXRlciIgY2xpcC1wYXRoPSJ1cmwoI3BiYzNlMTc4YmM4KSIgZD0iTSA3NS40NTYgMTQ5LjcyNDEyNyAmIzEwO0wgMjE4LjMwNCAxNDkuNzI0MTI3ICYjMTA7TCAyMTguMzA0IDExMi4xODIzOTYgJiMxMDtMIDc1LjQ1NiAxMTIuMTgyMzk2ICYjMTA7TCA3NS40NTYgMTQ5LjcyNDEyNyAmIzEwO3oiLz4KICAgPC9nPgogICA8ZyBpZD0ibGluZTJkXzEyIj4KICAgIDxwYXRoIHN0eWxlPSJmaWxsOiBub25lOyBzdHJva2U6ICMzZjNmM2YiIGNsaXAtcGF0aD0idXJsKCNwYmMzZTE3OGJjOCkiIGQ9Ik0gMTQ2Ljg4IDE0OS43MjQxMjcgJiMxMDtMIDE0Ni44OCAyMDMuNjI0ODU0Ii8+CiAgIDwvZz4KICAgPGcgaWQ9ImxpbmUyZF8xMyI+CiAgICA8cGF0aCBzdHlsZT0iZmlsbDogbm9uZTsgc3Ryb2tlOiAjM2YzZjNmIiBjbGlwLXBhdGg9InVybCgjcGJjM2UxNzhiYzgpIiBkPSJNIDE0Ni44OCAxMTIuMTgyMzk2ICYjMTA7TCAxNDYuODggNTcuMDQ0MzQ0Ii8+CiAgIDwvZz4KICAgPGcgaWQ9ImxpbmUyZF8xNCI+CiAgICA8cGF0aCBzdHlsZT0iZmlsbDogbm9uZTsgc3Ryb2tlOiAjM2YzZjNmOyBzdHJva2UtbGluZWNhcDogc3F1YXJlIiBjbGlwLXBhdGg9InVybCgjcGJjM2UxNzhiYzgpIiBkPSJNIDExMS4xNjggMjAzLjYyNDg1NCAmIzEwO0wgMTgyLjU5MiAyMDMuNjI0ODU0Ii8+CiAgIDwvZz4KICAgPGcgaWQ9ImxpbmUyZF8xNSI+CiAgICA8cGF0aCBzdHlsZT0iZmlsbDogbm9uZTsgc3Ryb2tlOiAjM2YzZjNmOyBzdHJva2UtbGluZWNhcDogc3F1YXJlIiBjbGlwLXBhdGg9InVybCgjcGJjM2UxNzhiYzgpIiBkPSJNIDExMS4xNjggNTcuMDQ0MzQ0ICYjMTA7TCAxODIuNTkyIDU3LjA0NDM0NCIvPgogICA8L2c+CiAgIDxnIGlkPSJsaW5lMmRfMTYiPgogICAgPGRlZnM+CiAgICAgPHBhdGggc3R5bGU9InN0cm9rZTogIzNmM2YzZiIgZD0iTSAwIDMgJiMxMDtDIDAuNzk1NjA5IDMgMS41NTg3NCAyLjY4MzkwMSAyLjEyMTMyIDIuMTIxMzIgJiMxMDtDIDIuNjgzOTAxIDEuNTU4NzQgMyAwLjc5NTYwOSAzIDAgJiMxMDtDIDMgLTAuNzk1NjA5IDIuNjgzOTAxIC0xLjU1ODc0IDIuMTIxMzIgLTIuMTIxMzIgJiMxMDtDIDEuNTU4NzQgLTIuNjgzOTAxIDAuNzk1NjA5IC0zIDAgLTMgJiMxMDtDIC0wLjc5NTYwOSAtMyAtMS41NTg3NCAtMi42ODM5MDEgLTIuMTIxMzIgLTIuMTIxMzIgJiMxMDtDIC0yLjY4MzkwMSAtMS41NTg3NCAtMyAtMC43OTU2MDkgLTMgMCAmIzEwO0MgLTMgMC43OTU2MDkgLTIuNjgzOTAxIDEuNTU4NzQgLTIuMTIxMzIgMi4xMjEzMiAmIzEwO0MgLTEuNTU4NzQgMi42ODM5MDEgLTAuNzk1NjA5IDMgMCAzICYjMTA7eiIgaWQ9Im1lOTZiYWUzNGNhIi8+CiAgICA8L2RlZnM+CiAgICA8ZyBjbGlwLXBhdGg9InVybCgjcGJjM2UxNzhiYzgpIj4KICAgICA8dXNlIHN0eWxlPSJmaWxsLW9wYWNpdHk6IDA7IHN0cm9rZTogIzNmM2YzZiIgeT0iMjEzLjM4MDg4MiIgeD0iMTQ2Ljg4IiB4bGluazpocmVmPSIjbWU5NmJhZTM0Y2EiLz4KICAgICA8dXNlIHN0eWxlPSJmaWxsLW9wYWNpdHk6IDA7IHN0cm9rZTogIzNmM2YzZiIgeT0iNTUuNzQ5NzUiIHg9IjE0Ni44OCIgeGxpbms6aHJlZj0iI21lOTZiYWUzNGNhIi8+CiAgICAgPHVzZSBzdHlsZT0iZmlsbC1vcGFjaXR5OiAwOyBzdHJva2U6ICMzZjNmM2YiIHk9IjUzLjU2OCIgeD0iMTQ2Ljg4IiB4bGluazpocmVmPSIjbWU5NmJhZTM0Y2EiLz4KICAgIDwvZz4KICAgPC9nPgogICA8ZyBpZD0icGF0Y2hfNCI+CiAgICA8cGF0aCBzdHlsZT0iZmlsbDogI2UxODEyYzsgc3Ryb2tlOiAjM2YzZjNmOyBzdHJva2UtbGluZWpvaW46IG1pdGVyIiBjbGlwLXBhdGg9InVybCgjcGJjM2UxNzhiYzgpIiBkPSJNIDI1NC4wMTYgMjE3LjM0NjMxMyAmIzEwO0wgMzk2Ljg2NCAyMTcuMzQ2MzEzICYjMTA7TCAzOTYuODY0IDE3OS4xNDcwMjMgJiMxMDtMIDI1NC4wMTYgMTc5LjE0NzAyMyAmIzEwO0wgMjU0LjAxNiAyMTcuMzQ2MzEzICYjMTA7eiIvPgogICA8L2c+CiAgIDxnIGlkPSJsaW5lMmRfMTciPgogICAgPHBhdGggc3R5bGU9ImZpbGw6IG5vbmU7IHN0cm9rZTogIzNmM2YzZiIgY2xpcC1wYXRoPSJ1cmwoI3BiYzNlMTc4YmM4KSIgZD0iTSAzMjUuNDQgMjE3LjM0NjMxMyAmIzEwO0wgMzI1LjQ0IDI3NC4zNDQ5NTYiLz4KICAgPC9nPgogICA8ZyBpZD0ibGluZTJkXzE4Ij4KICAgIDxwYXRoIHN0eWxlPSJmaWxsOiBub25lOyBzdHJva2U6ICMzZjNmM2YiIGNsaXAtcGF0aD0idXJsKCNwYmMzZTE3OGJjOCkiIGQ9Ik0gMzI1LjQ0IDE3OS4xNDcwMjMgJiMxMDtMIDMyNS40NCAxMjQuODI0NDc4Ii8+CiAgIDwvZz4KICAgPGcgaWQ9ImxpbmUyZF8xOSI+CiAgICA8cGF0aCBzdHlsZT0iZmlsbDogbm9uZTsgc3Ryb2tlOiAjM2YzZjNmOyBzdHJva2UtbGluZWNhcDogc3F1YXJlIiBjbGlwLXBhdGg9InVybCgjcGJjM2UxNzhiYzgpIiBkPSJNIDI4OS43MjggMjc0LjM0NDk1NiAmIzEwO0wgMzYxLjE1MiAyNzQuMzQ0OTU2Ii8+CiAgIDwvZz4KICAgPGcgaWQ9ImxpbmUyZF8yMCI+CiAgICA8cGF0aCBzdHlsZT0iZmlsbDogbm9uZTsgc3Ryb2tlOiAjM2YzZjNmOyBzdHJva2UtbGluZWNhcDogc3F1YXJlIiBjbGlwLXBhdGg9InVybCgjcGJjM2UxNzhiYzgpIiBkPSJNIDI4OS43MjggMTI0LjgyNDQ3OCAmIzEwO0wgMzYxLjE1MiAxMjQuODI0NDc4Ii8+CiAgIDwvZz4KICAgPGcgaWQ9ImxpbmUyZF8yMSI+CiAgICA8ZyBjbGlwLXBhdGg9InVybCgjcGJjM2UxNzhiYzgpIj4KICAgICA8dXNlIHN0eWxlPSJmaWxsLW9wYWNpdHk6IDA7IHN0cm9rZTogIzNmM2YzZiIgeT0iMjk1LjQ4OCIgeD0iMzI1LjQ0IiB4bGluazpocmVmPSIjbWU5NmJhZTM0Y2EiLz4KICAgICA8dXNlIHN0eWxlPSJmaWxsLW9wYWNpdHk6IDA7IHN0cm9rZTogIzNmM2YzZiIgeT0iMjgzLjIwNDY4OSIgeD0iMzI1LjQ0IiB4bGluazpocmVmPSIjbWU5NmJhZTM0Y2EiLz4KICAgICA8dXNlIHN0eWxlPSJmaWxsLW9wYWNpdHk6IDA7IHN0cm9rZTogIzNmM2YzZiIgeT0iMjg3LjM0MzAzMiIgeD0iMzI1LjQ0IiB4bGluazpocmVmPSIjbWU5NmJhZTM0Y2EiLz4KICAgIDwvZz4KICAgPC9nPgogICA8ZyBpZD0ibGluZTJkXzIyIj4KICAgIDxwYXRoIHN0eWxlPSJmaWxsOiBub25lOyBzdHJva2U6ICMzZjNmM2YiIGNsaXAtcGF0aD0idXJsKCNwYmMzZTE3OGJjOCkiIGQ9Ik0gNzUuNDU2IDEzMC4wMDUwMjIgJiMxMDtMIDIxOC4zMDQgMTMwLjAwNTAyMiIvPgogICA8L2c+CiAgIDxnIGlkPSJsaW5lMmRfMjMiPgogICAgPHBhdGggc3R5bGU9ImZpbGw6IG5vbmU7IHN0cm9rZTogIzNmM2YzZiIgY2xpcC1wYXRoPSJ1cmwoI3BiYzNlMTc4YmM4KSIgZD0iTSAyNTQuMDE2IDE5Ny43MjA4MDYgJiMxMDtMIDM5Ni44NjQgMTk3LjcyMDgwNiIvPgogICA8L2c+CiAgIDxnIGlkPSJwYXRjaF81Ij4KICAgIDxwYXRoIHN0eWxlPSJmaWxsOiBub25lOyBzdHJva2U6ICMwMDAwMDA7IHN0cm9rZS13aWR0aDogMC44OyBzdHJva2UtbGluZWpvaW46IG1pdGVyOyBzdHJva2UtbGluZWNhcDogc3F1YXJlIiBkPSJNIDU3LjYgMzA3LjU4NCAmIzEwO0wgNTcuNiA0MS40NzIiLz4KICAgPC9nPgogICA8ZyBpZD0icGF0Y2hfNiI+CiAgICA8cGF0aCBzdHlsZT0iZmlsbDogbm9uZTsgc3Ryb2tlOiAjMDAwMDAwOyBzdHJva2Utd2lkdGg6IDAuODsgc3Ryb2tlLWxpbmVqb2luOiBtaXRlcjsgc3Ryb2tlLWxpbmVjYXA6IHNxdWFyZSIgZD0iTSA0MTQuNzIgMzA3LjU4NCAmIzEwO0wgNDE0LjcyIDQxLjQ3MiIvPgogICA8L2c+CiAgIDxnIGlkPSJwYXRjaF83Ij4KICAgIDxwYXRoIHN0eWxlPSJmaWxsOiBub25lOyBzdHJva2U6ICMwMDAwMDA7IHN0cm9rZS13aWR0aDogMC44OyBzdHJva2UtbGluZWpvaW46IG1pdGVyOyBzdHJva2UtbGluZWNhcDogc3F1YXJlIiBkPSJNIDU3LjYgMzA3LjU4NCAmIzEwO0wgNDE0LjcyIDMwNy41ODQiLz4KICAgPC9nPgogICA8ZyBpZD0icGF0Y2hfOCI+CiAgICA8cGF0aCBzdHlsZT0iZmlsbDogbm9uZTsgc3Ryb2tlOiAjMDAwMDAwOyBzdHJva2Utd2lkdGg6IDAuODsgc3Ryb2tlLWxpbmVqb2luOiBtaXRlcjsgc3Ryb2tlLWxpbmVjYXA6IHNxdWFyZSIgZD0iTSA1Ny42IDQxLjQ3MiAmIzEwO0wgNDE0LjcyIDQxLjQ3MiIvPgogICA8L2c+CiAgIDxnIGlkPSJ0ZXh0XzE0Ij4KICAgIAogICAgPGcgdHJhbnNmb3JtPSJ0cmFuc2xhdGUoMTUzLjM1MzQzNyAyMi4wMzIzNzUpIHNjYWxlKDAuMTIgLTAuMTIpIj4KICAgICA8ZGVmcz4KICAgICAgPHBhdGggdHJhbnNmb3JtPSJzY2FsZSgwLjAxNTYyNSkiIGQ9Ik0gNjI4IDQ2NjYgJiMxMDtMIDM1NzggNDY2NiAmIzEwO0wgMzU3OCA0MTM0ICYjMTA7TCAxMjU5IDQxMzQgJiMxMDtMIDEyNTkgMjc1MyAmIzEwO0wgMzQ4MSAyNzUzICYjMTA7TCAzNDgxIDIyMjIgJiMxMDtMIDEyNTkgMjIyMiAmIzEwO0wgMTI1OSA1MzEgJiMxMDtMIDM2MzQgNTMxICYjMTA7TCAzNjM0IDAgJiMxMDtMIDYyOCAwICYjMTA7TCA2MjggNDY2NiAmIzEwO3oiIGlkPSJEZWphVnVTYW5zLTQ1Ii8+CiAgICAgIDxwYXRoIHRyYW5zZm9ybT0ic2NhbGUoMC4wMTU2MjUpIiBkPSJNIDIzNzUgNDg2MyAmIzEwO0wgMjM3NSA0Mzg0ICYjMTA7TCAxODI1IDQzODQgJiMxMDtRIDE1MTYgNDM4NCAxMzk1IDQyNTkgJiMxMDtRIDEyNzUgNDEzNCAxMjc1IDM4MDkgJiMxMDtMIDEyNzUgMzUwMCAmIzEwO0wgMjIyMiAzNTAwICYjMTA7TCAyMjIyIDMwNTMgJiMxMDtMIDEyNzUgMzA1MyAmIzEwO0wgMTI3NSAwICYjMTA7TCA2OTcgMCAmIzEwO0wgNjk3IDMwNTMgJiMxMDtMIDE0NyAzMDUzICYjMTA7TCAxNDcgMzUwMCAmIzEwO0wgNjk3IDM1MDAgJiMxMDtMIDY5NyAzNzQ0ICYjMTA7USA2OTcgNDMyOCA5NjkgNDU5NSAmIzEwO1EgMTI0MSA0ODYzIDE4MzEgNDg2MyAmIzEwO0wgMjM3NSA0ODYzICYjMTA7eiIgaWQ9IkRlamFWdVNhbnMtNjYiLz4KICAgICAgPHBhdGggdHJhbnNmb3JtPSJzY2FsZSgwLjAxNTYyNSkiIGQ9Ik0gMzEyMiAzMzY2ICYjMTA7TCAzMTIyIDI4MjggJiMxMDtRIDI4NzggMjk2MyAyNjMzIDMwMzAgJiMxMDtRIDIzODggMzA5NyAyMTM4IDMwOTcgJiMxMDtRIDE1NzggMzA5NyAxMjY4IDI3NDIgJiMxMDtRIDk1OSAyMzg4IDk1OSAxNzQ3ICYjMTA7USA5NTkgMTEwNiAxMjY4IDc1MSAmIzEwO1EgMTU3OCAzOTcgMjEzOCAzOTcgJiMxMDtRIDIzODggMzk3IDI2MzMgNDY0ICYjMTA7USAyODc4IDUzMSAzMTIyIDY2NiAmIzEwO0wgMzEyMiAxMzQgJiMxMDtRIDI4ODEgMjIgMjYyMyAtMzQgJiMxMDtRIDIzNjYgLTkxIDIwNzUgLTkxICYjMTA7USAxMjg0IC05MSA4MTggNDA2ICYjMTA7USAzNTMgOTAzIDM1MyAxNzQ3ICYjMTA7USAzNTMgMjYwMyA4MjMgMzA5MyAmIzEwO1EgMTI5NCAzNTg0IDIxMTMgMzU4NCAmIzEwO1EgMjM3OCAzNTg0IDI2MzEgMzUyOSAmIzEwO1EgMjg4NCAzNDc1IDMxMjIgMzM2NiAmIzEwO3oiIGlkPSJEZWphVnVTYW5zLTYzIi8+CiAgICAgIDxwYXRoIHRyYW5zZm9ybT0ic2NhbGUoMC4wMTU2MjUpIiBkPSJNIDExNzIgNDQ5NCAmIzEwO0wgMTE3MiAzNTAwICYjMTA7TCAyMzU2IDM1MDAgJiMxMDtMIDIzNTYgMzA1MyAmIzEwO0wgMTE3MiAzMDUzICYjMTA7TCAxMTcyIDExNTMgJiMxMDtRIDExNzIgNzI1IDEyODkgNjAzICYjMTA7USAxNDA2IDQ4MSAxNzY2IDQ4MSAmIzEwO0wgMjM1NiA0ODEgJiMxMDtMIDIzNTYgMCAmIzEwO0wgMTc2NiAwICYjMTA7USAxMTAwIDAgODQ3IDI0OCAmIzEwO1EgNTk0IDQ5NyA1OTQgMTE1MyAmIzEwO0wgNTk0IDMwNTMgJiMxMDtMIDE3MiAzMDUzICYjMTA7TCAxNzIgMzUwMCAmIzEwO0wgNTk0IDM1MDAgJiMxMDtMIDU5NCA0NDk0ICYjMTA7TCAxMTcyIDQ0OTQgJiMxMDt6IiBpZD0iRGVqYVZ1U2Fucy03NCIvPgogICAgICA8cGF0aCB0cmFuc2Zvcm09InNjYWxlKDAuMDE1NjI1KSIgZD0iTSAyOTA2IDI5NjkgJiMxMDtMIDI5MDYgNDg2MyAmIzEwO0wgMzQ4MSA0ODYzICYjMTA7TCAzNDgxIDAgJiMxMDtMIDI5MDYgMCAmIzEwO0wgMjkwNiA1MjUgJiMxMDtRIDI3MjUgMjEzIDI0NDggNjEgJiMxMDtRIDIxNzIgLTkxIDE3ODQgLTkxICYjMTA7USAxMTUwIC05MSA3NTEgNDE1ICYjMTA7USAzNTMgOTIyIDM1MyAxNzQ3ICYjMTA7USAzNTMgMjU3MiA3NTEgMzA3OCAmIzEwO1EgMTE1MCAzNTg0IDE3ODQgMzU4NCAmIzEwO1EgMjE3MiAzNTg0IDI0NDggMzQzMiAmIzEwO1EgMjcyNSAzMjgxIDI5MDYgMjk2OSAmIzEwO3omIzEwO00gOTQ3IDE3NDcgJiMxMDtRIDk0NyAxMTEzIDEyMDggNzUyICYjMTA7USAxNDY5IDM5MSAxOTI1IDM5MSAmIzEwO1EgMjM4MSAzOTEgMjY0MyA3NTIgJiMxMDtRIDI5MDYgMTExMyAyOTA2IDE3NDcgJiMxMDtRIDI5MDYgMjM4MSAyNjQzIDI3NDIgJiMxMDtRIDIzODEgMzEwMyAxOTI1IDMxMDMgJiMxMDtRIDE0NjkgMzEwMyAxMjA4IDI3NDIgJiMxMDtRIDk0NyAyMzgxIDk0NyAxNzQ3ICYjMTA7eiIgaWQ9IkRlamFWdVNhbnMtNjQiLz4KICAgICAgPHBhdGggdHJhbnNmb3JtPSJzY2FsZSgwLjAxNTYyNSkiIGQ9Ik0gMzUxMyAyMTEzICYjMTA7TCAzNTEzIDAgJiMxMDtMIDI5MzggMCAmIzEwO0wgMjkzOCAyMDk0ICYjMTA7USAyOTM4IDI1OTEgMjc0NCAyODM3ICYjMTA7USAyNTUwIDMwODQgMjE2MyAzMDg0ICYjMTA7USAxNjk3IDMwODQgMTQyOCAyNzg3ICYjMTA7USAxMTU5IDI0OTEgMTE1OSAxOTc4ICYjMTA7TCAxMTU5IDAgJiMxMDtMIDU4MSAwICYjMTA7TCA1ODEgMzUwMCAmIzEwO0wgMTE1OSAzNTAwICYjMTA7TCAxMTU5IDI5NTYgJiMxMDtRIDEzNjYgMzI3MiAxNjQ1IDM0MjggJiMxMDtRIDE5MjUgMzU4NCAyMjkxIDM1ODQgJiMxMDtRIDI4OTQgMzU4NCAzMjAzIDMyMTEgJiMxMDtRIDM1MTMgMjgzOCAzNTEzIDIxMTMgJiMxMDt6IiBpZD0iRGVqYVZ1U2Fucy02ZSIvPgogICAgICA8cGF0aCB0cmFuc2Zvcm09InNjYWxlKDAuMDE1NjI1KSIgZD0iTSAyNjkgMzUwMCAmIzEwO0wgODQ0IDM1MDAgJiMxMDtMIDE1NjMgNzY5ICYjMTA7TCAyMjc4IDM1MDAgJiMxMDtMIDI5NTYgMzUwMCAmIzEwO0wgMzY3NSA3NjkgJiMxMDtMIDQzOTEgMzUwMCAmIzEwO0wgNDk2NiAzNTAwICYjMTA7TCA0MDUwIDAgJiMxMDtMIDMzNzIgMCAmIzEwO0wgMjYxOSAyODY5ICYjMTA7TCAxODYzIDAgJiMxMDtMIDExODQgMCAmIzEwO0wgMjY5IDM1MDAgJiMxMDt6IiBpZD0iRGVqYVZ1U2Fucy03NyIvPgogICAgICA8cGF0aCB0cmFuc2Zvcm09InNjYWxlKDAuMDE1NjI1KSIgZD0iTSAzNTEzIDIxMTMgJiMxMDtMIDM1MTMgMCAmIzEwO0wgMjkzOCAwICYjMTA7TCAyOTM4IDIwOTQgJiMxMDtRIDI5MzggMjU5MSAyNzQ0IDI4MzcgJiMxMDtRIDI1NTAgMzA4NCAyMTYzIDMwODQgJiMxMDtRIDE2OTcgMzA4NCAxNDI4IDI3ODcgJiMxMDtRIDExNTkgMjQ5MSAxMTU5IDE5NzggJiMxMDtMIDExNTkgMCAmIzEwO0wgNTgxIDAgJiMxMDtMIDU4MSA0ODYzICYjMTA7TCAxMTU5IDQ4NjMgJiMxMDtMIDExNTkgMjk1NiAmIzEwO1EgMTM2NiAzMjcyIDE2NDUgMzQyOCAmIzEwO1EgMTkyNSAzNTg0IDIyOTEgMzU4NCAmIzEwO1EgMjg5NCAzNTg0IDMyMDMgMzIxMSAmIzEwO1EgMzUxMyAyODM4IDM1MTMgMjExMyAmIzEwO3oiIGlkPSJEZWphVnVTYW5zLTY4Ii8+CiAgICAgPC9kZWZzPgogICAgIDx1c2UgeGxpbms6aHJlZj0iI0RlamFWdVNhbnMtNDUiLz4KICAgICA8dXNlIHg9IjYzLjE4MzU5NCIgeGxpbms6aHJlZj0iI0RlamFWdVNhbnMtNjYiLz4KICAgICA8dXNlIHg9Ijk4LjM4ODY3MiIgeGxpbms6aHJlZj0iI0RlamFWdVNhbnMtNjYiLz4KICAgICA8dXNlIHg9IjEzMy41OTM3NSIgeGxpbms6aHJlZj0iI0RlamFWdVNhbnMtNjUiLz4KICAgICA8dXNlIHg9IjE5NS4xMTcxODgiIHhsaW5rOmhyZWY9IiNEZWphVnVTYW5zLTYzIi8+CiAgICAgPHVzZSB4PSIyNTAuMDk3NjU2IiB4bGluazpocmVmPSIjRGVqYVZ1U2Fucy03NCIvPgogICAgIDx1c2UgeD0iMjg5LjMwNjY0MSIgeGxpbms6aHJlZj0iI0RlamFWdVNhbnMtMjAiLz4KICAgICA8dXNlIHg9IjMyMS4wOTM3NSIgeGxpbms6aHJlZj0iI0RlamFWdVNhbnMtNmYiLz4KICAgICA8dXNlIHg9IjM4Mi4yNzUzOTEiIHhsaW5rOmhyZWY9IiNEZWphVnVTYW5zLTY2Ii8+CiAgICAgPHVzZSB4PSI0MTcuNDgwNDY5IiB4bGluazpocmVmPSIjRGVqYVZ1U2Fucy0yMCIvPgogICAgIDx1c2UgeD0iNDQ5LjI2NzU3OCIgeGxpbms6aHJlZj0iI0RlamFWdVNhbnMtNjQiLz4KICAgICA8dXNlIHg9IjUxMi43NDQxNDEiIHhsaW5rOmhyZWY9IiNEZWphVnVTYW5zLTY5Ii8+CiAgICAgPHVzZSB4PSI1NDAuNTI3MzQ0IiB4bGluazpocmVmPSIjRGVqYVZ1U2Fucy03MyIvPgogICAgIDx1c2UgeD0iNTkyLjYyNjk1MyIgeGxpbms6aHJlZj0iI0RlamFWdVNhbnMtNjUiLz4KICAgICA8dXNlIHg9IjY1NC4xNTAzOTEiIHhsaW5rOmhyZWY9IiNEZWphVnVTYW5zLTYxIi8+CiAgICAgPHVzZSB4PSI3MTUuNDI5Njg4IiB4bGluazpocmVmPSIjRGVqYVZ1U2Fucy03MyIvPgogICAgIDx1c2UgeD0iNzY3LjUyOTI5NyIgeGxpbms6aHJlZj0iI0RlamFWdVNhbnMtNjUiLz4KICAgICA8dXNlIHg9IjgyOS4wNTI3MzQiIHhsaW5rOmhyZWY9IiNEZWphVnVTYW5zLTIwIi8+CiAgICAgPHVzZSB4PSI4NjAuODM5ODQ0IiB4bGluazpocmVmPSIjRGVqYVZ1U2Fucy02ZiIvPgogICAgIDx1c2UgeD0iOTIyLjAyMTQ4NCIgeGxpbms6aHJlZj0iI0RlamFWdVNhbnMtNmUiLz4KICAgICA8dXNlIHg9Ijk4NS40MDAzOTEiIHhsaW5rOmhyZWY9IiNEZWphVnVTYW5zLTIwIi8+CiAgICAgPHVzZSB4PSIxMDE3LjE4NzUiIHhsaW5rOmhyZWY9IiNEZWphVnVTYW5zLTU5Ii8+CiAgICAgPHVzZSB4PSIxMDc4LjI3MTQ4NCIgeGxpbms6aHJlZj0iI0RlamFWdVNhbnMtMjAiLz4KICAgICA8dXNlIHg9IjExMTAuMDU4NTk0IiB4bGluazpocmVmPSIjRGVqYVZ1U2Fucy03NyIvPgogICAgIDx1c2UgeD0iMTE5MS44NDU3MDMiIHhsaW5rOmhyZWY9IiNEZWphVnVTYW5zLTY4Ii8+CiAgICAgPHVzZSB4PSIxMjU1LjIyNDYwOSIgeGxpbms6aHJlZj0iI0RlamFWdVNhbnMtNjUiLz4KICAgICA8dXNlIHg9IjEzMTYuNzQ4MDQ3IiB4bGluazpocmVmPSIjRGVqYVZ1U2Fucy02ZSIvPgogICAgPC9nPgogICAgCiAgICA8ZyB0cmFuc2Zvcm09InRyYW5zbGF0ZSgxNzUuMiAzNS40NzIpIHNjYWxlKDAuMTIgLTAuMTIpIj4KICAgICA8ZGVmcz4KICAgICAgPHBhdGggdHJhbnNmb3JtPSJzY2FsZSgwLjAxNTYyNSkiIGQ9Ik0gMjE4OCA0MDQ0ICYjMTA7TCAxMzMxIDE3MjIgJiMxMDtMIDMwNDcgMTcyMiAmIzEwO0wgMjE4OCA0MDQ0ICYjMTA7eiYjMTA7TSAxODMxIDQ2NjYgJiMxMDtMIDI1NDcgNDY2NiAmIzEwO0wgNDMyNSAwICYjMTA7TCAzNjY5IDAgJiMxMDtMIDMyNDQgMTE5NyAmIzEwO0wgMTE0MSAxMTk3ICYjMTA7TCA3MTYgMCAmIzEwO0wgNTAgMCAmIzEwO0wgMTgzMSA0NjY2ICYjMTA7eiIgaWQ9IkRlamFWdVNhbnMtNDEiLz4KICAgICAgPHBhdGggdHJhbnNmb3JtPSJzY2FsZSgwLjAxNTYyNSkiIGQ9Ik0gMjkwNiAxNzkxICYjMTA7USAyOTA2IDI0MTYgMjY0OCAyNzU5ICYjMTA7USAyMzkxIDMxMDMgMTkyNSAzMTAzICYjMTA7USAxNDYzIDMxMDMgMTIwNSAyNzU5ICYjMTA7USA5NDcgMjQxNiA5NDcgMTc5MSAmIzEwO1EgOTQ3IDExNjkgMTIwNSA4MjUgJiMxMDtRIDE0NjMgNDgxIDE5MjUgNDgxICYjMTA7USAyMzkxIDQ4MSAyNjQ4IDgyNSAmIzEwO1EgMjkwNiAxMTY5IDI5MDYgMTc5MSAmIzEwO3omIzEwO00gMzQ4MSA0MzQgJiMxMDtRIDM0ODEgLTQ1OSAzMDg0IC04OTUgJiMxMDtRIDI2ODggLTEzMzEgMTg2OSAtMTMzMSAmIzEwO1EgMTU2NiAtMTMzMSAxMjk3IC0xMjg2ICYjMTA7USAxMDI4IC0xMjQxIDc3NSAtMTE0NyAmIzEwO0wgNzc1IC01ODggJiMxMDtRIDEwMjggLTcyNSAxMjc1IC03OTAgJiMxMDtRIDE1MjIgLTg1NiAxNzc4IC04NTYgJiMxMDtRIDIzNDQgLTg1NiAyNjI1IC01NjEgJiMxMDtRIDI5MDYgLTI2NiAyOTA2IDMzMSAmIzEwO0wgMjkwNiA2MTYgJiMxMDtRIDI3MjggMzA2IDI0NTAgMTUzICYjMTA7USAyMTcyIDAgMTc4NCAwICYjMTA7USAxMTQxIDAgNzQ3IDQ5MCAmIzEwO1EgMzUzIDk4MSAzNTMgMTc5MSAmIzEwO1EgMzUzIDI2MDMgNzQ3IDMwOTMgJiMxMDtRIDExNDEgMzU4NCAxNzg0IDM1ODQgJiMxMDtRIDIxNzIgMzU4NCAyNDUwIDM0MzEgJiMxMDtRIDI3MjggMzI3OCAyOTA2IDI5NjkgJiMxMDtMIDI5MDYgMzUwMCAmIzEwO0wgMzQ4MSAzNTAwICYjMTA7TCAzNDgxIDQzNCAmIzEwO3oiIGlkPSJEZWphVnVTYW5zLTY3Ii8+CiAgICAgIDxwYXRoIHRyYW5zZm9ybT0ic2NhbGUoMC4wMTU2MjUpIiBkPSJNIDQ2ODQgMzE3NSAmIzEwO0wgMTY4NCAyMzA5ICYjMTA7TCA0Njg0IDE0NTMgJiMxMDtMIDQ2ODQgODk3ICYjMTA7TCA2NzggMjA0NyAmIzEwO0wgNjc4IDI1NzggJiMxMDtMIDQ2ODQgMzcyNSAmIzEwO0wgNDY4NCAzMTc1ICYjMTA7eiYjMTA7TSA2NzggNTMxICYjMTA7TCA0Njg0IDUzMSAmIzEwO0wgNDY4NCAwICYjMTA7TCA2NzggMCAmIzEwO0wgNjc4IDUzMSAmIzEwO3oiIGlkPSJEZWphVnVTYW5zLTIyNjQiLz4KICAgICAgPHBhdGggdHJhbnNmb3JtPSJzY2FsZSgwLjAxNTYyNSkiIGQ9Ik0gMTU1NiAyNTA5ICYjMTA7USAxMjcyIDIyNTYgMTEzOSAyMDA0ICYjMTA7USAxMDA2IDE3NTMgMTAwNiAxNDc4ICYjMTA7USAxMDA2IDEwMjIgMTMzNyA3MTkgJiMxMDtRIDE2NjkgNDE2IDIxNjkgNDE2ICYjMTA7USAyNDY2IDQxNiAyNzI1IDUxNCAmIzEwO1EgMjk4NCA2MTMgMzIxMyA4MTMgJiMxMDtMIDE1NTYgMjUwOSAmIzEwO3omIzEwO00gMTk5NyAyODU5ICYjMTA7TCAzNTg0IDEyMzQgJiMxMDtRIDM3NjkgMTUxMyAzODcyIDE4MzAgJiMxMDtRIDM5NzUgMjE0NyAzOTk0IDI1MDMgJiMxMDtMIDQ1NzUgMjUwMyAmIzEwO1EgNDUzOCAyMDkxIDQzNzUgMTY4NyAmIzEwO1EgNDIxMyAxMjg0IDM5MjIgODkxICYjMTA7TCA0Nzk0IDAgJiMxMDtMIDQwMDYgMCAmIzEwO0wgMzU1OSA0NTkgJiMxMDtRIDMyMzQgMTgxIDI4NzggNDUgJiMxMDtRIDI1MjIgLTkxIDIxMTMgLTkxICYjMTA7USAxMzU5IC05MSA4ODEgMzM5ICYjMTA7USA0MDMgNzY5IDQwMyAxNDQxICYjMTA7USA0MDMgMTg0MSA2MTIgMjE5MiAmIzEwO1EgODIyIDI1NDQgMTI0MSAyODUzICYjMTA7USAxMDkxIDMwNTAgMTAxMiAzMjQ1ICYjMTA7USA5MzQgMzQ0MSA5MzQgMzYyOCAmIzEwO1EgOTM0IDQxMzQgMTI4MSA0NDQyICYjMTA7USAxNjI4IDQ3NTAgMjIwMyA0NzUwICYjMTA7USAyNDYzIDQ3NTAgMjcyMCA0Njk0ICYjMTA7USAyOTc4IDQ2MzggMzI0NCA0NTI1ICYjMTA7TCAzMjQ0IDM5NTYgJiMxMDtRIDI5NzIgNDEwMyAyNzI1IDQxNzkgJiMxMDtRIDI0NzggNDI1NiAyMjY2IDQyNTYgJiMxMDtRIDE5MzggNDI1NiAxNzMzIDQwODIgJiMxMDtRIDE1MjggMzkwOSAxNTI4IDM2MzQgJiMxMDtRIDE1MjggMzQ3NSAxNjIwIDMzMTQgJiMxMDtRIDE3MTMgMzE1MyAxOTk3IDI4NTkgJiMxMDt6IiBpZD0iRGVqYVZ1U2Fucy0yNiIvPgogICAgICA8cGF0aCB0cmFuc2Zvcm09InNjYWxlKDAuMDE1NjI1KSIgZD0iTSA2MjggNDY2NiAmIzEwO0wgMzMwOSA0NjY2ICYjMTA7TCAzMzA5IDQxMzQgJiMxMDtMIDEyNTkgNDEzNCAmIzEwO0wgMTI1OSAyNzU5ICYjMTA7TCAzMTA5IDI3NTkgJiMxMDtMIDMxMDkgMjIyOCAmIzEwO0wgMTI1OSAyMjI4ICYjMTA7TCAxMjU5IDAgJiMxMDtMIDYyOCAwICYjMTA7TCA2MjggNDY2NiAmIzEwO3oiIGlkPSJEZWphVnVTYW5zLTQ2Ii8+CiAgICAgIDxwYXRoIHRyYW5zZm9ybT0ic2NhbGUoMC4wMTU2MjUpIiBkPSJNIDMzMjggMjgyOCAmIzEwO1EgMzU0NCAzMjE2IDM4NDQgMzQwMCAmIzEwO1EgNDE0NCAzNTg0IDQ1NTAgMzU4NCAmIzEwO1EgNTA5NyAzNTg0IDUzOTQgMzIwMSAmIzEwO1EgNTY5MSAyODE5IDU2OTEgMjExMyAmIzEwO0wgNTY5MSAwICYjMTA7TCA1MTEzIDAgJiMxMDtMIDUxMTMgMjA5NCAmIzEwO1EgNTExMyAyNTk3IDQ5MzQgMjg0MCAmIzEwO1EgNDc1NiAzMDg0IDQzOTEgMzA4NCAmIzEwO1EgMzk0NCAzMDg0IDM2ODQgMjc4NyAmIzEwO1EgMzQyNSAyNDkxIDM0MjUgMTk3OCAmIzEwO0wgMzQyNSAwICYjMTA7TCAyODQ3IDAgJiMxMDtMIDI4NDcgMjA5NCAmIzEwO1EgMjg0NyAyNjAwIDI2NjkgMjg0MiAmIzEwO1EgMjQ5MSAzMDg0IDIxMTkgMzA4NCAmIzEwO1EgMTY3OCAzMDg0IDE0MTggMjc4NiAmIzEwO1EgMTE1OSAyNDg4IDExNTkgMTk3OCAmIzEwO0wgMTE1OSAwICYjMTA7TCA1ODEgMCAmIzEwO0wgNTgxIDM1MDAgJiMxMDtMIDExNTkgMzUwMCAmIzEwO0wgMTE1OSAyOTU2ICYjMTA7USAxMzU2IDMyNzggMTYzMSAzNDMxICYjMTA7USAxOTA2IDM1ODQgMjI4NCAzNTg0ICYjMTA7USAyNjY2IDM1ODQgMjkzMyAzMzkwICYjMTA7USAzMjAwIDMxOTcgMzMyOCAyODI4ICYjMTA7eiIgaWQ9IkRlamFWdVNhbnMtNmQiLz4KICAgICAgPHBhdGggdHJhbnNmb3JtPSJzY2FsZSgwLjAxNTYyNSkiIGQ9Ik0gNjAzIDQ4NjMgJiMxMDtMIDExNzggNDg2MyAmIzEwO0wgMTE3OCAwICYjMTA7TCA2MDMgMCAmIzEwO0wgNjAzIDQ4NjMgJiMxMDt6IiBpZD0iRGVqYVZ1U2Fucy02YyIvPgogICAgIDwvZGVmcz4KICAgICA8dXNlIHRyYW5zZm9ybT0idHJhbnNsYXRlKDAgMC4wMTU2MjUpIiB4bGluazpocmVmPSIjRGVqYVZ1U2Fucy00MSIvPgogICAgIDx1c2UgdHJhbnNmb3JtPSJ0cmFuc2xhdGUoNjguNDA4MjAzIDAuMDE1NjI1KSIgeGxpbms6aHJlZj0iI0RlamFWdVNhbnMtNjciLz4KICAgICA8dXNlIHRyYW5zZm9ybT0idHJhbnNsYXRlKDEzMS44ODQ3NjYgMC4wMTU2MjUpIiB4bGluazpocmVmPSIjRGVqYVZ1U2Fucy02NSIvPgogICAgIDx1c2UgdHJhbnNmb3JtPSJ0cmFuc2xhdGUoMTkzLjQwODIwMyAwLjAxNTYyNSkiIHhsaW5rOmhyZWY9IiNEZWphVnVTYW5zLTIwIi8+CiAgICAgPHVzZSB0cmFuc2Zvcm09InRyYW5zbGF0ZSgyNDQuNjc3NzM0IDAuMDE1NjI1KSIgeGxpbms6aHJlZj0iI0RlamFWdVNhbnMtMjI2NCIvPgogICAgIDx1c2UgdHJhbnNmb3JtPSJ0cmFuc2xhdGUoMzQ3Ljk0OTIxOSAwLjAxNTYyNSkiIHhsaW5rOmhyZWY9IiNEZWphVnVTYW5zLTIwIi8+CiAgICAgPHVzZSB0cmFuc2Zvcm09InRyYW5zbGF0ZSgzNzkuNzM2MzI4IDAuMDE1NjI1KSIgeGxpbms6aHJlZj0iI0RlamFWdVNhbnMtMzUiLz4KICAgICA8dXNlIHRyYW5zZm9ybT0idHJhbnNsYXRlKDQ0My4zNTkzNzUgMC4wMTU2MjUpIiB4bGluazpocmVmPSIjRGVqYVZ1U2Fucy0zMCIvPgogICAgIDx1c2UgdHJhbnNmb3JtPSJ0cmFuc2xhdGUoNTA2Ljk4MjQyMiAwLjAxNTYyNSkiIHhsaW5rOmhyZWY9IiNEZWphVnVTYW5zLTIwIi8+CiAgICAgPHVzZSB0cmFuc2Zvcm09InRyYW5zbGF0ZSg1MzguNzY5NTMxIDAuMDE1NjI1KSIgeGxpbms6aHJlZj0iI0RlamFWdVNhbnMtMjYiLz4KICAgICA8dXNlIHRyYW5zZm9ybT0idHJhbnNsYXRlKDYxNi43NDgwNDcgMC4wMTU2MjUpIiB4bGluazpocmVmPSIjRGVqYVZ1U2Fucy0yMCIvPgogICAgIDx1c2UgdHJhbnNmb3JtPSJ0cmFuc2xhdGUoNjQ4LjUzNTE1NiAwLjAxNTYyNSkiIHhsaW5rOmhyZWY9IiNEZWphVnVTYW5zLTQ2Ii8+CiAgICAgPHVzZSB0cmFuc2Zvcm09InRyYW5zbGF0ZSg3MDYuMDU0Njg4IDAuMDE1NjI1KSIgeGxpbms6aHJlZj0iI0RlamFWdVNhbnMtNjUiLz4KICAgICA8dXNlIHRyYW5zZm9ybT0idHJhbnNsYXRlKDc2Ny41NzgxMjUgMC4wMTU2MjUpIiB4bGluazpocmVmPSIjRGVqYVZ1U2Fucy02ZCIvPgogICAgIDx1c2UgdHJhbnNmb3JtPSJ0cmFuc2xhdGUoODY0Ljk5MDIzNCAwLjAxNTYyNSkiIHhsaW5rOmhyZWY9IiNEZWphVnVTYW5zLTYxIi8+CiAgICAgPHVzZSB0cmFuc2Zvcm09InRyYW5zbGF0ZSg5MjYuMjY5NTMxIDAuMDE1NjI1KSIgeGxpbms6aHJlZj0iI0RlamFWdVNhbnMtNmMiLz4KICAgICA8dXNlIHRyYW5zZm9ybT0idHJhbnNsYXRlKDk1NC4wNTI3MzQgMC4wMTU2MjUpIiB4bGluazpocmVmPSIjRGVqYVZ1U2Fucy02NSIvPgogICAgPC9nPgogICA8L2c+CiAgPC9nPgogPC9nPgogPGRlZnM+CiAgPGNsaXBQYXRoIGlkPSJwYmMzZTE3OGJjOCI+CiAgIDxyZWN0IGhlaWdodD0iMjY2LjExMiIgd2lkdGg9IjM1Ny4xMiIgeT0iNDEuNDcyIiB4PSI1Ny42Ii8+CiAgPC9jbGlwUGF0aD4KIDwvZGVmcz4KPC9zdmc+;" vertex="1" parent="1">
                    <mxGeometry x="543.04" y="360" width="346.42" height="260" as="geometry"/>
                </mxCell>
                <mxCell id="25" value="" style="shape=image;verticalLabelPosition=bottom;labelBackgroundColor=default;verticalAlign=top;aspect=fixed;imageAspect=0;image=data:image/svg+xml,PHN2ZyB4bWxucz0iaHR0cDovL3d3dy53My5vcmcvMjAwMC9zdmciIHhtbG5zOnhsaW5rPSJodHRwOi8vd3d3LnczLm9yZy8xOTk5L3hsaW5rIiB2ZXJzaW9uPSIxLjEiIHZpZXdCb3g9IjAgMCA0NjAuOCAzNDUuNiIgaGVpZ2h0PSIzNDUuNnB0IiB3aWR0aD0iNDYwLjhwdCI+CiA8bWV0YWRhdGE+CiAgCiAgIAogICAgCiAgICAyMDI1LTA1LTAzVDE1OjQxOjQyLjQwNzg0NQogICAgaW1hZ2Uvc3ZnK3htbAogICAgCiAgICAgCiAgICAgIE1hdHBsb3RsaWIgdjMuOS4xLnBvc3QxLCBodHRwczovL21hdHBsb3RsaWIub3JnLwogICAgIAogICAgCiAgIAogIAogPC9tZXRhZGF0YT4KIDxkZWZzPgogIDxzdHlsZSB0eXBlPSJ0ZXh0L2NzcyI+KntzdHJva2UtbGluZWpvaW46IHJvdW5kOyBzdHJva2UtbGluZWNhcDogYnV0dH08L3N0eWxlPgogPC9kZWZzPgogPGcgaWQ9ImZpZ3VyZV8xIj4KICA8ZyBpZD0icGF0Y2hfMSI+CiAgIDxwYXRoIHN0eWxlPSJmaWxsOiBub25lIiBkPSJNIDAgMzQ1LjYgJiMxMDtMIDQ2MC44IDM0NS42ICYjMTA7TCA0NjAuOCAwICYjMTA7TCAwIDAgJiMxMDtMIDAgMzQ1LjYgJiMxMDt6Ii8+CiAgPC9nPgogIDxnIGlkPSJheGVzXzEiPgogICA8ZyBpZD0icGF0Y2hfMiI+CiAgICA8cGF0aCBzdHlsZT0iZmlsbDogbm9uZSIgZD0iTSA1Ny42IDMwNy41ODQgJiMxMDtMIDQxNC43MiAzMDcuNTg0ICYjMTA7TCA0MTQuNzIgNDEuNDcyICYjMTA7TCA1Ny42IDQxLjQ3MiAmIzEwO0wgNTcuNiAzMDcuNTg0ICYjMTA7eiIvPgogICA8L2c+CiAgIDxnIGlkPSJtYXRwbG90bGliLmF4aXNfMSI+CiAgICA8ZyBpZD0ieHRpY2tfMSI+CiAgICAgPGcgaWQ9ImxpbmUyZF8xIj4KICAgICAgPGRlZnM+CiAgICAgICA8cGF0aCBzdHlsZT0ic3Ryb2tlOiAjMDAwMDAwOyBzdHJva2Utd2lkdGg6IDAuOCIgZD0iTSAwIDAgJiMxMDtMIDAgMy41IiBpZD0ibTM0MGE2MTIyNTUiLz4KICAgICAgPC9kZWZzPgogICAgICA8Zz4KICAgICAgIDx1c2Ugc3R5bGU9InN0cm9rZTogIzAwMDAwMDsgc3Ryb2tlLXdpZHRoOiAwLjgiIHk9IjMwNy41ODQiIHg9IjE0Ni44OCIgeGxpbms6aHJlZj0iI20zNDBhNjEyMjU1Ii8+CiAgICAgIDwvZz4KICAgICA8L2c+CiAgICAgPGcgaWQ9InRleHRfMSI+CiAgICAgIAogICAgICA8ZyB0cmFuc2Zvcm09InRyYW5zbGF0ZSgxMjcuMjE0Mzc1IDMyMi4xODI0MzcpIHNjYWxlKDAuMSAtMC4xKSI+CiAgICAgICA8ZGVmcz4KICAgICAgICA8cGF0aCB0cmFuc2Zvcm09InNjYWxlKDAuMDE1NjI1KSIgZD0iTSAxMjU5IDQxNDcgJiMxMDtMIDEyNTkgNTE5ICYjMTA7TCAyMDIyIDUxOSAmIzEwO1EgMjk4OCA1MTkgMzQzNiA5NTYgJiMxMDtRIDM4ODQgMTM5NCAzODg0IDIzMzggJiMxMDtRIDM4ODQgMzI3NSAzNDM2IDM3MTEgJiMxMDtRIDI5ODggNDE0NyAyMDIyIDQxNDcgJiMxMDtMIDEyNTkgNDE0NyAmIzEwO3omIzEwO00gNjI4IDQ2NjYgJiMxMDtMIDE5MjUgNDY2NiAmIzEwO1EgMzI4MSA0NjY2IDM5MTUgNDEwMiAmIzEwO1EgNDU1MCAzNTM4IDQ1NTAgMjMzOCAmIzEwO1EgNDU1MCAxMTMxIDM5MTIgNTY1ICYjMTA7USAzMjc1IDAgMTkyNSAwICYjMTA7TCA2MjggMCAmIzEwO0wgNjI4IDQ2NjYgJiMxMDt6IiBpZD0iRGVqYVZ1U2Fucy00NCIvPgogICAgICAgIDxwYXRoIHRyYW5zZm9ybT0ic2NhbGUoMC4wMTU2MjUpIiBkPSJNIDYwMyAzNTAwICYjMTA7TCAxMTc4IDM1MDAgJiMxMDtMIDExNzggMCAmIzEwO0wgNjAzIDAgJiMxMDtMIDYwMyAzNTAwICYjMTA7eiYjMTA7TSA2MDMgNDg2MyAmIzEwO0wgMTE3OCA0ODYzICYjMTA7TCAxMTc4IDQxMzQgJiMxMDtMIDYwMyA0MTM0ICYjMTA7TCA2MDMgNDg2MyAmIzEwO3oiIGlkPSJEZWphVnVTYW5zLTY5Ii8+CiAgICAgICAgPHBhdGggdHJhbnNmb3JtPSJzY2FsZSgwLjAxNTYyNSkiIGQ9Ik0gMjgzNCAzMzk3ICYjMTA7TCAyODM0IDI4NTMgJiMxMDtRIDI1OTEgMjk3OCAyMzI4IDMwNDAgJiMxMDtRIDIwNjYgMzEwMyAxNzg0IDMxMDMgJiMxMDtRIDEzNTYgMzEwMyAxMTQyIDI5NzIgJiMxMDtRIDkyOCAyODQxIDkyOCAyNTc4ICYjMTA7USA5MjggMjM3OCAxMDgxIDIyNjQgJiMxMDtRIDEyMzQgMjE1MCAxNjk3IDIwNDcgJiMxMDtMIDE4OTQgMjAwMyAmIzEwO1EgMjUwNiAxODcyIDI3NjQgMTYzMyAmIzEwO1EgMzAyMiAxMzk0IDMwMjIgOTY2ICYjMTA7USAzMDIyIDQ3OCAyNjM2IDE5MyAmIzEwO1EgMjI1MCAtOTEgMTU3NSAtOTEgJiMxMDtRIDEyOTQgLTkxIDk4OSAtMzYgJiMxMDtRIDY4NCAxOSAzNDcgMTI4ICYjMTA7TCAzNDcgNzIyICYjMTA7USA2NjYgNTU2IDk3NSA0NzMgJiMxMDtRIDEyODQgMzkxIDE1ODggMzkxICYjMTA7USAxOTk0IDM5MSAyMjEyIDUzMCAmIzEwO1EgMjQzMSA2NjkgMjQzMSA5MjIgJiMxMDtRIDI0MzEgMTE1NiAyMjczIDEyODEgJiMxMDtRIDIxMTYgMTQwNiAxNTgxIDE1MjIgJiMxMDtMIDEzODEgMTU2OSAmIzEwO1EgODQ3IDE2ODEgNjA5IDE5MTQgJiMxMDtRIDM3MiAyMTQ3IDM3MiAyNTUzICYjMTA7USAzNzIgMzA0NyA3MjIgMzMxNSAmIzEwO1EgMTA3MiAzNTg0IDE3MTYgMzU4NCAmIzEwO1EgMjAzNCAzNTg0IDIzMTUgMzUzNyAmIzEwO1EgMjU5NyAzNDkxIDI4MzQgMzM5NyAmIzEwO3oiIGlkPSJEZWphVnVTYW5zLTczIi8+CiAgICAgICAgPHBhdGggdHJhbnNmb3JtPSJzY2FsZSgwLjAxNTYyNSkiIGQ9Ik0gMzU5NyAxODk0ICYjMTA7TCAzNTk3IDE2MTMgJiMxMDtMIDk1MyAxNjEzICYjMTA7USA5OTEgMTAxOSAxMzExIDcwOCAmIzEwO1EgMTYzMSAzOTcgMjIwMyAzOTcgJiMxMDtRIDI1MzQgMzk3IDI4NDUgNDc4ICYjMTA7USAzMTU2IDU1OSAzNDYzIDcyMiAmIzEwO0wgMzQ2MyAxNzggJiMxMDtRIDMxNTMgNDcgMjgyOCAtMjIgJiMxMDtRIDI1MDMgLTkxIDIxNjkgLTkxICYjMTA7USAxMzMxIC05MSA4NDIgMzk2ICYjMTA7USAzNTMgODg0IDM1MyAxNzE2ICYjMTA7USAzNTMgMjU3NSA4MTcgMzA3OSAmIzEwO1EgMTI4MSAzNTg0IDIwNjkgMzU4NCAmIzEwO1EgMjc3NSAzNTg0IDMxODYgMzEyOSAmIzEwO1EgMzU5NyAyNjc1IDM1OTcgMTg5NCAmIzEwO3omIzEwO00gMzAyMiAyMDYzICYjMTA7USAzMDE2IDI1MzQgMjc1OCAyODE1ICYjMTA7USAyNTAwIDMwOTcgMjA3NSAzMDk3ICYjMTA7USAxNTk0IDMwOTcgMTMwNSAyODI1ICYjMTA7USAxMDE2IDI1NTMgOTcyIDIwNTkgJiMxMDtMIDMwMjIgMjA2MyAmIzEwO3oiIGlkPSJEZWphVnVTYW5zLTY1Ii8+CiAgICAgICAgPHBhdGggdHJhbnNmb3JtPSJzY2FsZSgwLjAxNTYyNSkiIGQ9Ik0gMjE5NCAxNzU5ICYjMTA7USAxNDk3IDE3NTkgMTIyOCAxNjAwICYjMTA7USA5NTkgMTQ0MSA5NTkgMTA1NiAmIzEwO1EgOTU5IDc1MCAxMTYxIDU3MCAmIzEwO1EgMTM2MyAzOTEgMTcwOSAzOTEgJiMxMDtRIDIxODggMzkxIDI0NzcgNzMwICYjMTA7USAyNzY2IDEwNjkgMjc2NiAxNjMxICYjMTA7TCAyNzY2IDE3NTkgJiMxMDtMIDIxOTQgMTc1OSAmIzEwO3omIzEwO00gMzM0MSAxOTk3ICYjMTA7TCAzMzQxIDAgJiMxMDtMIDI3NjYgMCAmIzEwO0wgMjc2NiA1MzEgJiMxMDtRIDI1NjkgMjEzIDIyNzUgNjEgJiMxMDtRIDE5ODEgLTkxIDE1NTYgLTkxICYjMTA7USAxMDE5IC05MSA3MDEgMjExICYjMTA7USAzODQgNTEzIDM4NCAxMDE5ICYjMTA7USAzODQgMTYwOSA3NzkgMTkwOSAmIzEwO1EgMTE3NSAyMjA5IDE5NTkgMjIwOSAmIzEwO0wgMjc2NiAyMjA5ICYjMTA7TCAyNzY2IDIyNjYgJiMxMDtRIDI3NjYgMjY2MyAyNTA1IDI4ODAgJiMxMDtRIDIyNDQgMzA5NyAxNzcyIDMwOTcgJiMxMDtRIDE0NzIgMzA5NyAxMTg3IDMwMjUgJiMxMDtRIDkwMyAyOTUzIDY0MSAyODA5ICYjMTA7TCA2NDEgMzM0MSAmIzEwO1EgOTU2IDM0NjMgMTI1MyAzNTIzICYjMTA7USAxNTUwIDM1ODQgMTgzMSAzNTg0ICYjMTA7USAyNTkxIDM1ODQgMjk2NiAzMTkwICYjMTA7USAzMzQxIDI3OTcgMzM0MSAxOTk3ICYjMTA7eiIgaWQ9IkRlamFWdVNhbnMtNjEiLz4KICAgICAgIDwvZGVmcz4KICAgICAgIDx1c2UgeGxpbms6aHJlZj0iI0RlamFWdVNhbnMtNDQiLz4KICAgICAgIDx1c2UgeD0iNzcuMDAxOTUzIiB4bGluazpocmVmPSIjRGVqYVZ1U2Fucy02OSIvPgogICAgICAgPHVzZSB4PSIxMDQuNzg1MTU2IiB4bGluazpocmVmPSIjRGVqYVZ1U2Fucy03MyIvPgogICAgICAgPHVzZSB4PSIxNTYuODg0NzY2IiB4bGluazpocmVmPSIjRGVqYVZ1U2Fucy02NSIvPgogICAgICAgPHVzZSB4PSIyMTguNDA4MjAzIiB4bGluazpocmVmPSIjRGVqYVZ1U2Fucy02MSIvPgogICAgICAgPHVzZSB4PSIyNzkuNjg3NSIgeGxpbms6aHJlZj0iI0RlamFWdVNhbnMtNzMiLz4KICAgICAgIDx1c2UgeD0iMzMxLjc4NzEwOSIgeGxpbms6aHJlZj0iI0RlamFWdVNhbnMtNjUiLz4KICAgICAgPC9nPgogICAgIDwvZz4KICAgIDwvZz4KICAgIDxnIGlkPSJ4dGlja18yIj4KICAgICA8ZyBpZD0ibGluZTJkXzIiPgogICAgICA8Zz4KICAgICAgIDx1c2Ugc3R5bGU9InN0cm9rZTogIzAwMDAwMDsgc3Ryb2tlLXdpZHRoOiAwLjgiIHk9IjMwNy41ODQiIHg9IjMyNS40NCIgeGxpbms6aHJlZj0iI20zNDBhNjEyMjU1Ii8+CiAgICAgIDwvZz4KICAgICA8L2c+CiAgICAgPGcgaWQ9InRleHRfMiI+CiAgICAgIAogICAgICA8ZyB0cmFuc2Zvcm09InRyYW5zbGF0ZSgyOTcuMzg1MzEyIDMyMi4xODI0MzcpIHNjYWxlKDAuMSAtMC4xKSI+CiAgICAgICA8ZGVmcz4KICAgICAgICA8cGF0aCB0cmFuc2Zvcm09InNjYWxlKDAuMDE1NjI1KSIgZD0iTSA2MjggNDY2NiAmIzEwO0wgMTQ3OCA0NjY2ICYjMTA7TCAzNTQ3IDc2MyAmIzEwO0wgMzU0NyA0NjY2ICYjMTA7TCA0MTU5IDQ2NjYgJiMxMDtMIDQxNTkgMCAmIzEwO0wgMzMwOSAwICYjMTA7TCAxMjQxIDM5MDMgJiMxMDtMIDEyNDEgMCAmIzEwO0wgNjI4IDAgJiMxMDtMIDYyOCA0NjY2ICYjMTA7eiIgaWQ9IkRlamFWdVNhbnMtNGUiLz4KICAgICAgICA8cGF0aCB0cmFuc2Zvcm09InNjYWxlKDAuMDE1NjI1KSIgZD0iTSAxOTU5IDMwOTcgJiMxMDtRIDE0OTcgMzA5NyAxMjI4IDI3MzYgJiMxMDtRIDk1OSAyMzc1IDk1OSAxNzQ3ICYjMTA7USA5NTkgMTExOSAxMjI2IDc1OCAmIzEwO1EgMTQ5NCAzOTcgMTk1OSAzOTcgJiMxMDtRIDI0MTkgMzk3IDI2ODcgNzU5ICYjMTA7USAyOTU2IDExMjIgMjk1NiAxNzQ3ICYjMTA7USAyOTU2IDIzNjkgMjY4NyAyNzMzICYjMTA7USAyNDE5IDMwOTcgMTk1OSAzMDk3ICYjMTA7eiYjMTA7TSAxOTU5IDM1ODQgJiMxMDtRIDI3MDkgMzU4NCAzMTM3IDMwOTYgJiMxMDtRIDM1NjYgMjYwOSAzNTY2IDE3NDcgJiMxMDtRIDM1NjYgODg4IDMxMzcgMzk4ICYjMTA7USAyNzA5IC05MSAxOTU5IC05MSAmIzEwO1EgMTIwNiAtOTEgNzc5IDM5OCAmIzEwO1EgMzUzIDg4OCAzNTMgMTc0NyAmIzEwO1EgMzUzIDI2MDkgNzc5IDMwOTYgJiMxMDtRIDEyMDYgMzU4NCAxOTU5IDM1ODQgJiMxMDt6IiBpZD0iRGVqYVZ1U2Fucy02ZiIvPgogICAgICAgIDxwYXRoIHRyYW5zZm9ybT0ic2NhbGUoMC4wMTU2MjUpIiBpZD0iRGVqYVZ1U2Fucy0yMCIvPgogICAgICAgPC9kZWZzPgogICAgICAgPHVzZSB4bGluazpocmVmPSIjRGVqYVZ1U2Fucy00ZSIvPgogICAgICAgPHVzZSB4PSI3NC44MDQ2ODgiIHhsaW5rOmhyZWY9IiNEZWphVnVTYW5zLTZmIi8+CiAgICAgICA8dXNlIHg9IjEzNS45ODYzMjgiIHhsaW5rOmhyZWY9IiNEZWphVnVTYW5zLTIwIi8+CiAgICAgICA8dXNlIHg9IjE2Ny43NzM0MzgiIHhsaW5rOmhyZWY9IiNEZWphVnVTYW5zLTQ0Ii8+CiAgICAgICA8dXNlIHg9IjI0NC43NzUzOTEiIHhsaW5rOmhyZWY9IiNEZWphVnVTYW5zLTY5Ii8+CiAgICAgICA8dXNlIHg9IjI3Mi41NTg1OTQiIHhsaW5rOmhyZWY9IiNEZWphVnVTYW5zLTczIi8+CiAgICAgICA8dXNlIHg9IjMyNC42NTgyMDMiIHhsaW5rOmhyZWY9IiNEZWphVnVTYW5zLTY1Ii8+CiAgICAgICA8dXNlIHg9IjM4Ni4xODE2NDEiIHhsaW5rOmhyZWY9IiNEZWphVnVTYW5zLTYxIi8+CiAgICAgICA8dXNlIHg9IjQ0Ny40NjA5MzgiIHhsaW5rOmhyZWY9IiNEZWphVnVTYW5zLTczIi8+CiAgICAgICA8dXNlIHg9IjQ5OS41NjA1NDciIHhsaW5rOmhyZWY9IiNEZWphVnVTYW5zLTY1Ii8+CiAgICAgIDwvZz4KICAgICA8L2c+CiAgICA8L2c+CiAgICA8ZyBpZD0idGV4dF8zIj4KICAgICAKICAgICA8ZyB0cmFuc2Zvcm09InRyYW5zbGF0ZSgyMjAuOTQwNDY5IDMzNS44NjA1NjIpIHNjYWxlKDAuMSAtMC4xKSI+CiAgICAgIDxkZWZzPgogICAgICAgPHBhdGggdHJhbnNmb3JtPSJzY2FsZSgwLjAxNTYyNSkiIGQ9Ik0gMzgwOSA2NjYgJiMxMDtMIDM4MDkgMTkxOSAmIzEwO0wgMjc3OCAxOTE5ICYjMTA7TCAyNzc4IDI0MzggJiMxMDtMIDQ0MzQgMjQzOCAmIzEwO0wgNDQzNCA0MzQgJiMxMDtRIDQwNjkgMTc1IDM2MjggNDIgJiMxMDtRIDMxODggLTkxIDI2ODggLTkxICYjMTA7USAxNTk0IC05MSA5NzYgNTQ4ICYjMTA7USAzNTkgMTE4OCAzNTkgMjMyOCAmIzEwO1EgMzU5IDM0NzIgOTc2IDQxMTEgJiMxMDtRIDE1OTQgNDc1MCAyNjg4IDQ3NTAgJiMxMDtRIDMxNDQgNDc1MCAzNTU1IDQ2MzcgJiMxMDtRIDM5NjYgNDUyNSA0MzEzIDQzMDYgJiMxMDtMIDQzMTMgMzYzNCAmIzEwO1EgMzk2MyAzOTMxIDM1NjkgNDA4MSAmIzEwO1EgMzE3NSA0MjMxIDI3NDEgNDIzMSAmIzEwO1EgMTg4NCA0MjMxIDE0NTQgMzc1MyAmIzEwO1EgMTAyNSAzMjc1IDEwMjUgMjMyOCAmIzEwO1EgMTAyNSAxMzg0IDE0NTQgOTA2ICYjMTA7USAxODg0IDQyOCAyNzQxIDQyOCAmIzEwO1EgMzA3NSA0MjggMzMzNyA0ODYgJiMxMDtRIDM2MDAgNTQ0IDM4MDkgNjY2ICYjMTA7eiIgaWQ9IkRlamFWdVNhbnMtNDciLz4KICAgICAgIDxwYXRoIHRyYW5zZm9ybT0ic2NhbGUoMC4wMTU2MjUpIiBkPSJNIDI2MzEgMjk2MyAmIzEwO1EgMjUzNCAzMDE5IDI0MjAgMzA0NSAmIzEwO1EgMjMwNiAzMDcyIDIxNjkgMzA3MiAmIzEwO1EgMTY4MSAzMDcyIDE0MjAgMjc1NSAmIzEwO1EgMTE1OSAyNDM4IDExNTkgMTg0NCAmIzEwO0wgMTE1OSAwICYjMTA7TCA1ODEgMCAmIzEwO0wgNTgxIDM1MDAgJiMxMDtMIDExNTkgMzUwMCAmIzEwO0wgMTE1OSAyOTU2ICYjMTA7USAxMzQxIDMyNzUgMTYzMSAzNDI5ICYjMTA7USAxOTIyIDM1ODQgMjMzOCAzNTg0ICYjMTA7USAyMzk3IDM1ODQgMjQ2OSAzNTc2ICYjMTA7USAyNTQxIDM1NjkgMjYyOCAzNTUzICYjMTA7TCAyNjMxIDI5NjMgJiMxMDt6IiBpZD0iRGVqYVZ1U2Fucy03MiIvPgogICAgICAgPHBhdGggdHJhbnNmb3JtPSJzY2FsZSgwLjAxNTYyNSkiIGQ9Ik0gNTQ0IDEzODEgJiMxMDtMIDU0NCAzNTAwICYjMTA7TCAxMTE5IDM1MDAgJiMxMDtMIDExMTkgMTQwMyAmIzEwO1EgMTExOSA5MDYgMTMxMiA2NTcgJiMxMDtRIDE1MDYgNDA5IDE4OTQgNDA5ICYjMTA7USAyMzU5IDQwOSAyNjI5IDcwNiAmIzEwO1EgMjkwMCAxMDAzIDI5MDAgMTUxNiAmIzEwO0wgMjkwMCAzNTAwICYjMTA7TCAzNDc1IDM1MDAgJiMxMDtMIDM0NzUgMCAmIzEwO0wgMjkwMCAwICYjMTA7TCAyOTAwIDUzOCAmIzEwO1EgMjY5MSAyMTkgMjQxNCA2NCAmIzEwO1EgMjEzOCAtOTEgMTc3MiAtOTEgJiMxMDtRIDExNjkgLTkxIDg1NiAyODQgJiMxMDtRIDU0NCA2NTkgNTQ0IDEzODEgJiMxMDt6JiMxMDtNIDE5OTEgMzU4NCAmIzEwO0wgMTk5MSAzNTg0ICYjMTA7eiIgaWQ9IkRlamFWdVNhbnMtNzUiLz4KICAgICAgIDxwYXRoIHRyYW5zZm9ybT0ic2NhbGUoMC4wMTU2MjUpIiBkPSJNIDExNTkgNTI1ICYjMTA7TCAxMTU5IC0xMzMxICYjMTA7TCA1ODEgLTEzMzEgJiMxMDtMIDU4MSAzNTAwICYjMTA7TCAxMTU5IDM1MDAgJiMxMDtMIDExNTkgMjk2OSAmIzEwO1EgMTM0MSAzMjgxIDE2MTcgMzQzMiAmIzEwO1EgMTg5NCAzNTg0IDIyNzggMzU4NCAmIzEwO1EgMjkxNiAzNTg0IDMzMTQgMzA3OCAmIzEwO1EgMzcxMyAyNTcyIDM3MTMgMTc0NyAmIzEwO1EgMzcxMyA5MjIgMzMxNCA0MTUgJiMxMDtRIDI5MTYgLTkxIDIyNzggLTkxICYjMTA7USAxODk0IC05MSAxNjE3IDYxICYjMTA7USAxMzQxIDIxMyAxMTU5IDUyNSAmIzEwO3omIzEwO00gMzExNiAxNzQ3ICYjMTA7USAzMTE2IDIzODEgMjg1NSAyNzQyICYjMTA7USAyNTk0IDMxMDMgMjEzOCAzMTAzICYjMTA7USAxNjgxIDMxMDMgMTQyMCAyNzQyICYjMTA7USAxMTU5IDIzODEgMTE1OSAxNzQ3ICYjMTA7USAxMTU5IDExMTMgMTQyMCA3NTIgJiMxMDtRIDE2ODEgMzkxIDIxMzggMzkxICYjMTA7USAyNTk0IDM5MSAyODU1IDc1MiAmIzEwO1EgMzExNiAxMTEzIDMxMTYgMTc0NyAmIzEwO3oiIGlkPSJEZWphVnVTYW5zLTcwIi8+CiAgICAgIDwvZGVmcz4KICAgICAgPHVzZSB4bGluazpocmVmPSIjRGVqYVZ1U2Fucy00NyIvPgogICAgICA8dXNlIHg9Ijc3LjQ5MDIzNCIgeGxpbms6aHJlZj0iI0RlamFWdVNhbnMtNzIiLz4KICAgICAgPHVzZSB4PSIxMTYuMzUzNTE2IiB4bGluazpocmVmPSIjRGVqYVZ1U2Fucy02ZiIvPgogICAgICA8dXNlIHg9IjE3Ny41MzUxNTYiIHhsaW5rOmhyZWY9IiNEZWphVnVTYW5zLTc1Ii8+CiAgICAgIDx1c2UgeD0iMjQwLjkxNDA2MiIgeGxpbms6aHJlZj0iI0RlamFWdVNhbnMtNzAiLz4KICAgICA8L2c+CiAgICA8L2c+CiAgIDwvZz4KICAgPGcgaWQ9Im1hdHBsb3RsaWIuYXhpc18yIj4KICAgIDxnIGlkPSJ5dGlja18xIj4KICAgICA8ZyBpZD0ibGluZTJkXzMiPgogICAgICA8ZGVmcz4KICAgICAgIDxwYXRoIHN0eWxlPSJzdHJva2U6ICMwMDAwMDA7IHN0cm9rZS13aWR0aDogMC44IiBkPSJNIDAgMCAmIzEwO0wgLTMuNSAwIiBpZD0ibTllZmFmODUyZTciLz4KICAgICAgPC9kZWZzPgogICAgICA8Zz4KICAgICAgIDx1c2Ugc3R5bGU9InN0cm9rZTogIzAwMDAwMDsgc3Ryb2tlLXdpZHRoOiAwLjgiIHk9IjI3MC4wNDQ5OTkiIHg9IjU3LjYiIHhsaW5rOmhyZWY9IiNtOWVmYWY4NTJlNyIvPgogICAgICA8L2c+CiAgICAgPC9nPgogICAgIDxnIGlkPSJ0ZXh0XzQiPgogICAgICAKICAgICAgPGcgdHJhbnNmb3JtPSJ0cmFuc2xhdGUoMzUuODU3ODEzIDI3My44NDQyMTcpIHNjYWxlKDAuMSAtMC4xKSI+CiAgICAgICA8ZGVmcz4KICAgICAgICA8cGF0aCB0cmFuc2Zvcm09InNjYWxlKDAuMDE1NjI1KSIgZD0iTSA2NzggMjI3MiAmIzEwO0wgNDY4NCAyMjcyICYjMTA7TCA0Njg0IDE3NDEgJiMxMDtMIDY3OCAxNzQxICYjMTA7TCA2NzggMjI3MiAmIzEwO3oiIGlkPSJEZWphVnVTYW5zLTIyMTIiLz4KICAgICAgICA8cGF0aCB0cmFuc2Zvcm09InNjYWxlKDAuMDE1NjI1KSIgZD0iTSAxMjI4IDUzMSAmIzEwO0wgMzQzMSA1MzEgJiMxMDtMIDM0MzEgMCAmIzEwO0wgNDY5IDAgJiMxMDtMIDQ2OSA1MzEgJiMxMDtRIDgyOCA5MDMgMTQ0OCAxNTI5ICYjMTA7USAyMDY5IDIxNTYgMjIyOCAyMzM4ICYjMTA7USAyNTMxIDI2NzggMjY1MSAyOTE0ICYjMTA7USAyNzcyIDMxNTAgMjc3MiAzMzc4ICYjMTA7USAyNzcyIDM3NTAgMjUxMSAzOTg0ICYjMTA7USAyMjUwIDQyMTkgMTgzMSA0MjE5ICYjMTA7USAxNTM0IDQyMTkgMTIwNCA0MTE2ICYjMTA7USA4NzUgNDAxMyA1MDAgMzgwMyAmIzEwO0wgNTAwIDQ0NDEgJiMxMDtRIDg4MSA0NTk0IDEyMTIgNDY3MiAmIzEwO1EgMTU0NCA0NzUwIDE4MTkgNDc1MCAmIzEwO1EgMjU0NCA0NzUwIDI5NzUgNDM4NyAmIzEwO1EgMzQwNiA0MDI1IDM0MDYgMzQxOSAmIzEwO1EgMzQwNiAzMTMxIDMyOTggMjg3MyAmIzEwO1EgMzE5MSAyNjE2IDI5MDYgMjI2NiAmIzEwO1EgMjgyOCAyMTc1IDI0MDkgMTc0MiAmIzEwO1EgMTk5MSAxMzA5IDEyMjggNTMxICYjMTA7eiIgaWQ9IkRlamFWdVNhbnMtMzIiLz4KICAgICAgIDwvZGVmcz4KICAgICAgIDx1c2UgeGxpbms6aHJlZj0iI0RlamFWdVNhbnMtMjIxMiIvPgogICAgICAgPHVzZSB4PSI4My43ODkwNjIiIHhsaW5rOmhyZWY9IiNEZWphVnVTYW5zLTMyIi8+CiAgICAgIDwvZz4KICAgICA8L2c+CiAgICA8L2c+CiAgICA8ZyBpZD0ieXRpY2tfMiI+CiAgICAgPGcgaWQ9ImxpbmUyZF80Ij4KICAgICAgPGc+CiAgICAgICA8dXNlIHN0eWxlPSJzdHJva2U6ICMwMDAwMDA7IHN0cm9rZS13aWR0aDogMC44IiB5PSIyMTIuNDY4MTkiIHg9IjU3LjYiIHhsaW5rOmhyZWY9IiNtOWVmYWY4NTJlNyIvPgogICAgICA8L2c+CiAgICAgPC9nPgogICAgIDxnIGlkPSJ0ZXh0XzUiPgogICAgICAKICAgICAgPGcgdHJhbnNmb3JtPSJ0cmFuc2xhdGUoNDQuMjM3NSAyMTYuMjY3NDA5KSBzY2FsZSgwLjEgLTAuMSkiPgogICAgICAgPGRlZnM+CiAgICAgICAgPHBhdGggdHJhbnNmb3JtPSJzY2FsZSgwLjAxNTYyNSkiIGQ9Ik0gMjAzNCA0MjUwICYjMTA7USAxNTQ3IDQyNTAgMTMwMSAzNzcwICYjMTA7USAxMDU2IDMyOTEgMTA1NiAyMzI4ICYjMTA7USAxMDU2IDEzNjkgMTMwMSA4ODkgJiMxMDtRIDE1NDcgNDA5IDIwMzQgNDA5ICYjMTA7USAyNTI1IDQwOSAyNzcwIDg4OSAmIzEwO1EgMzAxNiAxMzY5IDMwMTYgMjMyOCAmIzEwO1EgMzAxNiAzMjkxIDI3NzAgMzc3MCAmIzEwO1EgMjUyNSA0MjUwIDIwMzQgNDI1MCAmIzEwO3omIzEwO00gMjAzNCA0NzUwICYjMTA7USAyODE5IDQ3NTAgMzIzMyA0MTI5ICYjMTA7USAzNjQ3IDM1MDkgMzY0NyAyMzI4ICYjMTA7USAzNjQ3IDExNTAgMzIzMyA1MjkgJiMxMDtRIDI4MTkgLTkxIDIwMzQgLTkxICYjMTA7USAxMjUwIC05MSA4MzYgNTI5ICYjMTA7USA0MjIgMTE1MCA0MjIgMjMyOCAmIzEwO1EgNDIyIDM1MDkgODM2IDQxMjkgJiMxMDtRIDEyNTAgNDc1MCAyMDM0IDQ3NTAgJiMxMDt6IiBpZD0iRGVqYVZ1U2Fucy0zMCIvPgogICAgICAgPC9kZWZzPgogICAgICAgPHVzZSB4bGluazpocmVmPSIjRGVqYVZ1U2Fucy0zMCIvPgogICAgICA8L2c+CiAgICAgPC9nPgogICAgPC9nPgogICAgPGcgaWQ9Inl0aWNrXzMiPgogICAgIDxnIGlkPSJsaW5lMmRfNSI+CiAgICAgIDxnPgogICAgICAgPHVzZSBzdHlsZT0ic3Ryb2tlOiAjMDAwMDAwOyBzdHJva2Utd2lkdGg6IDAuOCIgeT0iMTU0Ljg5MTM4MSIgeD0iNTcuNiIgeGxpbms6aHJlZj0iI205ZWZhZjg1MmU3Ii8+CiAgICAgIDwvZz4KICAgICA8L2c+CiAgICAgPGcgaWQ9InRleHRfNiI+CiAgICAgIAogICAgICA8ZyB0cmFuc2Zvcm09InRyYW5zbGF0ZSg0NC4yMzc1IDE1OC42OTA2KSBzY2FsZSgwLjEgLTAuMSkiPgogICAgICAgPHVzZSB4bGluazpocmVmPSIjRGVqYVZ1U2Fucy0zMiIvPgogICAgICA8L2c+CiAgICAgPC9nPgogICAgPC9nPgogICAgPGcgaWQ9Inl0aWNrXzQiPgogICAgIDxnIGlkPSJsaW5lMmRfNiI+CiAgICAgIDxnPgogICAgICAgPHVzZSBzdHlsZT0ic3Ryb2tlOiAjMDAwMDAwOyBzdHJva2Utd2lkdGg6IDAuOCIgeT0iOTcuMzE0NTcyIiB4PSI1Ny42IiB4bGluazpocmVmPSIjbTllZmFmODUyZTciLz4KICAgICAgPC9nPgogICAgIDwvZz4KICAgICA8ZyBpZD0idGV4dF83Ij4KICAgICAgCiAgICAgIDxnIHRyYW5zZm9ybT0idHJhbnNsYXRlKDQ0LjIzNzUgMTAxLjExMzc5MSkgc2NhbGUoMC4xIC0wLjEpIj4KICAgICAgIDxkZWZzPgogICAgICAgIDxwYXRoIHRyYW5zZm9ybT0ic2NhbGUoMC4wMTU2MjUpIiBkPSJNIDI0MTkgNDExNiAmIzEwO0wgODI1IDE2MjUgJiMxMDtMIDI0MTkgMTYyNSAmIzEwO0wgMjQxOSA0MTE2ICYjMTA7eiYjMTA7TSAyMjUzIDQ2NjYgJiMxMDtMIDMwNDcgNDY2NiAmIzEwO0wgMzA0NyAxNjI1ICYjMTA7TCAzNzEzIDE2MjUgJiMxMDtMIDM3MTMgMTEwMCAmIzEwO0wgMzA0NyAxMTAwICYjMTA7TCAzMDQ3IDAgJiMxMDtMIDI0MTkgMCAmIzEwO0wgMjQxOSAxMTAwICYjMTA7TCAzMTMgMTEwMCAmIzEwO0wgMzEzIDE3MDkgJiMxMDtMIDIyNTMgNDY2NiAmIzEwO3oiIGlkPSJEZWphVnVTYW5zLTM0Ii8+CiAgICAgICA8L2RlZnM+CiAgICAgICA8dXNlIHhsaW5rOmhyZWY9IiNEZWphVnVTYW5zLTM0Ii8+CiAgICAgIDwvZz4KICAgICA8L2c+CiAgICA8L2c+CiAgICA8ZyBpZD0idGV4dF84Ij4KICAgICAKICAgICA8ZyB0cmFuc2Zvcm09InRyYW5zbGF0ZSgyOS43NzgxMjUgMTc3LjU4MTkwNikgcm90YXRlKC05MCkgc2NhbGUoMC4xIC0wLjEpIj4KICAgICAgPGRlZnM+CiAgICAgICA8cGF0aCB0cmFuc2Zvcm09InNjYWxlKDAuMDE1NjI1KSIgZD0iTSAtMTMgNDY2NiAmIzEwO0wgNjY2IDQ2NjYgJiMxMDtMIDE5NTkgMjc0NyAmIzEwO0wgMzI0NCA0NjY2ICYjMTA7TCAzOTIyIDQ2NjYgJiMxMDtMIDIyNzIgMjIyMiAmIzEwO0wgMjI3MiAwICYjMTA7TCAxNjM4IDAgJiMxMDtMIDE2MzggMjIyMiAmIzEwO0wgLTEzIDQ2NjYgJiMxMDt6IiBpZD0iRGVqYVZ1U2Fucy01OSIvPgogICAgICA8L2RlZnM+CiAgICAgIDx1c2UgeGxpbms6aHJlZj0iI0RlamFWdVNhbnMtNTkiLz4KICAgICA8L2c+CiAgICA8L2c+CiAgIDwvZz4KICAgPGcgaWQ9InBhdGNoXzMiPgogICAgPHBhdGggc3R5bGU9ImZpbGw6ICMzMjc0YTE7IHN0cm9rZTogIzNmM2YzZjsgc3Ryb2tlLWxpbmVqb2luOiBtaXRlciIgY2xpcC1wYXRoPSJ1cmwoI3AzNjBmNzQ1ODI2KSIgZD0iTSA3NS40NTYgMTQ3LjQwNTY5ICYjMTA7TCAyMTguMzA0IDE0Ny40MDU2OSAmIzEwO0wgMjE4LjMwNCAxMDcuNjM0ODEzICYjMTA7TCA3NS40NTYgMTA3LjYzNDgxMyAmIzEwO0wgNzUuNDU2IDE0Ny40MDU2OSAmIzEwO3oiLz4KICAgPC9nPgogICA8ZyBpZD0ibGluZTJkXzciPgogICAgPHBhdGggc3R5bGU9ImZpbGw6IG5vbmU7IHN0cm9rZTogIzNmM2YzZiIgY2xpcC1wYXRoPSJ1cmwoI3AzNjBmNzQ1ODI2KSIgZD0iTSAxNDYuODggMTQ3LjQwNTY5ICYjMTA7TCAxNDYuODggMjAzLjYxNjU2OCIvPgogICA8L2c+CiAgIDxnIGlkPSJsaW5lMmRfOCI+CiAgICA8cGF0aCBzdHlsZT0iZmlsbDogbm9uZTsgc3Ryb2tlOiAjM2YzZjNmIiBjbGlwLXBhdGg9InVybCgjcDM2MGY3NDU4MjYpIiBkPSJNIDE0Ni44OCAxMDcuNjM0ODEzICYjMTA7TCAxNDYuODggNTMuNTY4Ii8+CiAgIDwvZz4KICAgPGcgaWQ9ImxpbmUyZF85Ij4KICAgIDxwYXRoIHN0eWxlPSJmaWxsOiBub25lOyBzdHJva2U6ICMzZjNmM2Y7IHN0cm9rZS1saW5lY2FwOiBzcXVhcmUiIGNsaXAtcGF0aD0idXJsKCNwMzYwZjc0NTgyNikiIGQ9Ik0gMTExLjE2OCAyMDMuNjE2NTY4ICYjMTA7TCAxODIuNTkyIDIwMy42MTY1NjgiLz4KICAgPC9nPgogICA8ZyBpZD0ibGluZTJkXzEwIj4KICAgIDxwYXRoIHN0eWxlPSJmaWxsOiBub25lOyBzdHJva2U6ICMzZjNmM2Y7IHN0cm9rZS1saW5lY2FwOiBzcXVhcmUiIGNsaXAtcGF0aD0idXJsKCNwMzYwZjc0NTgyNikiIGQ9Ik0gMTExLjE2OCA1My41NjggJiMxMDtMIDE4Mi41OTIgNTMuNTY4Ii8+CiAgIDwvZz4KICAgPGcgaWQ9ImxpbmUyZF8xMSI+CiAgICA8ZGVmcz4KICAgICA8cGF0aCBzdHlsZT0ic3Ryb2tlOiAjM2YzZjNmIiBkPSJNIDAgMyAmIzEwO0MgMC43OTU2MDkgMyAxLjU1ODc0IDIuNjgzOTAxIDIuMTIxMzIgMi4xMjEzMiAmIzEwO0MgMi42ODM5MDEgMS41NTg3NCAzIDAuNzk1NjA5IDMgMCAmIzEwO0MgMyAtMC43OTU2MDkgMi42ODM5MDEgLTEuNTU4NzQgMi4xMjEzMiAtMi4xMjEzMiAmIzEwO0MgMS41NTg3NCAtMi42ODM5MDEgMC43OTU2MDkgLTMgMCAtMyAmIzEwO0MgLTAuNzk1NjA5IC0zIC0xLjU1ODc0IC0yLjY4MzkwMSAtMi4xMjEzMiAtMi4xMjEzMiAmIzEwO0MgLTIuNjgzOTAxIC0xLjU1ODc0IC0zIC0wLjc5NTYwOSAtMyAwICYjMTA7QyAtMyAwLjc5NTYwOSAtMi42ODM5MDEgMS41NTg3NCAtMi4xMjEzMiAyLjEyMTMyICYjMTA7QyAtMS41NTg3NCAyLjY4MzkwMSAtMC43OTU2MDkgMyAwIDMgJiMxMDt6IiBpZD0ibWE1ZDM5MjhmZjUiLz4KICAgIDwvZGVmcz4KICAgIDxnIGNsaXAtcGF0aD0idXJsKCNwMzYwZjc0NTgyNikiPgogICAgIDx1c2Ugc3R5bGU9ImZpbGwtb3BhY2l0eTogMDsgc3Ryb2tlOiAjM2YzZjNmIiB5PSIyMTIuOTg5NzMyIiB4PSIxNDYuODgiIHhsaW5rOmhyZWY9IiNtYTVkMzkyOGZmNSIvPgogICAgPC9nPgogICA8L2c+CiAgIDxnIGlkPSJwYXRjaF80Ij4KICAgIDxwYXRoIHN0eWxlPSJmaWxsOiAjZTE4MTJjOyBzdHJva2U6ICMzZjNmM2Y7IHN0cm9rZS1saW5lam9pbjogbWl0ZXIiIGNsaXAtcGF0aD0idXJsKCNwMzYwZjc0NTgyNikiIGQ9Ik0gMjU0LjAxNiAyMjcuODUyMzM2ICYjMTA7TCAzOTYuODY0IDIyNy44NTIzMzYgJiMxMDtMIDM5Ni44NjQgMTg2LjMyOTY3NiAmIzEwO0wgMjU0LjAxNiAxODYuMzI5Njc2ICYjMTA7TCAyNTQuMDE2IDIyNy44NTIzMzYgJiMxMDt6Ii8+CiAgIDwvZz4KICAgPGcgaWQ9ImxpbmUyZF8xMiI+CiAgICA8cGF0aCBzdHlsZT0iZmlsbDogbm9uZTsgc3Ryb2tlOiAjM2YzZjNmIiBjbGlwLXBhdGg9InVybCgjcDM2MGY3NDU4MjYpIiBkPSJNIDMyNS40NCAyMjcuODUyMzM2ICYjMTA7TCAzMjUuNDQgMjgyLjUyMjMyMyIvPgogICA8L2c+CiAgIDxnIGlkPSJsaW5lMmRfMTMiPgogICAgPHBhdGggc3R5bGU9ImZpbGw6IG5vbmU7IHN0cm9rZTogIzNmM2YzZiIgY2xpcC1wYXRoPSJ1cmwoI3AzNjBmNzQ1ODI2KSIgZD0iTSAzMjUuNDQgMTg2LjMyOTY3NiAmIzEwO0wgMzI1LjQ0IDEyNy4yMDI0MDgiLz4KICAgPC9nPgogICA8ZyBpZD0ibGluZTJkXzE0Ij4KICAgIDxwYXRoIHN0eWxlPSJmaWxsOiBub25lOyBzdHJva2U6ICMzZjNmM2Y7IHN0cm9rZS1saW5lY2FwOiBzcXVhcmUiIGNsaXAtcGF0aD0idXJsKCNwMzYwZjc0NTgyNikiIGQ9Ik0gMjg5LjcyOCAyODIuNTIyMzIzICYjMTA7TCAzNjEuMTUyIDI4Mi41MjIzMjMiLz4KICAgPC9nPgogICA8ZyBpZD0ibGluZTJkXzE1Ij4KICAgIDxwYXRoIHN0eWxlPSJmaWxsOiBub25lOyBzdHJva2U6ICMzZjNmM2Y7IHN0cm9rZS1saW5lY2FwOiBzcXVhcmUiIGNsaXAtcGF0aD0idXJsKCNwMzYwZjc0NTgyNikiIGQ9Ik0gMjg5LjcyOCAxMjcuMjAyNDA4ICYjMTA7TCAzNjEuMTUyIDEyNy4yMDI0MDgiLz4KICAgPC9nPgogICA8ZyBpZD0ibGluZTJkXzE2Ij4KICAgIDxnIGNsaXAtcGF0aD0idXJsKCNwMzYwZjc0NTgyNikiPgogICAgIDx1c2Ugc3R5bGU9ImZpbGwtb3BhY2l0eTogMDsgc3Ryb2tlOiAjM2YzZjNmIiB5PSIyOTUuNDg4IiB4PSIzMjUuNDQiIHhsaW5rOmhyZWY9IiNtYTVkMzkyOGZmNSIvPgogICAgPC9nPgogICA8L2c+CiAgIDxnIGlkPSJsaW5lMmRfMTciPgogICAgPHBhdGggc3R5bGU9ImZpbGw6IG5vbmU7IHN0cm9rZTogIzNmM2YzZiIgY2xpcC1wYXRoPSJ1cmwoI3AzNjBmNzQ1ODI2KSIgZD0iTSA3NS40NTYgMTI5Ljc2NDkxNCAmIzEwO0wgMjE4LjMwNCAxMjkuNzY0OTE0Ii8+CiAgIDwvZz4KICAgPGcgaWQ9ImxpbmUyZF8xOCI+CiAgICA8cGF0aCBzdHlsZT0iZmlsbDogbm9uZTsgc3Ryb2tlOiAjM2YzZjNmIiBjbGlwLXBhdGg9InVybCgjcDM2MGY3NDU4MjYpIiBkPSJNIDI1NC4wMTYgMjExLjI4Mzg5OSAmIzEwO0wgMzk2Ljg2NCAyMTEuMjgzODk5Ii8+CiAgIDwvZz4KICAgPGcgaWQ9InBhdGNoXzUiPgogICAgPHBhdGggc3R5bGU9ImZpbGw6IG5vbmU7IHN0cm9rZTogIzAwMDAwMDsgc3Ryb2tlLXdpZHRoOiAwLjg7IHN0cm9rZS1saW5lam9pbjogbWl0ZXI7IHN0cm9rZS1saW5lY2FwOiBzcXVhcmUiIGQ9Ik0gNTcuNiAzMDcuNTg0ICYjMTA7TCA1Ny42IDQxLjQ3MiIvPgogICA8L2c+CiAgIDxnIGlkPSJwYXRjaF82Ij4KICAgIDxwYXRoIHN0eWxlPSJmaWxsOiBub25lOyBzdHJva2U6ICMwMDAwMDA7IHN0cm9rZS13aWR0aDogMC44OyBzdHJva2UtbGluZWpvaW46IG1pdGVyOyBzdHJva2UtbGluZWNhcDogc3F1YXJlIiBkPSJNIDQxNC43MiAzMDcuNTg0ICYjMTA7TCA0MTQuNzIgNDEuNDcyIi8+CiAgIDwvZz4KICAgPGcgaWQ9InBhdGNoXzciPgogICAgPHBhdGggc3R5bGU9ImZpbGw6IG5vbmU7IHN0cm9rZTogIzAwMDAwMDsgc3Ryb2tlLXdpZHRoOiAwLjg7IHN0cm9rZS1saW5lam9pbjogbWl0ZXI7IHN0cm9rZS1saW5lY2FwOiBzcXVhcmUiIGQ9Ik0gNTcuNiAzMDcuNTg0ICYjMTA7TCA0MTQuNzIgMzA3LjU4NCIvPgogICA8L2c+CiAgIDxnIGlkPSJwYXRjaF84Ij4KICAgIDxwYXRoIHN0eWxlPSJmaWxsOiBub25lOyBzdHJva2U6ICMwMDAwMDA7IHN0cm9rZS13aWR0aDogMC44OyBzdHJva2UtbGluZWpvaW46IG1pdGVyOyBzdHJva2UtbGluZWNhcDogc3F1YXJlIiBkPSJNIDU3LjYgNDEuNDcyICYjMTA7TCA0MTQuNzIgNDEuNDcyIi8+CiAgIDwvZz4KICAgPGcgaWQ9InRleHRfOSI+CiAgICAKICAgIDxnIHRyYW5zZm9ybT0idHJhbnNsYXRlKDE1My4zNTM0MzcgMjIuMDMyMzc1KSBzY2FsZSgwLjEyIC0wLjEyKSI+CiAgICAgPGRlZnM+CiAgICAgIDxwYXRoIHRyYW5zZm9ybT0ic2NhbGUoMC4wMTU2MjUpIiBkPSJNIDYyOCA0NjY2ICYjMTA7TCAzNTc4IDQ2NjYgJiMxMDtMIDM1NzggNDEzNCAmIzEwO0wgMTI1OSA0MTM0ICYjMTA7TCAxMjU5IDI3NTMgJiMxMDtMIDM0ODEgMjc1MyAmIzEwO0wgMzQ4MSAyMjIyICYjMTA7TCAxMjU5IDIyMjIgJiMxMDtMIDEyNTkgNTMxICYjMTA7TCAzNjM0IDUzMSAmIzEwO0wgMzYzNCAwICYjMTA7TCA2MjggMCAmIzEwO0wgNjI4IDQ2NjYgJiMxMDt6IiBpZD0iRGVqYVZ1U2Fucy00NSIvPgogICAgICA8cGF0aCB0cmFuc2Zvcm09InNjYWxlKDAuMDE1NjI1KSIgZD0iTSAyMzc1IDQ4NjMgJiMxMDtMIDIzNzUgNDM4NCAmIzEwO0wgMTgyNSA0Mzg0ICYjMTA7USAxNTE2IDQzODQgMTM5NSA0MjU5ICYjMTA7USAxMjc1IDQxMzQgMTI3NSAzODA5ICYjMTA7TCAxMjc1IDM1MDAgJiMxMDtMIDIyMjIgMzUwMCAmIzEwO0wgMjIyMiAzMDUzICYjMTA7TCAxMjc1IDMwNTMgJiMxMDtMIDEyNzUgMCAmIzEwO0wgNjk3IDAgJiMxMDtMIDY5NyAzMDUzICYjMTA7TCAxNDcgMzA1MyAmIzEwO0wgMTQ3IDM1MDAgJiMxMDtMIDY5NyAzNTAwICYjMTA7TCA2OTcgMzc0NCAmIzEwO1EgNjk3IDQzMjggOTY5IDQ1OTUgJiMxMDtRIDEyNDEgNDg2MyAxODMxIDQ4NjMgJiMxMDtMIDIzNzUgNDg2MyAmIzEwO3oiIGlkPSJEZWphVnVTYW5zLTY2Ii8+CiAgICAgIDxwYXRoIHRyYW5zZm9ybT0ic2NhbGUoMC4wMTU2MjUpIiBkPSJNIDMxMjIgMzM2NiAmIzEwO0wgMzEyMiAyODI4ICYjMTA7USAyODc4IDI5NjMgMjYzMyAzMDMwICYjMTA7USAyMzg4IDMwOTcgMjEzOCAzMDk3ICYjMTA7USAxNTc4IDMwOTcgMTI2OCAyNzQyICYjMTA7USA5NTkgMjM4OCA5NTkgMTc0NyAmIzEwO1EgOTU5IDExMDYgMTI2OCA3NTEgJiMxMDtRIDE1NzggMzk3IDIxMzggMzk3ICYjMTA7USAyMzg4IDM5NyAyNjMzIDQ2NCAmIzEwO1EgMjg3OCA1MzEgMzEyMiA2NjYgJiMxMDtMIDMxMjIgMTM0ICYjMTA7USAyODgxIDIyIDI2MjMgLTM0ICYjMTA7USAyMzY2IC05MSAyMDc1IC05MSAmIzEwO1EgMTI4NCAtOTEgODE4IDQwNiAmIzEwO1EgMzUzIDkwMyAzNTMgMTc0NyAmIzEwO1EgMzUzIDI2MDMgODIzIDMwOTMgJiMxMDtRIDEyOTQgMzU4NCAyMTEzIDM1ODQgJiMxMDtRIDIzNzggMzU4NCAyNjMxIDM1MjkgJiMxMDtRIDI4ODQgMzQ3NSAzMTIyIDMzNjYgJiMxMDt6IiBpZD0iRGVqYVZ1U2Fucy02MyIvPgogICAgICA8cGF0aCB0cmFuc2Zvcm09InNjYWxlKDAuMDE1NjI1KSIgZD0iTSAxMTcyIDQ0OTQgJiMxMDtMIDExNzIgMzUwMCAmIzEwO0wgMjM1NiAzNTAwICYjMTA7TCAyMzU2IDMwNTMgJiMxMDtMIDExNzIgMzA1MyAmIzEwO0wgMTE3MiAxMTUzICYjMTA7USAxMTcyIDcyNSAxMjg5IDYwMyAmIzEwO1EgMTQwNiA0ODEgMTc2NiA0ODEgJiMxMDtMIDIzNTYgNDgxICYjMTA7TCAyMzU2IDAgJiMxMDtMIDE3NjYgMCAmIzEwO1EgMTEwMCAwIDg0NyAyNDggJiMxMDtRIDU5NCA0OTcgNTk0IDExNTMgJiMxMDtMIDU5NCAzMDUzICYjMTA7TCAxNzIgMzA1MyAmIzEwO0wgMTcyIDM1MDAgJiMxMDtMIDU5NCAzNTAwICYjMTA7TCA1OTQgNDQ5NCAmIzEwO0wgMTE3MiA0NDk0ICYjMTA7eiIgaWQ9IkRlamFWdVNhbnMtNzQiLz4KICAgICAgPHBhdGggdHJhbnNmb3JtPSJzY2FsZSgwLjAxNTYyNSkiIGQ9Ik0gMjkwNiAyOTY5ICYjMTA7TCAyOTA2IDQ4NjMgJiMxMDtMIDM0ODEgNDg2MyAmIzEwO0wgMzQ4MSAwICYjMTA7TCAyOTA2IDAgJiMxMDtMIDI5MDYgNTI1ICYjMTA7USAyNzI1IDIxMyAyNDQ4IDYxICYjMTA7USAyMTcyIC05MSAxNzg0IC05MSAmIzEwO1EgMTE1MCAtOTEgNzUxIDQxNSAmIzEwO1EgMzUzIDkyMiAzNTMgMTc0NyAmIzEwO1EgMzUzIDI1NzIgNzUxIDMwNzggJiMxMDtRIDExNTAgMzU4NCAxNzg0IDM1ODQgJiMxMDtRIDIxNzIgMzU4NCAyNDQ4IDM0MzIgJiMxMDtRIDI3MjUgMzI4MSAyOTA2IDI5NjkgJiMxMDt6JiMxMDtNIDk0NyAxNzQ3ICYjMTA7USA5NDcgMTExMyAxMjA4IDc1MiAmIzEwO1EgMTQ2OSAzOTEgMTkyNSAzOTEgJiMxMDtRIDIzODEgMzkxIDI2NDMgNzUyICYjMTA7USAyOTA2IDExMTMgMjkwNiAxNzQ3ICYjMTA7USAyOTA2IDIzODEgMjY0MyAyNzQyICYjMTA7USAyMzgxIDMxMDMgMTkyNSAzMTAzICYjMTA7USAxNDY5IDMxMDMgMTIwOCAyNzQyICYjMTA7USA5NDcgMjM4MSA5NDcgMTc0NyAmIzEwO3oiIGlkPSJEZWphVnVTYW5zLTY0Ii8+CiAgICAgIDxwYXRoIHRyYW5zZm9ybT0ic2NhbGUoMC4wMTU2MjUpIiBkPSJNIDM1MTMgMjExMyAmIzEwO0wgMzUxMyAwICYjMTA7TCAyOTM4IDAgJiMxMDtMIDI5MzggMjA5NCAmIzEwO1EgMjkzOCAyNTkxIDI3NDQgMjgzNyAmIzEwO1EgMjU1MCAzMDg0IDIxNjMgMzA4NCAmIzEwO1EgMTY5NyAzMDg0IDE0MjggMjc4NyAmIzEwO1EgMTE1OSAyNDkxIDExNTkgMTk3OCAmIzEwO0wgMTE1OSAwICYjMTA7TCA1ODEgMCAmIzEwO0wgNTgxIDM1MDAgJiMxMDtMIDExNTkgMzUwMCAmIzEwO0wgMTE1OSAyOTU2ICYjMTA7USAxMzY2IDMyNzIgMTY0NSAzNDI4ICYjMTA7USAxOTI1IDM1ODQgMjI5MSAzNTg0ICYjMTA7USAyODk0IDM1ODQgMzIwMyAzMjExICYjMTA7USAzNTEzIDI4MzggMzUxMyAyMTEzICYjMTA7eiIgaWQ9IkRlamFWdVNhbnMtNmUiLz4KICAgICAgPHBhdGggdHJhbnNmb3JtPSJzY2FsZSgwLjAxNTYyNSkiIGQ9Ik0gMjY5IDM1MDAgJiMxMDtMIDg0NCAzNTAwICYjMTA7TCAxNTYzIDc2OSAmIzEwO0wgMjI3OCAzNTAwICYjMTA7TCAyOTU2IDM1MDAgJiMxMDtMIDM2NzUgNzY5ICYjMTA7TCA0MzkxIDM1MDAgJiMxMDtMIDQ5NjYgMzUwMCAmIzEwO0wgNDA1MCAwICYjMTA7TCAzMzcyIDAgJiMxMDtMIDI2MTkgMjg2OSAmIzEwO0wgMTg2MyAwICYjMTA7TCAxMTg0IDAgJiMxMDtMIDI2OSAzNTAwICYjMTA7eiIgaWQ9IkRlamFWdVNhbnMtNzciLz4KICAgICAgPHBhdGggdHJhbnNmb3JtPSJzY2FsZSgwLjAxNTYyNSkiIGQ9Ik0gMzUxMyAyMTEzICYjMTA7TCAzNTEzIDAgJiMxMDtMIDI5MzggMCAmIzEwO0wgMjkzOCAyMDk0ICYjMTA7USAyOTM4IDI1OTEgMjc0NCAyODM3ICYjMTA7USAyNTUwIDMwODQgMjE2MyAzMDg0ICYjMTA7USAxNjk3IDMwODQgMTQyOCAyNzg3ICYjMTA7USAxMTU5IDI0OTEgMTE1OSAxOTc4ICYjMTA7TCAxMTU5IDAgJiMxMDtMIDU4MSAwICYjMTA7TCA1ODEgNDg2MyAmIzEwO0wgMTE1OSA0ODYzICYjMTA7TCAxMTU5IDI5NTYgJiMxMDtRIDEzNjYgMzI3MiAxNjQ1IDM0MjggJiMxMDtRIDE5MjUgMzU4NCAyMjkxIDM1ODQgJiMxMDtRIDI4OTQgMzU4NCAzMjAzIDMyMTEgJiMxMDtRIDM1MTMgMjgzOCAzNTEzIDIxMTMgJiMxMDt6IiBpZD0iRGVqYVZ1U2Fucy02OCIvPgogICAgIDwvZGVmcz4KICAgICA8dXNlIHhsaW5rOmhyZWY9IiNEZWphVnVTYW5zLTQ1Ii8+CiAgICAgPHVzZSB4PSI2My4xODM1OTQiIHhsaW5rOmhyZWY9IiNEZWphVnVTYW5zLTY2Ii8+CiAgICAgPHVzZSB4PSI5OC4zODg2NzIiIHhsaW5rOmhyZWY9IiNEZWphVnVTYW5zLTY2Ii8+CiAgICAgPHVzZSB4PSIxMzMuNTkzNzUiIHhsaW5rOmhyZWY9IiNEZWphVnVTYW5zLTY1Ii8+CiAgICAgPHVzZSB4PSIxOTUuMTE3MTg4IiB4bGluazpocmVmPSIjRGVqYVZ1U2Fucy02MyIvPgogICAgIDx1c2UgeD0iMjUwLjA5NzY1NiIgeGxpbms6aHJlZj0iI0RlamFWdVNhbnMtNzQiLz4KICAgICA8dXNlIHg9IjI4OS4zMDY2NDEiIHhsaW5rOmhyZWY9IiNEZWphVnVTYW5zLTIwIi8+CiAgICAgPHVzZSB4PSIzMjEuMDkzNzUiIHhsaW5rOmhyZWY9IiNEZWphVnVTYW5zLTZmIi8+CiAgICAgPHVzZSB4PSIzODIuMjc1MzkxIiB4bGluazpocmVmPSIjRGVqYVZ1U2Fucy02NiIvPgogICAgIDx1c2UgeD0iNDE3LjQ4MDQ2OSIgeGxpbms6aHJlZj0iI0RlamFWdVNhbnMtMjAiLz4KICAgICA8dXNlIHg9IjQ0OS4yNjc1NzgiIHhsaW5rOmhyZWY9IiNEZWphVnVTYW5zLTY0Ii8+CiAgICAgPHVzZSB4PSI1MTIuNzQ0MTQxIiB4bGluazpocmVmPSIjRGVqYVZ1U2Fucy02OSIvPgogICAgIDx1c2UgeD0iNTQwLjUyNzM0NCIgeGxpbms6aHJlZj0iI0RlamFWdVNhbnMtNzMiLz4KICAgICA8dXNlIHg9IjU5Mi42MjY5NTMiIHhsaW5rOmhyZWY9IiNEZWphVnVTYW5zLTY1Ii8+CiAgICAgPHVzZSB4PSI2NTQuMTUwMzkxIiB4bGluazpocmVmPSIjRGVqYVZ1U2Fucy02MSIvPgogICAgIDx1c2UgeD0iNzE1LjQyOTY4OCIgeGxpbms6aHJlZj0iI0RlamFWdVNhbnMtNzMiLz4KICAgICA8dXNlIHg9Ijc2Ny41MjkyOTciIHhsaW5rOmhyZWY9IiNEZWphVnVTYW5zLTY1Ii8+CiAgICAgPHVzZSB4PSI4MjkuMDUyNzM0IiB4bGluazpocmVmPSIjRGVqYVZ1U2Fucy0yMCIvPgogICAgIDx1c2UgeD0iODYwLjgzOTg0NCIgeGxpbms6aHJlZj0iI0RlamFWdVNhbnMtNmYiLz4KICAgICA8dXNlIHg9IjkyMi4wMjE0ODQiIHhsaW5rOmhyZWY9IiNEZWphVnVTYW5zLTZlIi8+CiAgICAgPHVzZSB4PSI5ODUuNDAwMzkxIiB4bGluazpocmVmPSIjRGVqYVZ1U2Fucy0yMCIvPgogICAgIDx1c2UgeD0iMTAxNy4xODc1IiB4bGluazpocmVmPSIjRGVqYVZ1U2Fucy01OSIvPgogICAgIDx1c2UgeD0iMTA3OC4yNzE0ODQiIHhsaW5rOmhyZWY9IiNEZWphVnVTYW5zLTIwIi8+CiAgICAgPHVzZSB4PSIxMTEwLjA1ODU5NCIgeGxpbms6aHJlZj0iI0RlamFWdVNhbnMtNzciLz4KICAgICA8dXNlIHg9IjExOTEuODQ1NzAzIiB4bGluazpocmVmPSIjRGVqYVZ1U2Fucy02OCIvPgogICAgIDx1c2UgeD0iMTI1NS4yMjQ2MDkiIHhsaW5rOmhyZWY9IiNEZWphVnVTYW5zLTY1Ii8+CiAgICAgPHVzZSB4PSIxMzE2Ljc0ODA0NyIgeGxpbms6aHJlZj0iI0RlamFWdVNhbnMtNmUiLz4KICAgIDwvZz4KICAgIAogICAgPGcgdHJhbnNmb3JtPSJ0cmFuc2xhdGUoMTgzIDM1LjQ3Mikgc2NhbGUoMC4xMiAtMC4xMikiPgogICAgIDxkZWZzPgogICAgICA8cGF0aCB0cmFuc2Zvcm09InNjYWxlKDAuMDE1NjI1KSIgZD0iTSAyMTg4IDQwNDQgJiMxMDtMIDEzMzEgMTcyMiAmIzEwO0wgMzA0NyAxNzIyICYjMTA7TCAyMTg4IDQwNDQgJiMxMDt6JiMxMDtNIDE4MzEgNDY2NiAmIzEwO0wgMjU0NyA0NjY2ICYjMTA7TCA0MzI1IDAgJiMxMDtMIDM2NjkgMCAmIzEwO0wgMzI0NCAxMTk3ICYjMTA7TCAxMTQxIDExOTcgJiMxMDtMIDcxNiAwICYjMTA7TCA1MCAwICYjMTA7TCAxODMxIDQ2NjYgJiMxMDt6IiBpZD0iRGVqYVZ1U2Fucy00MSIvPgogICAgICA8cGF0aCB0cmFuc2Zvcm09InNjYWxlKDAuMDE1NjI1KSIgZD0iTSAyOTA2IDE3OTEgJiMxMDtRIDI5MDYgMjQxNiAyNjQ4IDI3NTkgJiMxMDtRIDIzOTEgMzEwMyAxOTI1IDMxMDMgJiMxMDtRIDE0NjMgMzEwMyAxMjA1IDI3NTkgJiMxMDtRIDk0NyAyNDE2IDk0NyAxNzkxICYjMTA7USA5NDcgMTE2OSAxMjA1IDgyNSAmIzEwO1EgMTQ2MyA0ODEgMTkyNSA0ODEgJiMxMDtRIDIzOTEgNDgxIDI2NDggODI1ICYjMTA7USAyOTA2IDExNjkgMjkwNiAxNzkxICYjMTA7eiYjMTA7TSAzNDgxIDQzNCAmIzEwO1EgMzQ4MSAtNDU5IDMwODQgLTg5NSAmIzEwO1EgMjY4OCAtMTMzMSAxODY5IC0xMzMxICYjMTA7USAxNTY2IC0xMzMxIDEyOTcgLTEyODYgJiMxMDtRIDEwMjggLTEyNDEgNzc1IC0xMTQ3ICYjMTA7TCA3NzUgLTU4OCAmIzEwO1EgMTAyOCAtNzI1IDEyNzUgLTc5MCAmIzEwO1EgMTUyMiAtODU2IDE3NzggLTg1NiAmIzEwO1EgMjM0NCAtODU2IDI2MjUgLTU2MSAmIzEwO1EgMjkwNiAtMjY2IDI5MDYgMzMxICYjMTA7TCAyOTA2IDYxNiAmIzEwO1EgMjcyOCAzMDYgMjQ1MCAxNTMgJiMxMDtRIDIxNzIgMCAxNzg0IDAgJiMxMDtRIDExNDEgMCA3NDcgNDkwICYjMTA7USAzNTMgOTgxIDM1MyAxNzkxICYjMTA7USAzNTMgMjYwMyA3NDcgMzA5MyAmIzEwO1EgMTE0MSAzNTg0IDE3ODQgMzU4NCAmIzEwO1EgMjE3MiAzNTg0IDI0NTAgMzQzMSAmIzEwO1EgMjcyOCAzMjc4IDI5MDYgMjk2OSAmIzEwO0wgMjkwNiAzNTAwICYjMTA7TCAzNDgxIDM1MDAgJiMxMDtMIDM0ODEgNDM0ICYjMTA7eiIgaWQ9IkRlamFWdVNhbnMtNjciLz4KICAgICAgPHBhdGggdHJhbnNmb3JtPSJzY2FsZSgwLjAxNTYyNSkiIGQ9Ik0gNDY4NCAzMTc1ICYjMTA7TCAxNjg0IDIzMDkgJiMxMDtMIDQ2ODQgMTQ1MyAmIzEwO0wgNDY4NCA4OTcgJiMxMDtMIDY3OCAyMDQ3ICYjMTA7TCA2NzggMjU3OCAmIzEwO0wgNDY4NCAzNzI1ICYjMTA7TCA0Njg0IDMxNzUgJiMxMDt6JiMxMDtNIDY3OCA1MzEgJiMxMDtMIDQ2ODQgNTMxICYjMTA7TCA0Njg0IDAgJiMxMDtMIDY3OCAwICYjMTA7TCA2NzggNTMxICYjMTA7eiIgaWQ9IkRlamFWdVNhbnMtMjI2NCIvPgogICAgICA8cGF0aCB0cmFuc2Zvcm09InNjYWxlKDAuMDE1NjI1KSIgZD0iTSA2OTEgNDY2NiAmIzEwO0wgMzE2OSA0NjY2ICYjMTA7TCAzMTY5IDQxMzQgJiMxMDtMIDEyNjkgNDEzNCAmIzEwO0wgMTI2OSAyOTkxICYjMTA7USAxNDA2IDMwMzggMTU0MyAzMDYxICYjMTA7USAxNjgxIDMwODQgMTgxOSAzMDg0ICYjMTA7USAyNjAwIDMwODQgMzA1NiAyNjU2ICYjMTA7USAzNTEzIDIyMjggMzUxMyAxNDk3ICYjMTA7USAzNTEzIDc0NCAzMDQ0IDMyNiAmIzEwO1EgMjU3NSAtOTEgMTcyMiAtOTEgJiMxMDtRIDE0MjggLTkxIDExMjMgLTQxICYjMTA7USA4MTkgOSA0OTQgMTA5ICYjMTA7TCA0OTQgNzQ0ICYjMTA7USA3NzUgNTkxIDEwNzUgNTE2ICYjMTA7USAxMzc1IDQ0MSAxNzA5IDQ0MSAmIzEwO1EgMjI1MCA0NDEgMjU2NSA3MjUgJiMxMDtRIDI4ODEgMTAwOSAyODgxIDE0OTcgJiMxMDtRIDI4ODEgMTk4NCAyNTY1IDIyNjggJiMxMDtRIDIyNTAgMjU1MyAxNzA5IDI1NTMgJiMxMDtRIDE0NTYgMjU1MyAxMjA0IDI0OTcgJiMxMDtRIDk1MyAyNDQxIDY5MSAyMzIyICYjMTA7TCA2OTEgNDY2NiAmIzEwO3oiIGlkPSJEZWphVnVTYW5zLTM1Ii8+CiAgICAgIDxwYXRoIHRyYW5zZm9ybT0ic2NhbGUoMC4wMTU2MjUpIiBkPSJNIDE1NTYgMjUwOSAmIzEwO1EgMTI3MiAyMjU2IDExMzkgMjAwNCAmIzEwO1EgMTAwNiAxNzUzIDEwMDYgMTQ3OCAmIzEwO1EgMTAwNiAxMDIyIDEzMzcgNzE5ICYjMTA7USAxNjY5IDQxNiAyMTY5IDQxNiAmIzEwO1EgMjQ2NiA0MTYgMjcyNSA1MTQgJiMxMDtRIDI5ODQgNjEzIDMyMTMgODEzICYjMTA7TCAxNTU2IDI1MDkgJiMxMDt6JiMxMDtNIDE5OTcgMjg1OSAmIzEwO0wgMzU4NCAxMjM0ICYjMTA7USAzNzY5IDE1MTMgMzg3MiAxODMwICYjMTA7USAzOTc1IDIxNDcgMzk5NCAyNTAzICYjMTA7TCA0NTc1IDI1MDMgJiMxMDtRIDQ1MzggMjA5MSA0Mzc1IDE2ODcgJiMxMDtRIDQyMTMgMTI4NCAzOTIyIDg5MSAmIzEwO0wgNDc5NCAwICYjMTA7TCA0MDA2IDAgJiMxMDtMIDM1NTkgNDU5ICYjMTA7USAzMjM0IDE4MSAyODc4IDQ1ICYjMTA7USAyNTIyIC05MSAyMTEzIC05MSAmIzEwO1EgMTM1OSAtOTEgODgxIDMzOSAmIzEwO1EgNDAzIDc2OSA0MDMgMTQ0MSAmIzEwO1EgNDAzIDE4NDEgNjEyIDIxOTIgJiMxMDtRIDgyMiAyNTQ0IDEyNDEgMjg1MyAmIzEwO1EgMTA5MSAzMDUwIDEwMTIgMzI0NSAmIzEwO1EgOTM0IDM0NDEgOTM0IDM2MjggJiMxMDtRIDkzNCA0MTM0IDEyODEgNDQ0MiAmIzEwO1EgMTYyOCA0NzUwIDIyMDMgNDc1MCAmIzEwO1EgMjQ2MyA0NzUwIDI3MjAgNDY5NCAmIzEwO1EgMjk3OCA0NjM4IDMyNDQgNDUyNSAmIzEwO0wgMzI0NCAzOTU2ICYjMTA7USAyOTcyIDQxMDMgMjcyNSA0MTc5ICYjMTA7USAyNDc4IDQyNTYgMjI2NiA0MjU2ICYjMTA7USAxOTM4IDQyNTYgMTczMyA0MDgyICYjMTA7USAxNTI4IDM5MDkgMTUyOCAzNjM0ICYjMTA7USAxNTI4IDM0NzUgMTYyMCAzMzE0ICYjMTA7USAxNzEzIDMxNTMgMTk5NyAyODU5ICYjMTA7eiIgaWQ9IkRlamFWdVNhbnMtMjYiLz4KICAgICAgPHBhdGggdHJhbnNmb3JtPSJzY2FsZSgwLjAxNTYyNSkiIGQ9Ik0gNjI4IDQ2NjYgJiMxMDtMIDE1NjkgNDY2NiAmIzEwO0wgMjc1OSAxNDkxICYjMTA7TCAzOTU2IDQ2NjYgJiMxMDtMIDQ4OTcgNDY2NiAmIzEwO0wgNDg5NyAwICYjMTA7TCA0MjgxIDAgJiMxMDtMIDQyODEgNDA5NyAmIzEwO0wgMzA3OCA4OTcgJiMxMDtMIDI0NDQgODk3ICYjMTA7TCAxMjQxIDQwOTcgJiMxMDtMIDEyNDEgMCAmIzEwO0wgNjI4IDAgJiMxMDtMIDYyOCA0NjY2ICYjMTA7eiIgaWQ9IkRlamFWdVNhbnMtNGQiLz4KICAgICAgPHBhdGggdHJhbnNmb3JtPSJzY2FsZSgwLjAxNTYyNSkiIGQ9Ik0gNjAzIDQ4NjMgJiMxMDtMIDExNzggNDg2MyAmIzEwO0wgMTE3OCAwICYjMTA7TCA2MDMgMCAmIzEwO0wgNjAzIDQ4NjMgJiMxMDt6IiBpZD0iRGVqYVZ1U2Fucy02YyIvPgogICAgIDwvZGVmcz4KICAgICA8dXNlIHRyYW5zZm9ybT0idHJhbnNsYXRlKDAgMC4wMTU2MjUpIiB4bGluazpocmVmPSIjRGVqYVZ1U2Fucy00MSIvPgogICAgIDx1c2UgdHJhbnNmb3JtPSJ0cmFuc2xhdGUoNjguNDA4MjAzIDAuMDE1NjI1KSIgeGxpbms6aHJlZj0iI0RlamFWdVNhbnMtNjciLz4KICAgICA8dXNlIHRyYW5zZm9ybT0idHJhbnNsYXRlKDEzMS44ODQ3NjYgMC4wMTU2MjUpIiB4bGluazpocmVmPSIjRGVqYVZ1U2Fucy02NSIvPgogICAgIDx1c2UgdHJhbnNmb3JtPSJ0cmFuc2xhdGUoMTkzLjQwODIwMyAwLjAxNTYyNSkiIHhsaW5rOmhyZWY9IiNEZWphVnVTYW5zLTIwIi8+CiAgICAgPHVzZSB0cmFuc2Zvcm09InRyYW5zbGF0ZSgyNDQuNjc3NzM0IDAuMDE1NjI1KSIgeGxpbms6aHJlZj0iI0RlamFWdVNhbnMtMjI2NCIvPgogICAgIDx1c2UgdHJhbnNmb3JtPSJ0cmFuc2xhdGUoMzQ3Ljk0OTIxOSAwLjAxNTYyNSkiIHhsaW5rOmhyZWY9IiNEZWphVnVTYW5zLTIwIi8+CiAgICAgPHVzZSB0cmFuc2Zvcm09InRyYW5zbGF0ZSgzNzkuNzM2MzI4IDAuMDE1NjI1KSIgeGxpbms6aHJlZj0iI0RlamFWdVNhbnMtMzUiLz4KICAgICA8dXNlIHRyYW5zZm9ybT0idHJhbnNsYXRlKDQ0My4zNTkzNzUgMC4wMTU2MjUpIiB4bGluazpocmVmPSIjRGVqYVZ1U2Fucy0zMCIvPgogICAgIDx1c2UgdHJhbnNmb3JtPSJ0cmFuc2xhdGUoNTA2Ljk4MjQyMiAwLjAxNTYyNSkiIHhsaW5rOmhyZWY9IiNEZWphVnVTYW5zLTIwIi8+CiAgICAgPHVzZSB0cmFuc2Zvcm09InRyYW5zbGF0ZSg1MzguNzY5NTMxIDAuMDE1NjI1KSIgeGxpbms6aHJlZj0iI0RlamFWdVNhbnMtMjYiLz4KICAgICA8dXNlIHRyYW5zZm9ybT0idHJhbnNsYXRlKDYxNi43NDgwNDcgMC4wMTU2MjUpIiB4bGluazpocmVmPSIjRGVqYVZ1U2Fucy0yMCIvPgogICAgIDx1c2UgdHJhbnNmb3JtPSJ0cmFuc2xhdGUoNjQ4LjUzNTE1NiAwLjAxNTYyNSkiIHhsaW5rOmhyZWY9IiNEZWphVnVTYW5zLTRkIi8+CiAgICAgPHVzZSB0cmFuc2Zvcm09InRyYW5zbGF0ZSg3MzQuODE0NDUzIDAuMDE1NjI1KSIgeGxpbms6aHJlZj0iI0RlamFWdVNhbnMtNjEiLz4KICAgICA8dXNlIHRyYW5zZm9ybT0idHJhbnNsYXRlKDc5Ni4wOTM3NSAwLjAxNTYyNSkiIHhsaW5rOmhyZWY9IiNEZWphVnVTYW5zLTZjIi8+CiAgICAgPHVzZSB0cmFuc2Zvcm09InRyYW5zbGF0ZSg4MjMuODc2OTUzIDAuMDE1NjI1KSIgeGxpbms6aHJlZj0iI0RlamFWdVNhbnMtNjUiLz4KICAgIDwvZz4KICAgPC9nPgogIDwvZz4KIDwvZz4KIDxkZWZzPgogIDxjbGlwUGF0aCBpZD0icDM2MGY3NDU4MjYiPgogICA8cmVjdCBoZWlnaHQ9IjI2Ni4xMTIiIHdpZHRoPSIzNTcuMTIiIHk9IjQxLjQ3MiIgeD0iNTcuNiIvPgogIDwvY2xpcFBhdGg+CiA8L2RlZnM+Cjwvc3ZnPg==;" vertex="1" parent="1">
                    <mxGeometry x="543.04" y="80" width="346.42" height="260" as="geometry"/>
                </mxCell>
            </root>
        </mxGraphModel>
    </diagram>
</mxfile>